<svg xmlns="http://www.w3.org/2000/svg" width="24" height="29" viewBox="0 0 24 29">
  <g fill="none">
    <path stroke="#28816D" stroke-width=".9" d="M11.496879,6.08431559 L11.496879,23.8148562 C10.6670473,23.4218786 9.00738004,22.1467069 6.719534,19.0987398 C6.23663156,18.4555002 5.93425966,17.688793 5.84424056,16.8826893 L5.84424056,16.8826893 L4.80583796,7.5848915 C5.02741593,7.59612652 5.24977766,7.601823 5.472432,7.601823 C7.65891188,7.601823 9.74617558,7.05193918 11.496879,6.08431559 L11.496879,6.08431559 Z"/>
    <path fill="#28816D" stroke="#FFF" stroke-width=".5" d="M11.7776697,0.427014398 C12.7622246,1.37940449 13.6251771,2.14099946 14.7055742,2.68067617 C15.7905145,3.22262226 17.0964131,3.539986 18.503226,3.539986 C19.7811595,3.539986 20.9765197,3.27803898 21.9975735,2.8237468 C22.6341729,2.734909 22.8491145,2.80292574 23.0298835,2.93539498 C23.1796067,3.04523598 23.2943877,3.19082845 23.3664505,3.35511458 C23.4203503,3.4779936 23.4503446,3.61133109 23.4531569,3.74813447 L23.4467872,3.88583416 L21.9402201,17.3865381 C21.7716843,18.8895249 21.2229723,20.3042302 20.326908,21.5226744 C18.4805354,24.0329314 15.085599,28.026668 11.877012,28.026668 C8.78178503,28.026668 5.35505317,24.0471432 3.46999221,21.5363336 C2.62177182,20.405731 2.06784409,19.0781846 1.85364801,17.6834403 L1.80720303,17.3334293 L0.293945415,3.77616564 C0.272758855,3.58620742 0.302617246,3.39611646 0.378089332,3.22721252 C0.450664369,3.06479208 0.565602888,2.92197582 0.718132315,2.81892678 C1.16808766,2.51484923 1.69228547,2.68946211 1.77177832,2.72770241 C2.8375178,3.24048528 4.10663391,3.540112 5.472369,3.540112 C5.87948413,3.540112 6.27489261,3.50680904 6.6625858,3.45603198 C7.28679716,3.34811617 7.54945939,3.29235792 7.81209335,3.22084158 C8.41995242,3.03477678 8.67205253,2.9372427 8.92180749,2.82805411 C9.4984254,2.56307407 9.81730596,2.38702732 10.1075731,2.18741981 C10.8184064,1.69822916 11.3912611,1.09870441 11.7776697,0.427014398 Z M11.8172349,2.64239734 C10.2638697,4.09846634 7.9563637,4.970936 5.472369,4.970936 C4.18848521,4.970936 2.92982194,4.73913465 1.79157837,4.29510375 L1.79157837,4.29510375 L3.22882714,17.1748763 L3.27149581,17.4918718 C3.45346946,18.6488822 3.91492417,19.7444602 4.61428783,20.6775434 C7.38520037,24.3677098 10.177328,26.595781 11.876949,26.595781 C13.6800022,26.595781 16.4184691,24.4217945 19.1740389,20.6749011 C19.9233413,19.6559438 20.3757997,18.4959187 20.5184951,17.2270005 L20.5184951,17.2270005 L21.9515747,4.3830167 L21.589526,4.50482947 C20.614367,4.81135994 19.5643001,4.970936 18.503163,4.970936 C16.0200929,4.970936 13.7125973,4.09845849 11.8172349,2.64239734 Z"/>
  </g>
</svg>
