<svg xmlns="http://www.w3.org/2000/svg" width="30" height="26" viewBox="0 0 30 26">
  <g fill="none" fill-rule="evenodd">
    <path fill="#28816D" fill-rule="nonzero" d="M20.175,15.255 C19.8924281,15.255 19.6452375,15.4089563 19.5127969,15.6375 L18.8180812,15.6375 C18.7401469,14.8166072 18.4143286,14.0669311 17.9161702,13.4647566 L18.4089258,12.9720009 C18.6624037,13.0402294 18.9471989,12.9744872 19.1474855,12.7745114 C19.4458355,12.4761614 19.4458355,11.9908645 19.1474855,11.6925145 C18.8491355,11.3941645 18.3638386,11.3941645 18.0654886,11.6925145 C17.8658953,11.8923469 17.7999141,12.1760423 17.8679991,12.4310742 L17.3752434,12.9238298 C16.7730689,12.4256714 16.0233928,12.0998531 15.2025,12.0219188 L15.2025,11.3272031 C15.4310437,11.1947625 15.585,10.9475719 15.585,10.665 C15.585,10.2430547 15.2419453,9.9 14.82,9.9 C14.3980547,9.9 14.055,10.2430547 14.055,10.665 C14.055,10.9475719 14.2089562,11.1947625 14.4375,11.3272031 L14.4375,12.0219188 C13.6166072,12.0998531 12.8669311,12.4256714 12.2647566,12.9238298 L11.7720009,12.4310742 C11.8400859,12.1760184 11.7740808,11.892323 11.5745114,11.6925145 C11.2761614,11.3941645 10.7908645,11.3941645 10.4925145,11.6925145 C10.1941645,11.9908645 10.1941645,12.4761614 10.4925145,12.7745114 C10.6927055,12.9743677 10.9774767,13.0402772 11.2310742,12.9720009 L11.7238298,13.4647566 C11.2256714,14.0669311 10.8998531,14.8166072 10.8219187,15.6375 L10.1272031,15.6375 C9.9947625,15.4089563 9.74757187,15.255 9.465,15.255 C9.04305469,15.255 8.7,15.5980547 8.7,16.02 C8.7,16.4419453 9.04305469,16.785 9.465,16.785 C9.74757187,16.785 9.9947625,16.6310438 10.1272031,16.4025 L10.8219187,16.4025 C10.8998531,17.2233928 11.2256714,17.9730689 11.7238298,18.5752434 L11.2310742,19.0679991 C10.9760423,18.9999141 10.692323,19.0659192 10.4925145,19.2654886 C10.1941645,19.5638386 10.1941645,20.0491355 10.4925145,20.3474855 C10.7914144,20.6463853 11.2767112,20.6452856 11.5745114,20.3474855 C11.7741047,20.1476531 11.8400859,19.8639577 11.7720009,19.6089258 L12.2647566,19.1161702 C12.8669311,19.6143286 13.6166072,19.9401469 14.4375,20.0180813 L14.4375,20.7127969 C14.2089562,20.8452375 14.055,21.0924281 14.055,21.375 C14.055,21.7969453 14.3980547,22.14 14.82,22.14 C15.2419453,22.14 15.585,21.7969453 15.585,21.375 C15.585,21.0924281 15.4310437,20.8452375 15.2025,20.7127969 L15.2025,20.0180813 C16.0233928,19.9401469 16.7730689,19.6143286 17.3752434,19.1161702 L17.8679991,19.6089258 C17.7999141,19.8639577 17.8659192,20.147677 18.0654886,20.3474855 C18.3632887,20.6452856 18.8485856,20.6463853 19.1474855,20.3474855 C19.4458355,20.0491355 19.4458355,19.5638386 19.1474855,19.2654886 C18.9476531,19.0658953 18.6639577,18.9999141 18.4089258,19.0679991 L17.9161702,18.5752434 C18.4143286,17.9730689 18.7401469,17.2233928 18.8180812,16.4025 L19.5127969,16.4025 C19.6452375,16.6310438 19.8924281,16.785 20.175,16.785 C20.5969453,16.785 20.94,16.4419453 20.94,16.02 C20.94,15.5980547 20.5969453,15.255 20.175,15.255 Z M13.74,15.66 C13.3429714,15.66 13.02,15.3370286 13.02,14.94 C13.02,14.5429714 13.3429714,14.22 13.74,14.22 C14.1370286,14.22 14.46,14.5429714 14.46,14.94 C14.46,15.3370286 14.1370286,15.66 13.74,15.66 Z M15.18,17.82 C14.782875,17.82 14.46,17.497125 14.46,17.1 C14.46,16.702875 14.782875,16.38 15.18,16.38 C15.577125,16.38 15.9,16.702875 15.9,17.1 C15.9,17.497125 15.577125,17.82 15.18,17.82 Z M16.62,15.66 C16.2231,15.66 15.9,15.3369 15.9,14.94 C15.9,14.5431 16.2231,14.22 16.62,14.22 C17.0169,14.22 17.34,14.5431 17.34,14.94 C17.34,15.3369 17.0169,15.66 16.62,15.66 Z"/>
    <rect width="20.88" height="1.44" x="2.1" y="2.4" fill="#28816D" rx=".72"/>
    <rect width="14.4" height="1" x="2.1" y="4.56" fill="#28816D" rx=".5"/>
    <rect width="28.8" height="18" x=".45" y="7.05" stroke="#28816D" stroke-width=".9"/>
    <path stroke="#28816D" stroke-width=".9" d="M27.3,0.45 C27.8384776,0.45 28.3259776,0.668261184 28.6788582,1.02114178 C29.0317388,1.37402237 29.25,1.86152237 29.25,2.4 L29.25,2.4 L29.25,7.05 L0.45,7.05 L0.45,2.4 C0.45,1.86152237 0.668261184,1.37402237 1.02114178,1.02114178 C1.37402237,0.668261184 1.86152237,0.45 2.4,0.45 L2.4,0.45 L27.3,0.45 Z"/>
  </g>
</svg>
