<svg xmlns="http://www.w3.org/2000/svg" width="29" height="29" viewBox="0 0 29 29">
  <path fill="none" stroke="#28816D" stroke-width=".9" d="M14.4,0.45 C18.2461693,0.45 21.733561,2.01459823 24.2594814,4.54051862 C26.7854018,7.06643901 28.35,10.5538307 28.35,14.4 C28.35,18.2461693 26.7854018,21.733561 24.2594814,24.2594814 C21.733561,26.7854018 18.2461693,28.35 14.4,28.35 C10.5538307,28.35 7.06643901,26.7854018 4.54051862,24.2594814 C2.01459823,21.733561 0.45,18.2461693 0.45,14.4 C0.45,10.5538307 2.01459823,7.06643901 4.54051862,4.54051862 C7.06643901,2.01459823 10.5538307,0.45 14.4,0.45 Z M14.4,5.55007326 C13.944365,5.55007326 13.5317687,5.73463967 13.2331404,6.033268 C12.9347471,6.33166127 12.7500733,6.74396088 12.7500733,7.2 L12.7500733,7.2 L12.7500733,15.0000733 L12.7581457,15.1636711 C12.7956488,15.5424226 12.9626441,15.8974268 13.2343713,16.1675664 L13.2343713,16.1675664 L19.2335168,22.1664949 L19.3585822,22.2796267 C19.6605649,22.5261083 20.0304454,22.6500733 20.4000733,22.6500733 C20.8224286,22.6500733 21.2448566,22.4882681 21.5666356,22.166489 C21.8891785,21.8439461 22.0502747,21.4219517 22.0502747,21.0000092 C22.0502747,20.5781205 21.8892153,20.1560953 21.56671,19.833439 L21.56671,19.833439 L16.0499267,14.3168703 L16.0499267,7.2 L16.0414087,7.03117266 C16.0019814,6.64266577 15.8279537,6.29436211 15.5668596,6.033268 C15.2682313,5.73463967 14.855635,5.55007326 14.4,5.55007326 Z"/>
</svg>
