<svg xmlns="http://www.w3.org/2000/svg" width="27" height="30" viewBox="0 0 27 30">
  <path fill="none" stroke="#28816D" stroke-width=".9" d="M20.3062199,16.6602348 C22.0279151,16.6602348 23.5886607,17.3606755 24.7190943,18.4912734 C25.8496916,19.622035 26.55,21.1832157 26.55,22.9049875 L26.55,22.9049875 L26.55,28.0429585 C25.4885348,28.5209144 22.8370308,29.55 18.6653341,29.55 C16.2532593,29.55 13.3378334,29.2065677 9.99015946,28.1925859 L9.99015946,28.1925859 L9.62490622,22.8898552 C9.62902066,21.1742217 10.3288506,19.6190285 11.4563001,18.4916238 C12.5871438,17.3608251 14.1483416,16.6602348 15.8699894,16.6602348 L15.8699894,16.6602348 Z M10.8013109,11.2632093 C11.2801479,12.7317911 11.9098935,14.0536435 12.804904,15.1031128 C11.3370523,15.6804944 10.0698998,16.6598602 9.14018015,17.9051422 C8.09604827,19.3036699 7.47724077,21.0372343 7.47702525,22.9127499 L7.47702525,22.9127499 L7.47702525,24.0699018 C5.50821488,23.9216378 3.28098159,23.5427431 0.815358255,22.7952467 L0.815358255,22.7952467 L0.450018249,17.4919195 C0.454133196,15.7764834 1.15388289,14.2214756 2.28132547,13.0942308 C3.41210904,11.9636456 4.97327375,11.2632093 6.69510147,11.2632093 L6.69510147,11.2632093 Z M18.0883111,5.84809903 C19.407704,5.84809903 20.6022384,6.3829733 21.466936,7.24765916 C22.3316592,8.1123706 22.8665339,9.30691954 22.8665339,10.6262507 C22.8665339,11.9454415 22.331611,13.1400242 21.4668345,14.0047889 C20.6021465,14.8694652 19.4076557,15.4044024 18.0883111,15.4044024 C16.7687607,15.4044024 15.5739088,14.8694056 14.7089306,14.004644 C13.8439689,13.139899 13.3088496,11.9453783 13.3088496,10.6262507 C13.3088496,9.3069547 13.8439111,8.11247443 14.7088087,7.24779341 C15.5737984,6.38302035 16.7687027,5.84809903 18.0883111,5.84809903 Z M8.91400125,0.45 C10.2329869,0.45 11.427472,0.984852342 12.2921536,1.84964506 C13.1168074,2.67440493 13.6414885,3.79927731 13.6879676,5.04676815 C12.4483396,6.31952524 11.5850823,7.75270781 11.285335,9.37047451 C10.5859478,9.77289389 9.77804949,10.0064685 8.91400125,10.0064685 C7.59399216,10.0064685 6.39925257,9.47180243 5.53451464,8.60717186 C4.66975491,7.74251948 4.13503525,6.54790716 4.13503525,5.22815169 C4.13503525,3.90845019 4.66976533,2.71389069 5.53451817,1.84927251 C6.39926825,0.984657101 7.59401759,0.45 8.91400125,0.45 Z"/>
</svg>
