<svg xmlns="http://www.w3.org/2000/svg" width="206" height="118" viewBox="0 0 206 118">
  <g fill="none" fill-rule="evenodd" transform="translate(0 1)">
    <ellipse cx="103" cy="102" fill="#D8D8D8" opacity=".5" rx="103" ry="15"/>
    <g fill-rule="nonzero" stroke-width="2" transform="translate(51)">
      <polygon fill="#FFF" stroke="#376743" points="3.142 27.4 99.142 27.4 99.142 102.4 3.142 102.4"/>
      <polygon fill="#FFF" stroke="#B4C93D" points=".043 6.192 102.357 6.192 102.357 30.867 .043 30.867"/>
      <polygon stroke="#B4C93D" points=".154 0 6.148 0 6.148 17.38 .154 17.38" transform="translate(17.6)"/>
      <polygon stroke="#376743" points=".2 .192 51.357 .192 51.357 24.867 .2 24.867" transform="translate(51 6)"/>
      <polygon stroke="#376743" points=".194 0 6.188 0 6.188 17.38 .194 17.38" transform="translate(78.8)"/>
    </g>
    <path fill="#B4C93D" stroke="#B4C93D" d="M123.961319,46.3324492 C121.343141,43.5529298 117.876971,42.0337593 114.177603,42.0337593 C110.478235,42.0337593 107.001465,43.5641829 104.383288,46.3437023 L103.015899,47.7953541 L101.627311,46.321196 C99.009134,43.5416767 95.5217642,42 91.8223961,42 C88.1336279,42 84.656858,43.5304236 82.0492805,46.2986898 C79.4311031,49.0782091 77.9895155,52.7692308 78.0000574,56.6965678 C78.0000574,60.6239048 79.4523029,64.3036733 82.0704803,67.0831927 L101.977108,88.2165421 C102.252706,88.5091231 102.623703,88.6666667 102.9841,88.6666667 C103.344497,88.6666667 103.715493,88.5203762 103.991091,88.2277952 L123.940119,67.1282051 C126.558296,64.3486858 127.999942,60.6576642 127.999942,56.7303271 C128.010484,52.8029901 126.579496,49.1119685 123.961319,46.3324492 Z M121.926136,64.9788602 L102.9841,85.0094044 L84.0844629,64.9451009 C82.0068809,62.7394904 80.8620907,59.8136806 80.8620907,56.6965678 C80.8620907,53.579455 81.9962809,50.6536452 84.073863,48.4592878 C86.1408452,46.2649305 88.8968214,45.0495941 91.8223961,45.0495941 C94.7585707,45.0495941 97.5251469,46.2649305 99.6027289,48.470541 L101.998308,51.0137449 C102.560103,51.61016 103.461096,51.61016 104.022891,51.0137449 L106.39727,48.4930472 C108.474852,46.2874367 111.241428,45.0721003 114.167003,45.0721003 C117.092578,45.0721003 119.848554,46.2874367 121.926136,48.4817941 C124.003718,50.6874045 125.137981,53.6132144 125.137981,56.7303271 C125.148508,59.8474399 124.003718,62.7732497 121.926136,64.9788602 Z"/>
    <circle cx="63.419" cy="92.401" r="1" fill="#B4C93D" fill-rule="nonzero" stroke="#B4C93D" transform="rotate(19 63.419 92.4)"/>
    <path fill="#B4C93D" fill-rule="nonzero" stroke="#B4C93D" d="M74.6494866,77.3207684 C74.620152,73.338824 71.4916938,70.1089628 67.6504229,70.1089628 C63.7910074,70.1089628 60.6511363,73.369611 60.6511363,77.3774814 C60.6511363,77.8888703 61.0503186,78.3034073 61.5427652,78.3034073 C62.0352118,78.3034073 62.434394,77.8888703 62.434394,77.3774814 C62.434394,74.3907221 64.7742957,71.9608147 67.6504229,71.9608147 C70.5265501,71.9608147 72.8664518,74.3907221 72.8664518,77.3774814 C72.8664518,77.3939628 72.866853,77.4103517 72.8677001,77.426648 C72.8496446,79.5822962 71.6092997,81.5168332 69.6970678,82.3646573 C67.912116,83.1560462 66.758794,84.9884999 66.758794,87.0331295 L66.758794,89.1830369 C66.758794,89.6944258 67.1579763,90.1089628 67.6504229,90.1089628 C68.1428695,90.1089628 68.5420518,89.6944258 68.5420518,89.1830369 L68.5420518,87.0331295 C68.5420518,85.7314166 69.2702451,84.5674814 70.397264,84.0678054 C72.9820515,82.9217869 74.6518048,80.2956295 74.6511363,77.3772499 C74.6511363,77.3582684 74.6505565,77.3394721 74.6494866,77.3207684 Z" transform="rotate(19 67.651 80.109)"/>
    <path fill="#B4C93D" stroke="#B4C93D" stroke-width=".4" d="M48.0804545,50.4455936 C47.0673659,51.4065442 47.3803945,53.3488207 49.1351858,53.3488207 L53.7523586,53.3458749 C53.5770213,54.2767536 53.3230401,55.8198717 53.3330962,55.9649533 C53.4300474,57.3455603 54.3546938,59.0249225 54.3938869,59.0930446 C54.5623912,59.3917997 55.4131639,59.7968498 56.270125,59.6232919 C57.3770707,59.3976913 57.4901375,58.7254309 57.4856251,58.5400898 C57.4856251,58.5400898 57.4371495,56.7010397 57.4332818,56.2103154 C57.9617433,55.102933 59.7865405,52.1954099 60.3411737,51.9712822 C60.4734502,52.0475053 60.6227448,52.0877648 60.7788724,52.0877648 L66.6123188,52.0877648 C67.1077757,52.0877648 67.5062813,51.7061585 67.5062813,51.2366686 L67.5055077,43.5612151 C67.470827,43.1474503 67.1023608,42.8229192 66.6654357,42.8229192 L61.4267179,42.8229192 C60.9620741,42.8229192 60.5835518,43.1825546 60.5835518,43.6249184 L60.5835518,43.8797317 C60.5835518,43.8797317 60.3888758,43.8928652 60.3004336,43.8394722 C59.9641985,43.6358425 59.5472567,43.3795563 59.0042267,43.3795563 L51.1859877,43.3795563 C48.2627538,43.3795563 48.5773295,45.8498708 48.8435586,46.1867988 C48.3496489,46.6987576 48.0442267,47.6017738 48.4611685,48.3151529 C48.1396309,48.638702 47.5764887,49.5263754 48.0804545,50.4455936 Z M66.6660804,43.627005 L66.6660804,51.286993 L61.6050205,51.286993 L61.6050205,43.627005 L61.6050205,43.627005 L66.6660804,43.627005 Z" transform="scale(1 -1) rotate(-17 -285.375 0)"/>
    <path fill="#B4C93D" stroke="#B4C93D" stroke-width=".4" d="M133.717717,47.5283429 C132.451356,48.7295312 132.842642,51.1573768 135.036131,51.1573768 L140.807597,51.1536945 C140.588425,52.317293 140.270948,54.2461905 140.283519,54.4275425 C140.404708,56.1533013 141.560516,58.2525041 141.609507,58.3376566 C141.820137,58.7111005 142.883603,59.2174132 143.954805,59.0004659 C145.338487,58.7184651 145.47982,57.8781396 145.47418,57.6464632 C145.47418,57.6464632 145.413585,55.3476506 145.408751,54.7342452 C146.069328,53.3500172 148.350324,49.7156133 149.043616,49.4354537 C149.208961,49.5307325 149.395579,49.5810569 149.590739,49.5810569 L156.882547,49.5810569 C157.501868,49.5810569 158,49.1040491 158,48.5171867 L157.999033,38.9228698 C157.955682,38.4056638 157.495099,38 156.948943,38 L150.400546,38 C149.819741,38 149.346588,38.4495442 149.346588,39.002499 L149.346588,39.3210156 C149.346588,39.3210156 149.103243,39.3374324 148.99269,39.2706912 C148.572397,39.016154 148.051219,38.6957963 147.372432,38.6957963 L137.599633,38.6957963 C133.945591,38.6957963 134.33881,41.7836894 134.671597,42.2048494 C134.054209,42.8447979 133.672432,43.9735681 134.193609,44.865292 C133.791687,45.2697284 133.087759,46.3793201 133.717717,47.5283429 Z M156.949749,39.0051072 L156.949749,48.5800922 L150.623424,48.5800922 L150.623424,39.0051072 L150.623424,39.0051072 L156.949749,39.0051072 Z" transform="rotate(17 145.5 48.526)"/>
  </g>
</svg>
