<svg xmlns="http://www.w3.org/2000/svg" xmlns:xlink="http://www.w3.org/1999/xlink" width="206" height="113" viewBox="0 0 206 113">
  <defs>
    <polygon id="group-6-a" points=".195 .117 43.783 .117 43.783 35.835 .195 35.835"/>
  </defs>
  <g fill="none" fill-rule="evenodd">
    <ellipse cx="103" cy="98" fill="#D8D8D8" opacity=".5" rx="103" ry="15"/>
    <g transform="translate(55)">
      <path fill="#ACC52F" d="M77.4209903,72.269406 C73.2715703,78.202806 69.1208303,84.135876 64.9730603,90.070596 C64.0922903,91.330536 63.2069003,92.587176 62.3548403,93.866586 C61.9486103,94.476096 61.6430303,94.844706 60.8186903,94.309446 C58.7519003,92.967666 56.7458303,93.192066 54.9938603,94.934796 C54.4163603,95.508996 54.0131003,95.373036 53.4471503,94.971426 C51.5777003,93.645486 49.6782203,92.361786 47.6064803,90.935196 C46.7600303,94.542756 45.9343703,97.931856 45.1826303,101.336796 C44.9291903,102.485526 44.7054503,103.105926 43.1887703,102.812226 C41.2384703,102.434376 39.6148703,103.438896 38.7611603,105.245316 C38.2602203,106.305276 37.6728203,106.362036 36.6917303,106.118826 C33.4989803,105.328806 30.2940203,104.585646 27.0808103,103.883736 C26.0746403,103.663956 25.6717103,103.273566 25.6898603,102.149256 C25.7248403,99.938256 24.2566703,98.253606 22.1634803,97.781376 C20.2290203,97.344456 18.1417703,98.274726 17.2303103,100.198956 C16.7471903,101.219976 16.2736403,101.355276 15.2239103,101.076756 C11.9928803,100.219416 8.73248029,99.463716 5.46152029,98.771706 C4.52531029,98.573706 4.20719029,98.262846 4.22006029,97.285716 C4.24910029,95.131146 3.17330029,93.553086 1.12763029,92.923776 C-0.039579707,92.565066 -0.137919707,92.083926 0.112550293,91.048386 C1.46588029,85.454886 2.76212029,79.847526 4.07024029,74.242806 C4.16891029,73.819746 4.20653029,73.382496 4.27253029,72.951516 C5.64137029,67.260996 7.03232029,61.576086 8.37377029,55.879296 C10.6821203,46.075326 12.9601103,36.264426 15.2506403,26.456166 C16.1234903,26.258166 16.8244103,26.514246 17.3454803,27.248166 C17.4246803,29.597766 16.5267503,31.767186 16.0070003,33.993036 C11.7364703,52.286586 7.44086029,70.574526 3.13700029,88.860816 C2.84264029,90.112836 2.86574029,91.046076 4.06397029,91.840386 C5.23679029,92.617206 5.97566029,93.809826 6.32711029,95.186256 C6.59045029,96.217836 7.20788029,96.737916 8.25068029,96.938886 C10.0841603,97.291656 11.8948703,97.761906 13.7092103,98.202456 C14.7226403,98.448636 15.4483103,98.257896 16.2234803,97.519026 C20.3267003,93.607206 25.8231803,94.891236 27.8266103,100.225026 C28.1945603,101.204796 28.7007803,101.773056 29.7548003,101.972376 C31.6433903,102.329436 33.4824803,102.914856 35.3740403,103.273566 C36.1874903,103.427676 36.8712503,103.330986 37.4817503,102.705306 C38.6219003,101.536776 40.0121903,100.775136 41.6054303,100.418406 C42.5848703,100.199286 43.0736003,99.609246 43.2980003,98.645646 C46.2874703,85.806006 49.3333703,72.979236 52.3228403,60.139926 C54.0292703,52.810956 55.8228203,45.502116 57.4596203,38.156646 C57.5903003,37.570566 57.7183403,36.964026 58.2800003,36.594096 C59.0327303,36.403026 59.7405803,36.493446 60.3916703,36.933996 C60.7170503,38.455956 60.0002903,39.828096 59.7069203,41.248746 C59.2102703,43.654446 58.5842603,46.035066 58.0526303,48.435156 C57.7817003,49.341006 57.5672003,50.261376 57.3602903,51.183726 C56.8055603,53.920746 55.9577903,56.595066 55.6188803,59.378286 C55.6142603,59.732046 55.5126203,60.062706 55.3868903,60.388086 C54.0781103,64.517046 53.3075603,68.779986 52.2753203,72.977586 C51.9100103,74.462586 51.4948703,75.944286 51.3203003,77.473506 C51.0470603,78.178386 50.8523603,78.905706 50.7253103,79.652166 C49.9392503,82.697736 49.3376603,85.787856 48.5143103,88.821546 C48.4684403,89.033406 48.3400703,89.270016 48.4139903,89.461086 C48.8030603,90.464946 51.3856403,91.968426 52.5432803,91.892196 C53.8068503,92.291166 54.9707603,92.085246 56.1703103,91.522926 C57.2207003,91.030896 58.3902203,90.883716 59.5432403,91.294236 C60.5933003,91.668126 61.2674903,91.297866 61.8875603,90.391026 C66.8428403,83.144556 71.8618103,75.941976 76.8626303,68.726526 C83.6438003,58.940376 90.3926303,49.131786 97.2124103,39.372366 C97.5853103,38.838426 97.8998003,38.229576 98.6248103,38.069196 C99.3725903,38.053686 99.9296303,38.364216 100.27646,39.034116 C93.0646403,49.464756 85.8515003,59.894406 78.6449603,70.328346 C78.2106803,70.956996 77.8278803,71.621616 77.4209903,72.269406"/>
      <path fill="#ACC52F" d="M16.1905133,22.410399 C16.9356533,19.321929 17.7157733,16.241049 18.4028333,13.139379 C18.5856533,12.314049 18.8361233,12.078759 19.7033633,12.219339 C22.1041133,12.608079 23.9042633,11.692329 24.9011933,9.434799 C25.1783933,8.806479 25.4463533,8.668869 26.1324233,8.837499 C29.6452733,9.700449 33.1739633,10.502349 36.7023233,11.301939 C37.4019233,11.460669 37.6415033,11.780769 37.6791233,12.535809 C37.8107933,15.202869 39.0390533,16.772019 41.2064933,17.247219 C43.4145233,17.731989 45.1513133,16.897419 46.3802333,14.495019 C46.8402533,13.596429 47.3781533,13.822809 47.9830433,13.962729 C51.4533233,14.767929 54.9344933,15.537489 58.3744133,16.458519 C59.3809133,16.728129 59.8330133,16.447959 60.3247133,15.680379 C60.9431333,14.715129 61.6615433,13.814229 62.3367233,12.885609 C62.6178833,12.828849 62.7686933,12.989559 62.8828733,13.211319 C63.0095933,15.042819 61.4800433,16.043709 60.7434833,17.442579 C60.4049033,18.085089 59.6525033,18.582399 60.1465133,19.463169 C60.4870733,21.374199 62.2472933,21.598269 63.5705933,22.342749 C64.2936233,23.766369 63.2983433,25.024329 63.1871333,26.369409 C62.5555133,28.586019 62.4188933,30.933639 61.4209733,33.053889 C60.3629933,33.120549 59.3416433,33.074019 58.6149833,32.131869 C59.7221333,29.942979 59.8917533,27.493389 60.5336033,25.174479 C60.6986033,24.577839 60.4923533,24.106269 59.9963633,23.738649 C58.4978333,22.628529 57.3563633,21.271239 56.9715833,19.380669 C56.8491533,18.780729 56.4234533,18.456009 55.8373733,18.323679 C53.5887533,17.815479 51.3655433,17.201019 49.1050433,16.739019 C48.3440633,16.583589 47.8817333,16.934379 47.3732033,17.407599 C43.0040033,21.472539 37.5441533,20.158479 35.5021133,14.535279 C35.2001633,13.703679 34.7160533,13.276659 33.8824733,13.120569 C31.8859733,12.746019 29.9310533,12.185019 27.9414833,11.773179 C27.1065833,11.600259 26.4690233,11.711469 25.8872333,12.388629 C24.8107733,13.641639 23.4175133,14.413509 21.7793933,14.607549 C20.7824633,14.725689 20.3409233,15.236859 20.1577733,16.151289 C19.8350333,17.765649 19.4604833,19.369449 19.0331333,20.959719 C18.8496533,21.643149 18.7351433,22.376739 17.9939633,22.743369 C17.3385833,22.922559 16.6957433,23.034429 16.1905133,22.410399"/>
      <g transform="translate(64.653)">
        <mask id="group-6-b" fill="#fff">
          <use xlink:href="#group-6-a"/>
        </mask>
        <path fill="#ACC52F" d="M0.194964,9.25584 C1.981254,6.62442 3.785364,4.00488 5.541624,1.35399 C5.996694,0.66759 6.387084,0.72567 7.005174,1.11705 C9.036654,2.40306 10.988604,2.15655 12.722754,0.56166 C13.337544,-0.00363 13.748064,-0.01617 14.404104,0.44814 C17.315364,2.50965 20.248734,4.5408 23.200914,6.54357 C23.799864,6.95013 23.938464,7.26099 23.663574,7.99095 C22.753434,10.40787 23.322684,12.43935 25.116894,13.68246 C26.979744,14.97276 28.934664,14.80908 30.960534,13.06635 C31.542654,12.56574 31.909944,12.55683 32.505264,12.97692 C35.419494,15.0348 38.353854,17.06397 41.297784,19.07895 C41.903664,19.49376 42.171294,19.80528 41.829414,20.64381 C40.877034,22.97922 41.280954,24.59259 43.234554,26.18319 C44.037114,26.83659 43.849014,27.22863 43.372164,27.89589 C41.871984,29.99403 40.417674,32.12484 38.964024,34.25565 C38.629404,34.74669 38.178294,35.18856 38.128134,35.83503 C37.143084,35.71623 36.799224,34.95129 36.459654,34.18008 C37.015044,32.21955 38.483544,30.81969 39.585084,29.20302 C40.402824,28.00248 40.780344,27.0237 39.792654,25.6773 C39.014184,24.61536 38.772294,23.22672 39.001974,21.89715 C39.182154,20.85204 38.773944,20.26728 37.984254,19.70265 C36.332274,18.52224 34.621554,17.42697 32.978484,16.23666 C32.337294,15.77235 31.729764,15.59151 31.008384,16.00566 C25.759404,19.01757 19.939194,13.89762 20.828874,8.94795 C20.950644,8.27178 20.676084,7.78503 20.154354,7.38573 C18.324504,5.98356 16.335924,4.80777 14.494854,3.42144 C13.939464,3.003 13.404204,3.10464 12.808224,3.40131 C11.253264,4.17582 9.642534,4.64442 7.895184,4.03986 C6.978774,3.72306 6.500274,4.31244 5.989434,4.93911 C4.569444,6.68019 3.659304,8.79384 2.005344,10.36299 C1.119624,10.45539 0.528924,10.065 0.194964,9.25584" mask="url(#group-6-b)"/>
      </g>
      <path fill="#36613C" d="M16.1905133,22.410399 C16.8607433,22.439769 17.5306433,22.469139 18.2008733,22.498509 C19.7096333,22.255959 21.0309533,22.639419 22.1001533,23.738979 C22.9178933,24.580149 23.0215133,25.596549 22.5700733,26.639019 C22.1031233,27.717129 21.1989233,28.225659 20.0551433,28.115109 C19.0351133,28.016769 17.9490833,27.997299 17.1580733,27.156129 C16.5221633,26.922489 15.8865833,26.689179 15.2506733,26.456199 C13.9656533,24.546159 14.2078733,23.503029 16.1905133,22.410399"/>
      <path fill="#36623D" d="M101.205476,34.261887 C101.731496,34.787577 102.257516,35.313267 102.782546,35.836977 C103.112546,38.045337 102.499736,38.828097 100.276526,39.034017 C99.7102463,38.765397 99.1439663,38.497107 98.5776863,38.228487 C97.5055163,38.042367 96.6894263,37.392597 95.9584763,36.665607 C94.9123763,35.625117 94.8179963,34.187307 95.6324363,33.105567 C96.4333463,32.042637 97.6434563,31.774017 98.9796263,32.452827 C99.8396063,32.890077 100.777796,33.274197 101.205476,34.261887"/>
      <path fill="#36613C" d="M64.8484523,9.25584 C65.4180323,9.59145 65.9876123,9.92706 66.5571923,10.263 C67.6346423,10.29402 68.3603123,10.98405 69.0404423,11.67738 C70.1040323,12.76143 70.2267923,14.03226 69.4618523,15.06648 C68.5428023,16.30893 67.2845123,16.59141 65.8599023,15.86673 C65.5691723,15.71856 65.3015423,15.52881 65.0405123,15.33543 C64.6626623,15.05031 64.2709523,14.78037 63.8789123,14.51274 C63.3525623,14.20056 62.9275223,13.79235 62.6796923,13.22013 C62.5651823,13.10892 62.4510023,12.99771 62.3368223,12.88584 C61.7081723,10.54317 62.3988623,9.54525 64.8484523,9.25584"/>
      <path fill="#FEFEFE" d="M17.1579743 27.156096C18.0047543 27.339246 18.8452643 27.564966 19.7002943 27.695646 21.0037943 27.894636 21.9508943 27.350796 22.3831943 26.105376 22.7890943 24.936186 22.1046743 23.707596 20.8378043 23.267046 19.9741943 22.967076 19.0805543 22.751256 18.2007743 22.498146 18.7472543 20.207616 19.3099043 17.920716 19.8322943 15.624576 20.0322743 14.744136 20.3302643 14.244846 21.4202543 14.212836 23.1992843 14.160366 24.6846143 13.278276 25.7435843 11.836506 26.2329743 11.169906 26.6642843 10.966296 27.5104043 11.195316 29.7831143 11.811096 32.0832143 12.337116 34.3918943 12.802746 35.2621043 12.978636 35.7109043 13.305996 35.8950443 14.212176 36.4263443 16.827096 38.0743643 18.522306 40.6292243 19.138086 43.2362243 19.766076 45.5647043 19.056246 47.2434143 16.895076 47.8331243 16.135746 48.3815843 16.066446 49.1917343 16.266096 51.4789643 16.830396 53.7744443 17.363346 56.0719043 17.884746 56.7576443 18.040506 57.2625443 18.233556 57.3803543 19.084956 57.6526043 21.058026 58.7871443 22.485606 60.4585943 23.523456 60.7991543 23.734986 61.3228643 23.825406 61.1644643 24.458676 60.5394443 26.954796 59.9362043 29.456196 59.3029343 31.950006 59.2768643 32.052966 59.0303543 32.099826 58.8861443 32.173086 58.1994143 32.641686 57.5004743 32.205756 56.8094543 32.188926 55.7221043 32.162526 54.8122943 32.382306 54.5925143 33.630036 54.3753743 34.862916 55.1653943 35.429196 56.1547343 35.805396 56.8926143 36.086226 57.8354243 35.907366 58.3013843 36.783516 54.2598743 53.963646 50.2183643 71.143776 46.1771843 88.323906 45.2983943 92.059176 44.4050843 95.790816 43.5563243 99.532686 43.3949543 100.244166 43.2177443 100.700886 42.3498443 100.780086 40.3516943 100.960926 38.6535143 101.794176 37.4902643 103.498296 37.0998743 104.070186 36.5969543 104.048406 36.0405743 103.919706 33.5833943 103.351776 31.1298443 102.768006 28.6696943 102.212946 27.9908843 102.059826 27.7499843 101.695506 27.5988443 101.002836 27.0081443 98.293866 25.3429643 96.499326 22.6178243 95.887836 19.9537343 95.290536 17.7344843 96.198696 16.0676543 98.326536 15.5657243 98.967396 15.1132943 99.027126 14.3843243 98.841996 12.1528643 98.275386 9.90787429 97.757286 7.65331429 97.291656 6.69037429 97.092996 6.14950429 96.693366 5.97460429 95.654856 5.68651429 93.944136 4.70575429 92.588826 3.21052429 91.748976 2.28124429 91.226586 2.23108429 90.676476 2.45020429 89.747526 7.37116429 68.887896 12.2617643 48.021336 17.1579743 27.156096M64.9715423 14.90115C67.1851823 16.22214 68.3933123 16.1865 69.2430623 14.77476 70.0334123 13.46202 69.5502923 12.43374 67.4633723 10.9626 67.1515223 10.74282 66.8588123 10.49697 66.5575223 10.263 67.9702523 8.17608 69.3922223 6.09543 70.7904323 3.99828 71.1451823 3.46632 71.4972923 3.29802 72.1556423 3.52836 74.0835023 4.20288 75.9456923 3.94977 77.6541023 2.83602 78.2052023 2.47665 78.6002123 2.53308 79.1123723 2.8974 81.1682723 4.36062 83.2330823 5.81394 85.3365023 7.20819 86.0001323 7.64841 86.1245423 8.10183 85.9912223 8.85027 85.5110723 11.54736 86.4703823 13.73922 88.6718123 15.28626 90.8283623 16.80129 93.1934723 16.94319 95.4886223 15.60042 96.3453023 15.09882 96.8878223 15.15624 97.6497923 15.71922 99.5466323 17.12073 101.495282 18.45558 103.464722 19.7538 104.114822 20.18214 104.344832 20.63391 104.175872 21.38202 103.748522 23.27127 104.221082 24.98991 105.399842 26.4726 105.913652 27.11907 105.883622 27.54675 105.426902 28.182 103.987112 30.1851 102.608042 32.23209 101.205542 34.26192 100.429382 33.75702 99.6763223 33.2112 98.8717823 32.75646 97.6725623 32.07897 96.6089723 32.40171 95.8651523 33.48114 95.1483923 34.52064 95.3322023 35.57895 96.2740223 36.41781 97.0023323 37.06626 97.8068723 37.62891 98.5777523 38.22918 94.3996223 44.20944 90.2049923 50.1798 86.0456723 56.17425 78.0025823 67.76649 69.9690623 79.365 61.9692023 90.98727 61.3755323 91.85022 60.8782223 92.14227 59.8565423 91.75551 58.4596523 91.22718 56.9660723 91.35852 55.7137223 92.10234 54.5224223 92.80986 53.5297823 92.82042 52.4579423 92.03865 52.3262723 91.91061 52.2507023 91.75518 52.2289223 91.57269 52.6615523 88.97295 53.2948223 86.4171 53.9650523 83.87016 54.0934223 83.38308 54.2993423 82.93626 54.7950023 82.70493 56.3928623 82.62243 57.3769223 83.8035 58.4906723 84.62025 59.5206023 85.37529 60.0667523 85.36704 60.8369723 84.25329 67.6184723 74.44866 74.4003023 64.64403 81.1844423 54.84138 84.3732323 50.23326 87.5884223 45.64362 90.7491623 41.01636 91.9186823 39.30432 91.9566323 39.24888 90.2492123 38.08035 83.7650423 33.64317 77.3386223 29.12349 70.8531323 24.68829 69.9994223 24.10452 69.0348323 23.6247 68.6262923 22.56507 68.4781223 22.02156 68.5144223 21.4698 68.6965823 20.95896 69.2037923 19.53699 68.5315823 18.96708 67.2280823 18.73311 66.4839323 18.59979 65.7325223 18.43413 65.0391923 18.11634 63.9498623 17.61672 63.5079923 16.07265 64.1544623 15.07506 64.3554323 14.76552 64.6342823 14.65299 64.9715423 14.90115"/>
      <path fill="#E4E4E4" d="M61.2641903 32.972841C61.7879003 30.693201 62.0802803 28.354491 63.0039503 26.177481 63.0501503 25.963311 63.1669703 25.779171 63.2570603 25.583481 64.7978303 22.250811 65.1100103 22.166001 68.1423803 24.251601 68.4796403 24.534411 68.7980903 24.827781 68.6915003 25.335651 66.7887203 32.799591 64.9813103 40.285971 63.4082003 47.827791 63.2646503 48.574251 62.9330003 49.212141 62.3317403 49.695591 60.5860403 50.152971 59.1248003 49.492641 57.7430903 48.520791 58.2384203 44.609631 59.4419303 40.854561 60.2807903 37.019301 61.5074003 35.888721 61.7357603 34.515921 61.2641903 32.972841M50.9965043 77.493966C50.9440343 75.397476 51.7561643 73.464666 52.1716343 71.459916 52.8563843 68.156286 53.6780843 64.880706 54.4700843 61.600176 54.5954843 61.080756 54.8683943 60.596646 55.0733243 60.096036 56.2590143 59.186886 57.6770243 58.809696 59.0663243 58.374096 59.5253543 58.230216 60.0137543 58.082046 60.4312043 58.507416 60.6886043 58.987236 60.5500043 59.474976 60.4401143 59.952486 58.8772343 66.743886 57.3004943 73.531656 55.6732643 80.306886 55.5920843 80.467596 55.4660243 80.581776 55.2993743 80.649756 53.6157143 79.939926 52.0977143 79.001076 50.9965043 77.493966M55.1250353 82.81911C53.8763153 84.2523 53.9664053 86.1399 53.4473153 87.81795 53.0450453 89.11881 52.7595953 90.45564 52.4223353 91.7763 50.5806053 91.55124 49.4100953 90.29526 48.2313353 89.05116 48.6477953 85.79901 49.4873153 82.64421 50.4198953 79.51086 52.1349053 79.71018 53.1882653 81.04998 54.5313653 81.89148 54.7996553 82.15482 55.1765153 82.35117 55.1250353 82.81911"/>
      <path fill="#9BB02A" d="M60.3595943,58.460028 C58.5973943,59.005188 56.8351943,59.551008 55.0729943,60.096168 C55.1743043,59.854608 55.2756143,59.612718 55.3769243,59.371158 C55.5455543,57.832038 56.5556843,56.705748 57.4437143,55.596288 C58.4307443,54.363078 58.5789143,53.352618 57.4371143,52.216758 C57.1635443,51.944508 57.0454043,51.573258 57.0533243,51.176598 C57.0559643,50.232138 57.1942343,49.323318 57.7430243,48.521088 C59.2969943,48.616788 60.6315143,49.840098 62.2887743,49.406148 C62.6379143,49.666518 62.7448343,50.060208 62.6540843,50.429808 C62.0076143,53.065188 61.7261243,55.797588 60.5889443,58.304928 C60.5133743,58.357068 60.4364843,58.408548 60.3595943,58.460028"/>
      <path fill="#35613B" d="M61.2641903,32.972841 C62.5310603,34.811601 62.2746503,35.867271 60.2811203,37.018971 C59.6211203,36.940431 58.9611203,36.861891 58.3011203,36.783351 C57.5134103,36.587661 56.7171203,36.420351 55.9396403,36.189681 C54.4952303,35.760681 53.8005803,34.694451 54.0794303,33.404151 C54.3454103,32.173251 55.4938103,31.498401 56.9817803,31.739961 C57.6216503,31.843581 58.2486503,32.025411 58.8839003,32.172261 C59.6699603,32.465961 60.5566703,32.453091 61.2641903,32.972841"/>
      <path fill="#E3E3E0" d="M57.0534893,51.176499 C59.1737393,53.715849 59.1677993,53.711889 57.3445493,56.379279 C56.6710193,57.364329 56.0318093,58.373139 55.3770893,59.371059 C54.7042193,58.697529 55.3619093,58.037529 55.4869793,57.435609 C55.9238993,55.331529 56.5188893,53.260119 57.0534893,51.176499"/>
      <path fill="#2F5634" d="M54.4515053,82.17198 C53.1080753,81.28494 51.7639853,80.39823 50.4202253,79.51119 C50.4611453,78.79542 50.3809553,78.045 50.9973953,77.49456 C52.3685453,78.47433 53.7406853,79.45476 55.1128253,80.43486 C55.5995753,81.82911 55.5355553,81.99774 54.4515053,82.17198"/>
      <path fill="#9DB22D" d="M48.2314673,89.051061 C49.6283573,89.959551 51.0252473,90.867711 52.4221373,91.776201 C52.4317073,91.863981 52.4435873,91.951431 52.4581073,92.038881 C52.3947473,92.639811 52.0795973,92.797551 51.5905373,92.466561 C50.4371873,91.686771 49.2950573,90.889821 48.1638173,90.078351 C47.6773973,89.729871 47.7925673,89.366541 48.2314673,89.051061"/>
      <path fill="#E4E4E4" d="M64.9715423,14.90115 C63.8145623,16.01556 64.0353323,17.43423 65.4381623,17.84244 C66.7419923,18.22161 68.4563423,18.04506 69.2615423,19.03935 C70.0588223,20.02341 68.6635823,21.46089 68.9371523,22.77693 C68.8193423,22.88814 68.6810723,22.93533 68.5197023,22.90926 C68.2590023,22.82709 68.0095223,22.70532 67.8082223,22.52844 C66.3364223,21.23715 64.8649523,20.41017 63.3337523,22.44429 C60.8792123,21.85656 59.9826023,21.07743 59.9717123,19.52115 C60.9273923,17.46591 61.8817523,15.41001 63.9109223,14.1405 C64.2643523,14.39394 64.6181123,14.64771 64.9715423,14.90115"/>
      <path fill="#2E5634" d="M63.3337853,22.444257 C64.9029353,20.060007 64.9065653,20.055057 67.2406553,21.680307 C67.7198153,22.013607 68.1623453,22.399377 68.6217053,22.760727 C69.0391553,23.590017 69.1332053,24.289287 67.9349753,24.469467 C66.9647753,24.192927 66.2952053,22.799007 65.3682353,23.171577 C64.6065953,23.477487 64.2020153,24.661197 63.6271553,25.446927 C63.4387253,25.704327 63.2130053,25.934667 63.0041153,26.177547 C62.6830253,24.895167 63.8848853,23.747097 63.3337853,22.444257"/>
      <path fill="#9CB22E" d="M63.9109553,14.140434 C62.5978853,15.933984 61.2848153,17.727534 59.9714153,19.521084 C58.7230253,18.909264 59.6965253,18.270384 60.0189353,17.756904 C60.9531653,16.271244 62.3088053,15.038034 62.6793953,13.220394 C63.0902453,13.526964 63.5004353,13.833534 63.9109553,14.140434"/>
      <path fill="#FBFCFB" d="M17.2665773 23.440362C18.1536173 23.653872 19.3874873 23.901042 20.5883573 24.258102 21.3133673 24.473592 21.6146573 25.085082 21.4087373 25.823952 21.2249273 26.483952 20.6972573 26.850582 20.0346173 26.723202 18.8037173 26.486922 17.5850273 26.173752 16.3775573 25.835172 15.6241673 25.623972 15.3433373 25.029972 15.5307773 24.295722 15.7053473 23.612952 16.2435773 23.374032 17.2665773 23.440362M101.935073 36.625215C101.912303 37.734675 100.945403 38.350455 100.046153 37.837635 98.9584733 37.217235 97.9473533 36.453285 96.9500933 35.690325 96.4141733 35.280135 96.3191333 34.666005 96.6785033 34.072005 96.9880433 33.560505 97.5077933 33.231495 98.0654933 33.508695 99.3884633 34.165395 100.601543 35.011845 101.686253 36.019665 101.861153 36.182355 101.888213 36.504105 101.935073 36.625215"/>
      <path fill="#FAFBFB" d="M68.5696313,13.503468 C68.5471913,14.593128 67.5367313,15.226398 66.6579413,14.722488 C65.5672913,14.097138 64.5429713,13.343418 63.5473613,12.571218 C63.0365213,12.175218 62.8579913,11.585508 63.2662013,10.959498 C63.6011513,10.445028 64.1146313,10.109748 64.6581413,10.383648 C65.9794613,11.049258 67.2097013,11.880858 68.2881413,12.905508 C68.4673313,13.075788 68.5161713,13.384008 68.5696313,13.503468"/>
      <path fill="#315E38" d="M52.8466163,40.960491 C51.3725063,47.247651 49.8465863,53.759541 48.3193463,60.271101 C45.7285163,71.319501 43.1522063,82.371201 40.5336563,93.413001 C39.9660563,95.807151 40.4554463,95.656671 37.9448063,95.069931 C28.3873463,92.837151 18.8378063,90.568071 9.26318629,88.411521 C7.60262629,88.037631 7.44554629,87.429771 7.81415629,85.883391 C11.9464163,68.552451 16.0116863,51.205341 20.0274563,33.846681 C20.3294063,32.541861 20.6933963,32.357061 21.9586163,32.661321 C31.8747863,35.045241 41.8133963,37.333791 51.7378163,39.683721 C52.2344663,39.801531 53.2376663,39.595941 52.8466163,40.960491"/>
      <path fill="#35613C" d="M36.9318713 28.741482C36.8860013 30.223182 35.7772013 31.305252 34.3783313 31.050492 31.7970713 30.580572 29.2247213 30.005712 26.7055013 29.277402 25.5056213 28.930572 24.8492513 27.878202 25.2752813 26.538732 25.6778813 25.272852 26.6243213 24.657732 27.9426713 24.934272 30.2992013 25.427952 32.6428613 25.989612 34.9805813 26.568432 36.1606613 26.860482 36.8708213 27.622782 36.9318713 28.741482M48.4541513 34.442694C46.2197213 33.908424 43.6477013 33.370524 41.1255113 32.656074 39.9540113 32.324094 39.3570413 31.313634 39.6385313 30.072504 39.9137513 28.860414 40.8159713 28.093164 42.0462113 28.323834 44.6763113 28.816524 47.2935413 29.417124 49.8695213 30.140154 50.9400413 30.441114 51.5479013 31.414944 51.2974313 32.602614 51.0225413 33.907104 50.1282413 34.520904 48.4541513 34.442694"/>
      <path fill="#315E38" d="M67.9351073,24.469368 C68.7300773,24.127158 68.5776173,23.404458 68.6218373,22.760628 C68.7261173,22.780098 68.8313873,22.785378 68.9369873,22.776798 C76.3240373,27.916548 83.6889773,33.088638 91.1199173,38.164038 C92.3234273,38.986068 92.3815073,39.467208 91.5611273,40.644318 C81.3307973,55.322388 71.1466673,70.032468 61.0027973,84.770268 C60.2385173,85.880718 59.7392273,86.116668 58.6555073,85.216428 C57.5665073,84.311898 56.3092073,83.609988 55.1251673,82.818978 C54.9007673,82.603488 54.6760373,82.387998 54.4516373,82.171848 C55.5073073,81.910818 54.8948273,81.015198 55.1129573,80.435058 C55.2126173,80.459148 55.3139273,80.468058 55.4162273,80.462778 C56.5081973,80.458488 57.2170373,81.237288 57.9677873,81.826998 C58.9729673,82.616358 59.6118473,82.575108 60.3645773,81.477528 C64.0942373,76.039128 67.8694373,70.631748 71.6188973,65.206878 C77.1183473,57.250248 82.6616873,49.324308 88.1139473,41.335338 C89.1583973,39.805128 89.1762173,39.809088 87.5965073,38.697978 C82.0673573,34.808268 76.4903573,30.988518 70.9291973,27.145338 C70.0870373,26.562888 69.0914273,26.128278 68.6135873,25.118808 C68.3872073,24.902328 68.1611573,24.685848 67.9351073,24.469368"/>
      <path fill="#35613C" d="M79.1538203,24.419109 C76.5078803,22.814319 73.5570203,21.250119 71.3315003,18.724959 C70.7790803,18.098289 71.0305403,17.022159 71.7367403,16.315629 C72.4614203,15.591279 73.3735403,15.221349 74.2632203,15.800169 C76.5534203,17.291109 78.8033603,18.850359 81.0018203,20.473299 C81.8136203,21.072579 81.9862103,22.004169 81.5364203,22.992849 C81.1226003,23.902329 80.3702003,24.240249 79.1538203,24.419109"/>
      <path fill="#34613B" d="M93.9435623,30.367953 C93.9904223,32.165793 92.1071123,33.373923 90.5788823,32.436063 C88.3467623,31.065573 86.2129823,29.525133 84.1082423,27.961923 C83.0885423,27.204573 82.9925123,26.073003 83.7013523,25.035813 C84.4593623,23.926683 85.6166723,23.658723 86.7254723,24.368883 C88.8882923,25.753893 90.9692723,27.266943 93.0654323,28.753593 C93.6247823,29.150913 93.8841623,29.763393 93.9435623,30.367953"/>
      <path fill="#FEFEFE" d="M68.6134553,25.118742 C75.3962753,29.784612 82.1649053,34.471272 88.9761053,39.095562 C90.0931553,39.854232 89.3084153,40.344612 88.9292453,40.893402 C80.4687053,53.133762 71.9962853,65.365542 63.5255153,77.598642 C62.4005453,79.223892 61.2405953,80.826372 60.1614953,82.480992 C59.6955353,83.195442 59.3117453,83.316552 58.6200653,82.772712 C57.5865053,81.958932 56.4876053,81.228642 55.4164253,80.462712 C55.6814153,77.294052 56.6856053,74.279502 57.3673853,71.198622 C58.3092053,66.939972 59.3572853,62.704752 60.3594953,58.459962 L60.3258353,58.352712 C61.7728853,57.248532 62.2391753,57.275922 63.3126653,58.604502 C64.3350053,59.869722 65.2296353,61.239222 66.4984853,62.597502 C66.5370953,60.783822 66.5384153,59.201802 66.5120153,57.622752 C66.4902353,56.343012 67.0353953,55.594242 68.2554053,55.179762 C69.7021253,54.688722 71.1217853,54.111882 72.8292053,53.540982 C71.1075953,52.810692 69.5374553,52.430862 67.9970153,51.995922 C66.7453253,51.642492 66.1592453,50.954772 66.1830053,49.648302 C66.2136953,47.949792 66.1879553,46.249302 66.1925753,44.476542 C65.0590253,45.638472 64.6663253,47.394402 63.0278753,48.016452 C63.1044353,45.144792 64.1558153,42.466512 64.7290253,39.695502 C65.6576453,35.208492 66.8492753,30.776262 67.9006553,26.313672 C68.0184653,25.811742 68.0795153,25.342812 68.6134553,25.118742"/>
      <path fill="#ACC52F" d="M63.0279743,48.016353 C64.1186243,46.525083 65.2092743,45.033813 66.3002543,43.542543 L66.6520343,43.573563 C66.6520343,45.668403 66.7064843,47.765553 66.6289343,49.858083 C66.5906543,50.886693 66.9962243,51.287973 67.9410143,51.538443 C69.9160643,52.062813 71.8597643,52.706313 73.8229343,53.630643 C71.8917743,54.321333 69.9781043,55.065153 68.0228543,55.678623 C67.1199743,55.961763 66.8381543,56.407263 66.8675243,57.326973 C66.9338543,59.387823 66.8883143,61.452633 66.8883143,63.978783 C65.5452143,62.216583 64.3433543,60.829923 63.3662243,59.299383 C62.5521143,58.023933 61.6786043,57.586023 60.3259343,58.352943 C60.9700943,55.368753 61.9990343,52.469043 62.2891043,49.406643 C62.5352843,48.942993 62.7814643,48.479673 63.0279743,48.016353"/>
      <path fill="#FCFCFC" d="M56.8643003,32.715837 C57.7371503,32.932647 58.9660703,33.197307 60.1682603,33.553377 C60.8153903,33.745107 61.1371403,34.278057 60.9959003,34.968747 C60.8401403,35.729727 60.2976203,36.123747 59.5584203,35.985807 C58.3265303,35.755797 57.1055303,35.446587 55.8990503,35.104707 C55.1347703,34.887897 54.9050903,34.264197 55.1007803,33.540837 C55.2869003,32.855097 55.8320603,32.635317 56.8643003,32.715837"/>
      <path fill="#FEFEFE" d="M9.93519829,85.60959 C11.1677483,80.33883 12.4009583,75.05322 13.6397783,69.76893 C16.2424883,58.66674 18.8732483,47.57115 21.4218383,36.45675 C21.7465583,35.04072 22.1999783,34.7061 23.6526383,35.05986 C32.0696183,37.11114 40.5044183,39.09246 48.9557183,40.99623 C50.4704183,41.33745 50.6449883,41.84697 50.3007983,43.29105 C46.4586083,59.39538 42.6847283,75.51687 38.9478083,91.64628 C38.6567483,92.90226 38.3138783,93.16461 37.0093883,92.8488 C28.3762583,90.75891 19.7147483,88.78518 11.0687483,86.74677 C10.5262283,86.61906 9.56922829,86.73357 9.93519829,85.60959"/>
      <path fill="#FCFDFC" d="M34.0614323,30.046665 C32.0015723,29.553645 29.5011623,28.987365 27.0218723,28.339575 C26.3998223,28.176885 26.0483723,27.604665 26.2087523,26.921235 C26.3800223,26.189625 26.9179223,25.739175 27.6567923,25.899885 C30.1073723,26.432505 32.5480523,27.017595 34.9778423,27.638325 C35.6955923,27.821805 36.0741023,28.405905 35.8685123,29.157315 C35.6942723,29.795205 35.2151123,30.149295 34.0614323,30.046665"/>
      <path fill="#FCFDFD" d="M42.5009183 29.347989C44.5248083 29.834739 46.9262183 30.399369 49.3197083 30.996009 50.0579183 31.180149 50.4595283 31.721679 50.3021183 32.472429 50.1460283 33.217569 49.5629183 33.601689 48.8177783 33.439329 46.4074583 32.915619 44.0060483 32.349999 41.6092583 31.767219 40.8756683 31.588689 40.4648183 31.048809 40.6209083 30.292119 40.7766683 29.536089 41.3594483 29.251629 42.5009183 29.347989M80.7506286 22.102311C80.7192743 23.028291 79.6692143 23.675091 78.8188043 23.126961 76.6992143 21.761091 74.6400143 20.297211 72.5976443 18.816171 71.9798843 18.368031 71.9620643 17.655231 72.4293443 17.057601 72.8484443 16.521681 73.4460743 16.382091 74.0407343 16.787991 76.1246843 18.211281 78.1997243 19.648101 80.2632143 21.100101 80.5810043 21.323511 80.7516143 21.688821 80.7506286 22.102311M85.5362843 25.056372C86.2909943 25.035252 92.6385443 29.460552 92.8655843 30.149262 93.0229943 30.628092 92.8596443 31.011222 92.5510943 31.351122 92.1230843 31.822032 91.5244643 31.925652 91.0515743 31.608852 88.9118543 30.175992 86.8028243 28.695282 84.7126043 27.190482 84.2083643 26.827482 84.2301443 26.227872 84.4667543 25.687002 84.6624443 25.238862 85.0614143 25.066602 85.5362843 25.056372"/>
      <path fill="#ACC52F" d="M38.4154193,72.504333 C36.4944893,71.351643 34.8854093,70.535553 33.4515593,69.481863 C32.1203393,68.504073 31.1742293,68.460843 29.9845793,69.734973 C28.7688593,71.037153 27.2878193,72.091833 25.5612593,73.562973 C26.1354593,71.037153 26.5496093,68.962773 27.0970793,66.924033 C27.3254393,66.073293 27.1363493,65.651553 26.3928593,65.226183 C24.5498093,64.171503 22.7565893,63.030363 20.5346993,61.674723 C23.0499593,61.452633 25.1058593,61.208763 27.1683593,61.116033 C28.1699093,61.071483 28.5923093,60.755343 28.7850293,59.741583 C29.1694793,57.718353 29.7251993,55.728123 30.3238193,53.254113 C31.3078793,55.559823 32.1586193,57.415083 32.8859393,59.317533 C33.2377193,60.237243 33.7086293,60.574503 34.7045693,60.466263 C36.7013993,60.248133 38.7110993,60.150453 40.8956993,60.337563 C39.3545993,61.678683 37.8524393,63.069303 36.2549093,64.339473 C35.5058093,64.935123 35.4259493,65.425503 35.8097393,66.267993 C36.6832493,68.185623 37.4432393,70.155063 38.4154193,72.504333"/>
    </g>
  </g>
</svg>
