<svg xmlns="http://www.w3.org/2000/svg" width="206" height="119" viewBox="0 0 206 119">
  <g fill="none" fill-rule="evenodd">
    <ellipse cx="103" cy="104" fill="#D8D8D8" opacity=".5" rx="103" ry="15"/>
    <g transform="translate(7)">
      <g fill-rule="nonzero" transform="translate(43.15 26.4)">
        <path fill="#376743" d="M93.8666,0 L8.5334,0 C3.827,0 0,3.827 0,8.5334 L0,68.2668 C0,72.973 3.827,76.8 8.5334,76.8 L93.8668,76.8 C98.573,76.8 102.4,72.973 102.4,68.2666 L102.4,8.5334 C102.4,3.827 98.573,0 93.8666,0 Z"/>
        <path fill="#FFF" d="M8.5334,4.2666 L93.8668,4.2666 C94.1004,4.2666 94.3022,4.3638 94.5256,4.4 L53.4666,37.7354 C52.079,38.6124 50.0958,38.4708 49.0854,37.848 L7.873,4.4006 C8.0968,4.364 8.2992,4.2666 8.5334,4.2666 Z"/>
        <path fill="#FFF" d="M98.1334,68.2666 C98.1334,70.6186 96.2188,72.5332 93.8668,72.5332 L8.5334,72.5332 C6.1814,72.5332 4.2668,70.6186 4.2668,68.2666 L4.2668,8.5334 C4.2668,8.0564 4.3942,7.6164 4.5392,7.1878 L46.5834,41.2958 C47.9688,42.1916 49.5668,42.6666 51.2,42.6666 C52.775,42.6666 54.3126,42.227 55.6626,41.3916 C55.7876,41.327 55.9064,41.25 56.0146,41.1604 L97.8606,7.1868 C98.006,7.6158 98.1334,8.056 98.1334,8.5334 L98.1334,68.2666 L98.1334,68.2666 Z"/>
      </g>
      <g transform="rotate(-15 62.145 6.179)">
        <path fill="#D2D2D2" fill-rule="nonzero" d="M56.35532 19.50088L60.37962 18.29912C58.13094 10.76922 53.1678 4.37752 46.4044.30142L44.2365 3.89872C50.10264 7.43386 54.40652 12.97492 56.35532 19.50088zM16.14326 3.89858L13.97536.30142C7.21182 4.37752 2.24868 10.76922 4.26325641e-15 18.29912L4.0243 19.50088C5.97324 12.97492 10.27712 7.43386 16.14326 3.89858L16.14326 3.89858z"/>
        <path fill="#B4C93D" fill-rule="nonzero" d="M7.08988,27.3 L7.08988,49.81018 C7.08988,51.1644 6.5625,52.43756 5.60504,53.39502 C3.8542,55.14586 2.88988,57.47378 2.88988,59.94982 L2.88988,63.28 L19.90114,63.28 C20.87666,68.06688 25.11908,71.68 30.18988,71.68 C35.26068,71.68 39.50296,68.06688 40.47862,63.28 L57.48988,63.28 L57.48988,59.94982 C57.48988,57.47364 56.52556,55.14586 54.77472,53.39502 C53.81712,52.43742 53.28988,51.1644 53.28988,49.81018 L53.28988,27.3 C53.28988,15.27064 44.04666,5.36116 32.28988,4.29646 L32.28988,-3.41060513e-14 L28.08988,-3.41060513e-14 L28.08988,4.29646 C16.3331,5.36102 7.08988,15.2705 7.08988,27.3 Z"/>
        <path fill="#B4C93D" fill-rule="nonzero" d="M30.18988,67.48 C27.45218,67.48 25.11796,65.72426 24.25108,63.2786 L36.12854,63.2786 C35.2618,65.72426 32.92758,67.48 30.18988,67.48 Z"/>
        <path fill="#FFF" fill-rule="nonzero" d="M49.08988,27.3 L49.08988,49.81018 C49.08988,52.28636 50.0542,54.61414 51.80504,56.36498 C52.55432,57.11426 53.04012,58.05674 53.2161,59.08 L7.1638,59.08 C7.33964,58.0566 7.82558,57.11412 8.57486,56.36498 C10.32556,54.61414 11.28988,52.28622 11.28988,49.81018 L11.28988,27.3 C11.28988,16.87854 19.76842,8.4 30.18988,8.4 C40.61134,8.4 49.08988,16.87854 49.08988,27.3 Z"/>
        <path fill="#B4C93D" stroke="#B4C93D" stroke-width=".56" d="M24.25108,63.2786 L36.12854,63.2786 C35.1348602,66.0795333 33.2247471,67.48 30.3982009,67.48 C27.5716547,67.48 25.5226144,66.0795333 24.25108,63.2786 Z"/>
      </g>
    </g>
  </g>
</svg>
