<svg xmlns="http://www.w3.org/2000/svg" xmlns:xlink="http://www.w3.org/1999/xlink" width="206" height="113" viewBox="0 0 206 113">
  <defs>
    <polygon id="group-7-a" points="0 .055 110.387 .055 110.387 95.993 0 95.993"/>
    <polygon id="group-7-c" points=".064 .312 23.435 .312 23.435 33.6 .064 33.6"/>
  </defs>
  <g fill="none" fill-rule="evenodd">
    <ellipse cx="103" cy="98" fill="#D8D8D8" opacity=".5" rx="103" ry="15"/>
    <g transform="translate(47)">
      <g transform="translate(0 .345)">
        <mask id="group-7-b" fill="#fff">
          <use xlink:href="#group-7-a"/>
        </mask>
        <path fill="#315E38" d="M110.38664,75.89224 C110.35544,79.81864 110.39144,83.74744 110.27464,87.67104 C110.15224,91.76984 107.37464,95.08184 103.60984,95.83344 C99.92224,96.56904 96.13824,94.70424 94.47944,91.31984 C93.85384,90.04264 93.45264,88.66064 93.61144,87.26544 C93.81584,85.46624 93.01184,84.30144 91.81024,83.12224 C87.69304,79.08304 83.15704,75.65504 77.92144,73.19184 C75.67384,73.03264 73.74984,71.87224 71.68104,71.16224 C65.42984,69.01744 58.99664,68.23184 52.41104,68.47144 C50.68264,68.53464 48.94944,68.50624 47.21584,68.48064 C40.43984,68.62864 33.66624,68.52304 26.89264,68.53784 C26.08264,68.53984 25.30184,68.42624 24.62544,67.92864 L24.48544,67.91664 L24.35624,67.97104 C23.16864,67.86424 21.97024,67.82424 20.79544,67.63584 C18.39104,67.25064 16.57904,65.91704 15.62424,63.70784 C15.11704,62.53344 14.49704,62.25584 13.28464,62.20704 C6.17064,61.92024 0.74144,56.71984 0.05864,49.67424 C-0.58016,43.08184 4.07024,36.88264 10.81184,35.33904 C14.19024,34.56544 14.17384,34.55544 15.92744,31.70984 C17.28544,29.50584 19.29104,28.31344 21.88024,28.30304 C31.86904,28.26304 41.86144,28.09784 51.84624,28.29544 C67.47024,28.60504 80.97704,23.76624 92.09464,12.61504 C93.15744,11.54944 93.62544,10.47824 93.61344,8.95144 C93.57824,4.45384 96.03064,1.28184 100.08744,0.28384 C104.36864,-0.76896 108.81864,1.91384 109.95264,6.21864 C110.27864,7.45744 110.30504,8.71544 110.30464,9.98384 C110.29984,31.22304 110.30024,52.46224 110.30504,73.70184 C110.30504,74.43224 110.35824,75.16224 110.38664,75.89224" mask="url(#group-7-b)"/>
      </g>
      <g transform="translate(24.4 67.945)">
        <mask id="group-7-d" fill="#fff">
          <use xlink:href="#group-7-c"/>
        </mask>
        <path fill="#ACC52F" d="M0.22532,0.32856 C7.85652,0.32296 15.48772,0.31776 23.11892,0.31216 C23.66692,1.56336 23.48212,2.73016 22.71452,3.83016 C22.06452,8.15456 21.38972,12.47536 20.77092,16.80456 C20.04732,21.86776 19.36452,26.93656 18.68372,32.00496 C18.54052,33.06896 18.16892,33.61136 16.92052,33.59256 C11.92932,33.51816 6.93492,33.50096 1.94452,33.59896 C0.40172,33.62896 0.05092,33.11656 0.06452,31.66376 C0.16252,21.21936 0.18132,10.77376 0.22532,0.32856" mask="url(#group-7-d)"/>
      </g>
      <path fill="#FEFEFE" d="M93.48392 15.38276L93.48392 81.35996C90.41552 78.49596 87.37952 75.96196 84.01152 73.86036 74.79192 68.10716 64.72392 65.36556 53.88312 65.52196 52.16392 65.54636 51.65152 65.17396 51.66952 63.36516 51.76912 53.31396 51.74312 43.26116 51.68832 33.20916 51.67992 31.72636 51.95192 31.15876 53.63072 31.15116 69.83152 31.07716 80.98552 26.66076 93.48392 15.38276M49.1224 48.45736C49.1224 53.58776 49.0788 58.71896 49.1528 63.84856 49.1716 65.15496 48.8084 65.52096 47.4948 65.5119282 39.164 65.45296 30.8328 65.49816 22.502 65.47456 19.2744 65.46536 17.5308 63.75616 17.5192 60.55776 17.4892 52.42936 17.4912 44.30056 17.5188 36.17216 17.5292 33.16816 19.1608 31.28216 22.108 31.24816 30.7044 31.14776 39.3024 31.22096 47.8996 31.1741092 49.0948 31.16776 49.138 31.76656 49.134 32.66656 49.1108 37.93016 49.1224 43.19376 49.1224 48.45736M107.60268 48.40872C107.60268 61.45512 107.62148 74.50112 107.59188 87.54752 107.58188 91.84752 104.23548 94.53472 100.37548 93.45392 98.11988 92.82232 96.52228 90.91152 96.32348 88.55752 96.26148 87.82952 96.27388 87.09432 96.27388 86.36232 96.27148 61.00232 96.26948 35.64192 96.28068 10.28152 96.28108 9.22312 96.25228 8.12352 96.51388 7.11472 97.20508 4.44832 99.82588 2.78752 102.62628 3.08392 105.33228 3.37072 107.52188 5.62152 107.55548 8.47192 107.63628 15.39312 107.59788 22.31632 107.60228 29.23872 107.60628 35.62872 107.60308 42.01872 107.60268 48.40872M14.80796 49.05016C14.80796 52.11496 14.72516 55.18296 14.84356 58.24336 14.90116 59.73336 14.35956 59.97256 13.02076 59.91016 7.18956 59.63736 2.58396 54.62176 2.72356 48.57736 2.85636 42.81936 7.92436 37.91656 13.61436 37.95936 14.64116 37.96696 14.83076 38.36496 14.82116 39.25616 14.78716 42.52016 14.80796 45.78536 14.80796 49.05016"/>
    </g>
  </g>
</svg>
