<svg xmlns="http://www.w3.org/2000/svg" width="206" height="118" viewBox="0 0 206 118">
  <g fill="none" fill-rule="evenodd" transform="translate(0 1)">
    <ellipse cx="103" cy="102" fill="#D8D8D8" opacity=".5" rx="103" ry="15"/>
    <g fill-rule="nonzero" transform="translate(51)">
      <polygon fill="#FFF" stroke="#376743" stroke-width="2" points="3.142 27.4 99.142 27.4 99.142 102.4 3.142 102.4"/>
      <polygon fill="#FFF" stroke="#B4C93D" stroke-width="2" points=".043 6.192 102.357 6.192 102.357 30.867 .043 30.867"/>
      <polygon stroke="#B4C93D" stroke-width="2" points=".154 0 6.148 0 6.148 17.38 .154 17.38" transform="translate(17.6)"/>
      <path fill="#B4C93D" d="M18.2,21.2892 L10.2044,21.2892 C11.3216,19.8138 12.7182,17.9062 14.418,15.4774 C15.8034,13.4978 16.8022,11.6352 17.1108,9.885 C17.1758,9.516 17.2724,8.7714 17.2918,8.3974 C17.5298,3.7932 13.541,0.0362 8.9306,0.0362 C4.9444,0.0362 1.494,2.8722 0.7264,6.78 L0.1488,9.7212 L6.0312,10.8764 L6.6088,7.9352 C6.8254,6.8318 7.8022,6.031 8.9308,6.031 C10.1844,6.031 11.3186,7.0084 11.2924,8.2448 C11.2902,8.3494 11.2592,8.5572 11.2392,8.6598 C11.1038,9.3582 10.6102,10.4634 9.5066,12.0404 C4.5008,19.1926 2.3074,21.5466 2.2928,21.562 L1.47,22.4256 L1.4512,27.3416 L18.1998,27.3416 L18.1998,21.2892 L18.2,21.2892 Z" transform="translate(33 48)"/>
      <path fill="#376743" d="M62.3076,57.0458 C62.0478,57.0458 61.7912,57.0594 61.5368,57.081 C61.9468,56.4916 62.4082,55.959 62.9274,55.4924 C64.7138,53.8864 66.5738,53.5886 66.5924,53.5856 L66.5516,53.591 L65.8228,47.641 C65.478,47.6832 62.3658,48.1282 59.2882,50.714 C56.5328,53.0294 53.2484,57.5786 53.2484,66.1048 C53.2484,71.1 57.3122,75.1638 62.3074,75.1638 C67.3026,75.1638 71.3662,71.0998 71.3662,66.1048 C71.3664,61.1096 67.3026,57.0458 62.3076,57.0458 L62.3076,57.0458 Z M62.3076,69.1692 C60.618,69.1692 59.2432,67.7944 59.2432,66.1048 C59.2432,64.4152 60.618,63.0406 62.3076,63.0406 C63.9972,63.0406 65.3718,64.4152 65.3718,66.1048 C65.3718,67.7944 63.9972,69.1692 62.3076,69.1692 Z"/>
      <polygon stroke="#376743" stroke-width="2" points="2.172 1.037 8.165 1.037 8.165 9.476 2.172 9.476" transform="rotate(-45 133.492 -43.696)"/>
      <polygon stroke="#376743" stroke-width="2" points=".006 .039 8.446 .039 8.446 6.034 .006 6.034" transform="translate(77.8 60.6)"/>
      <polygon stroke="#376743" stroke-width="2" points=".954 2.225 9.393 2.225 9.393 8.219 .954 8.219" transform="rotate(-45 85.212 -63.731)"/>
      <polygon stroke="#B4C93D" stroke-width="2" points="2.151 .996 8.145 .996 8.145 9.435 2.151 9.435" transform="rotate(-45 59.187 -.968)"/>
      <polygon stroke="#B4C93D" stroke-width="2" points=".096 .039 8.536 .039 8.536 6.034 .096 6.034" transform="translate(16.4 60.6)"/>
      <polygon stroke="#B4C93D" stroke-width="2" points=".924 2.256 9.363 2.256 9.363 8.25 .924 8.25" transform="rotate(-45 107.466 19.07)"/>
      <polygon stroke="#376743" stroke-width="2" points=".2 .192 51.357 .192 51.357 24.867 .2 24.867" transform="translate(51 6)"/>
      <polygon stroke="#376743" stroke-width="2" points=".194 0 6.188 0 6.188 17.38 .194 17.38" transform="translate(78.8)"/>
    </g>
  </g>
</svg>
