<?xml version="1.0" encoding="UTF-8"?>
<svg width="80px" height="80px" viewBox="0 0 80 80" version="1.1" xmlns="http://www.w3.org/2000/svg" xmlns:xlink="http://www.w3.org/1999/xlink">
    <title>ic_detailpage_notinterested</title>
    <defs>
        <circle id="path-1" cx="34.5512821" cy="34.5512821" r="34.5512821"></circle>
        <filter x="-12.3%" y="-9.4%" width="124.6%" height="124.6%" filterUnits="objectBoundingBox" id="filter-2">
            <feOffset dx="0" dy="2" in="SourceAlpha" result="shadowOffsetOuter1"></feOffset>
            <feGaussianBlur stdDeviation="2.5" in="shadowOffsetOuter1" result="shadowBlurOuter1"></feGaussianBlur>
            <feColorMatrix values="0 0 0 0 0   0 0 0 0 0   0 0 0 0 0  0 0 0 0.301901224 0" type="matrix" in="shadowBlurOuter1"></feColorMatrix>
        </filter>
    </defs>
    <g id="Assets" stroke="none" stroke-width="1" fill="none" fill-rule="evenodd">
        <g id="ic_detailpage_notinterested" transform="translate(5.000000, 3.000000)">
            <g id="Group-11-Copy">
                <g id="Oval">
                    <use fill="black" fill-opacity="1" filter="url(#filter-2)" xlink:href="#path-1"></use>
                    <use fill="#667529" fill-rule="evenodd" xlink:href="#path-1"></use>
                </g>
                <circle id="Oval" fill="#B3CF38" cx="34.5512821" cy="34.5512821" r="28.2692308"></circle>
            </g>
            <path d="M19.7479003,33.8691999 C18.1568316,35.4462986 18.6484471,38.6339354 21.4043693,38.6339354 L28.6556984,38.6291007 C28.3803289,40.1568458 27.9814481,42.6893894 27.9972414,42.9274952 C28.1495045,45.1933281 29.6016736,47.9494736 29.6632268,48.0612746 C29.927865,48.5515873 31.2640144,49.2163498 32.6098828,48.9315091 C34.3483552,48.5612565 34.525928,47.4579523 34.5188413,47.1537731 C34.5188413,47.1537731 34.4427098,44.13555 34.4366354,43.3301801 C35.266591,41.5127598 38.1324585,36.7409739 39.003517,36.3731386 C39.211259,36.4982348 39.445728,36.5643082 39.6909283,36.5643082 L48.8524308,36.5643082 C49.6305521,36.5643082 50.2564103,35.9380214 50.2564103,35.1675012 L50.2551954,22.5706551 C50.2007289,21.8915901 49.622048,21.3589744 48.9358516,21.3589744 L40.7083781,21.3589744 C39.9786489,21.3589744 39.3841748,21.9492029 39.3841748,22.6752041 L39.3841748,23.0934001 C39.3841748,23.0934001 39.0784337,23.1149545 38.9395341,23.0273267 C38.4114726,22.6931325 37.7566601,22.2725192 36.9038246,22.2725192 L24.6251799,22.2725192 C20.0342036,22.2725192 20.5282489,26.3267645 20.946365,26.879726 C20.1706735,27.7199455 19.6910041,29.201963 20.3458166,30.3727507 C19.8408375,30.9037549 18.9564155,32.360592 19.7479003,33.8691999 Z M40.9884046,22.6786286 L48.9368639,22.6786286 L48.9368639,35.2500929 L40.9884046,35.2500929 C40.9884046,35.2502943 40.9884046,22.6786286 40.9884046,22.6786286 Z M21.8886956,33.9773749 L21.9636123,33.6661452 C19.8481267,33.0676575 20.9741045,30.6430875 22.490459,30.4845517 L22.5653757,30.173322 C20.5367529,29.6598433 21.5045957,27.1621494 23.0932347,26.9913256 L23.1669365,26.6813045 C21.5104675,26.4107663 21.9115756,23.5982167 24.4210826,23.5982167 L36.9109113,23.5933821 C37.7929036,23.5933821 38.5963346,24.593346 39.2462876,24.593346 L39.8118074,24.593346 L39.8118074,34.2692661 C39.1061731,34.705592 38.2399741,35.26923 37.7566601,35.6779582 C36.8457135,36.4508957 33.1172916,42.4450388 33.1172916,43.1952132 C33.1172916,43.9451862 33.2007124,47.1906372 33.2007124,47.1906372 C33.2007124,47.1906372 32.4685535,48.1269451 30.8375967,47.4442541 C30.8375967,47.4442541 29.4639889,44.8804868 29.3238744,42.8394646 C29.3238744,42.8394646 29.9412285,38.6325253 30.274709,37.3114609 L21.6155534,37.3114609 C19.4905513,37.3104537 19.8965188,34.287396 21.8886956,33.9773749 Z" id="Shape-Copy" stroke="#104233" stroke-width="0.63" fill="#104233"></path>
        </g>
    </g>
</svg>