<?xml version="1.0" encoding="UTF-8"?>
<svg width="80px" height="80px" viewBox="0 0 80 80" version="1.1" xmlns="http://www.w3.org/2000/svg" xmlns:xlink="http://www.w3.org/1999/xlink">
    <title>ic_detailpage_notinterested copy</title>
    <defs>
        <circle id="path-1" cx="34.5512821" cy="34.5512821" r="34.5512821"></circle>
        <filter x="-12.3%" y="-9.4%" width="124.6%" height="124.6%" filterUnits="objectBoundingBox" id="filter-2">
            <feOffset dx="0" dy="2" in="SourceAlpha" result="shadowOffsetOuter1"></feOffset>
            <feGaussianBlur stdDeviation="2.5" in="shadowOffsetOuter1" result="shadowBlurOuter1"></feGaussianBlur>
            <feColorMatrix values="0 0 0 0 0   0 0 0 0 0   0 0 0 0 0  0 0 0 0.301901224 0" type="matrix" in="shadowBlurOuter1"></feColorMatrix>
        </filter>
    </defs>
    <g id="Assets" stroke="none" stroke-width="1" fill="none" fill-rule="evenodd">
        <g id="Group-11-Copy" transform="translate(5.000000, 3.000000)">
            <g id="Oval">
                <use fill="black" fill-opacity="1" filter="url(#filter-2)" xlink:href="#path-1"></use>
                <use fill="#667529" fill-rule="evenodd" xlink:href="#path-1"></use>
            </g>
            <circle id="Oval" fill="#B3CF38" cx="34.5512821" cy="34.5512821" r="28.2692308"></circle>
            <g id="Group-6" transform="translate(26.000000, 18.000000)" fill-rule="nonzero" stroke="#104233" stroke-width="1.537536">
                <circle id="Oval" cx="8.64864" cy="2.88288" r="2.88288"></circle>
                <path d="M16.4279336,12.6230539 C13.882903,11.1684268 11.7946985,9.20356115 10.0368997,6.89207157 C8.93235742,5.35837238 6.01209462,5.43843903 4.82545455,6.84383265 C3.02031107,8.57794715 1.48865892,10.3652736 0.273813482,12.1535948 C-0.222802441,12.8861301 -0.025364873,13.8772658 0.71603334,14.3676119 C0.992546668,14.5506214 1.3043167,14.6381477 1.61407207,14.6381477 C2.13486402,14.6381477 2.64658996,14.3899908 2.95785633,13.9304778 C3.49123997,13.1462224 4.09614435,12.3594804 4.76602181,11.5762197 C4.74033478,13.2337487 4.82444721,16.2245616 4.86675526,17.5687862 C4.88085795,18.0163638 4.77760616,18.4539952 4.56707324,18.8513447 C2.90094193,21.992842 1.835182,24.9652545 0.753304718,28.6015737 C0.488375737,29.4892693 1.00362735,30.420728 1.90216975,30.6818149 C2.10565132,30.7409946 2.31114757,30.7608869 2.50959247,30.7459677 C3.19357261,30.6942476 3.80502467,30.2342373 4.00951358,29.5469571 C5.0077821,26.1941036 5.97230491,23.4792969 7.47675903,20.6048542 C7.55331645,20.607838 7.62987388,20.607838 7.70743864,20.6043569 C8.66793211,23.4340418 9.62892925,26.2652187 10.5909337,29.0949037 C11.2895202,31.1572418 14.5306191,30.0860394 13.8300179,28.023204 C12.7788643,24.9294483 11.7292217,21.8371845 10.6815938,18.7439261 C10.6206501,18.5663869 10.4730756,17.8711498 10.4524252,17.6443771 C10.2791637,15.7386912 10.2162053,13.838973 10.234841,11.9367683 C11.7095787,13.3317184 13.3449863,14.5416698 15.1617141,15.5810444 C16.9734053,16.6194244 18.2154488,13.6460173 16.4279336,12.6230539 Z" id="Path"></path>
            </g>
        </g>
    </g>
</svg>