<?xml version="1.0" encoding="UTF-8"?>
<svg width="80px" height="80px" viewBox="0 0 80 80" version="1.1" xmlns="http://www.w3.org/2000/svg" xmlns:xlink="http://www.w3.org/1999/xlink">
    <title>ic_detailpage_like</title>
    <defs>
        <circle id="path-1" cx="34.5512821" cy="34.5512821" r="34.5512821"></circle>
        <filter x="-12.3%" y="-9.4%" width="124.6%" height="124.6%" filterUnits="objectBoundingBox" id="filter-2">
            <feOffset dx="0" dy="2" in="SourceAlpha" result="shadowOffsetOuter1"></feOffset>
            <feGaussianBlur stdDeviation="2.5" in="shadowOffsetOuter1" result="shadowBlurOuter1"></feGaussianBlur>
            <feColorMatrix values="0 0 0 0 0   0 0 0 0 0   0 0 0 0 0  0 0 0 0.301901224 0" type="matrix" in="shadowBlurOuter1"></feColorMatrix>
        </filter>
    </defs>
    <g id="Assets" stroke="none" stroke-width="1" fill="none" fill-rule="evenodd">
        <g id="ic_detailpage_like" transform="translate(5.000000, 3.000000)">
            <g id="Oval">
                <use fill="black" fill-opacity="1" filter="url(#filter-2)" xlink:href="#path-1"></use>
                <use fill="#667529" fill-rule="evenodd" xlink:href="#path-1"></use>
            </g>
            <circle id="Oval" fill="#B3CF38" cx="34.5512821" cy="34.5512821" r="28.2692308"></circle>
            <path d="M46.6658492,23.7261383 C45.152677,22.2074643 43.1494084,21.3774198 41.0113634,21.3774198 C38.8733184,21.3774198 36.8639236,22.2136128 35.3507514,23.7322868 L34.5604711,24.5254404 L33.7579385,23.7199898 C32.2447662,22.2013158 30.2292452,21.3589744 28.0912002,21.3589744 C25.9592814,21.3589744 23.9498866,22.1951673 22.4428406,23.7076929 C20.9296683,25.2263669 20.0965046,27.2430676 20.1025973,29.3888864 C20.1025973,31.5347052 20.9419207,33.5452574 22.455093,35.0639314 L33.9601032,46.6107728 C34.1193845,46.7706332 34.3338016,46.8567119 34.5420925,46.8567119 C34.7503834,46.8567119 34.9648005,46.7767817 35.1240818,46.6169213 L46.6535968,35.0885254 C48.1667691,33.5698513 48.9999666,31.5531506 48.9999666,29.4073318 C49.006059,27.2615131 48.1790215,25.2448123 46.6658492,23.7261383 Z M45.4896182,33.9141661 L34.5420925,44.8584566 L23.6190716,33.8957207 C22.4183358,32.690619 21.7567058,31.0920148 21.7567058,29.3888864 C21.7567058,27.685758 22.4122096,26.0871538 23.6129454,24.8882006 C24.8075551,23.6892475 26.400368,23.0252119 28.0912002,23.0252119 C29.7881586,23.0252119 31.3870977,23.6892475 32.5878336,24.8943491 L33.9723556,26.2839051 C34.2970444,26.6097744 34.8177717,26.6097744 35.1424604,26.2839051 L36.51473,24.9066461 C37.7154659,23.7015444 39.314405,23.0375088 41.0052372,23.0375088 C42.6960694,23.0375088 44.2888823,23.7015444 45.4896182,24.9004976 C46.6903541,26.1055992 47.3459,27.7042035 47.3459,29.4073318 C47.351984,31.1104602 46.6903541,32.7090644 45.4896182,33.9141661 Z" id="love" stroke="#104233" stroke-width="0.7" fill="#104233"></path>
        </g>
    </g>
</svg>