<?xml version="1.0" encoding="UTF-8"?>
<svg width="80px" height="80px" viewBox="0 0 80 80" version="1.1" xmlns="http://www.w3.org/2000/svg" xmlns:xlink="http://www.w3.org/1999/xlink">
    <title>ic_detailpage_interested</title>
    <defs>
        <circle id="path-1" cx="34.5512821" cy="34.5512821" r="34.5512821"></circle>
        <filter x="-12.3%" y="-9.4%" width="124.6%" height="124.6%" filterUnits="objectBoundingBox" id="filter-2">
            <feOffset dx="0" dy="2" in="SourceAlpha" result="shadowOffsetOuter1"></feOffset>
            <feGaussianBlur stdDeviation="2.5" in="shadowOffsetOuter1" result="shadowBlurOuter1"></feGaussianBlur>
            <feColorMatrix values="0 0 0 0 0   0 0 0 0 0   0 0 0 0 0  0 0 0 0.301901224 0" type="matrix" in="shadowBlurOuter1"></feColorMatrix>
        </filter>
    </defs>
    <g id="Assets" stroke="none" stroke-width="1" fill="none" fill-rule="evenodd">
        <g id="Group-5" transform="translate(5.000000, 3.000000)">
            <g id="Oval">
                <use fill="black" fill-opacity="1" filter="url(#filter-2)" xlink:href="#path-1"></use>
                <use fill="#667529" fill-rule="evenodd" xlink:href="#path-1"></use>
            </g>
            <circle id="Oval" fill="#B3CF38" cx="34.5512821" cy="34.5512821" r="28.2692308"></circle>
            <path d="M19.7479003,30.0999692 C18.1568316,31.6770678 18.6484471,34.8647046 21.4043693,34.8647046 L28.6556984,34.85987 C28.3803289,36.387615 27.9814481,38.9201586 27.9972414,39.1582645 C28.1495045,41.4240973 29.6016736,44.1802428 29.6632268,44.2920438 C29.927865,44.7823565 31.2640144,45.447119 32.6098828,45.1622783 C34.3483552,44.7920258 34.525928,43.6887215 34.5188413,43.3845423 C34.5188413,43.3845423 34.4427098,40.3663192 34.4366354,39.5609494 C35.266591,37.743529 38.1324585,32.9717431 39.003517,32.6039078 C39.211259,32.7290041 39.445728,32.7950774 39.6909283,32.7950774 L48.8524308,32.7950774 C49.6305521,32.7950774 50.2564103,32.1687906 50.2564103,31.3982704 L50.2551954,18.8014243 C50.2007289,18.1223593 49.622048,17.5897436 48.9358516,17.5897436 L40.7083781,17.5897436 C39.9786489,17.5897436 39.3841748,18.1799721 39.3841748,18.9059733 L39.3841748,19.3241693 C39.3841748,19.3241693 39.0784337,19.3457238 38.9395341,19.258096 C38.4114726,18.9239017 37.7566601,18.5032884 36.9038246,18.5032884 L24.6251799,18.5032884 C20.0342036,18.5032884 20.5282489,22.5575338 20.946365,23.1104953 C20.1706735,23.9507148 19.6910041,25.4327322 20.3458166,26.60352 C19.8408375,27.1345242 18.9564155,28.5913612 19.7479003,30.0999692 Z M40.9884046,18.9093978 L48.9368639,18.9093978 L48.9368639,31.4808621 L40.9884046,31.4808621 C40.9884046,31.4810636 40.9884046,18.9093978 40.9884046,18.9093978 Z M21.8886956,30.2081441 L21.9636123,29.8969144 C19.8481267,29.2984268 20.9741045,26.8738567 22.490459,26.7153209 L22.5653757,26.4040912 C20.5367529,25.8906126 21.5045957,23.3929186 23.0932347,23.2220948 L23.1669365,22.9120737 C21.5104675,22.6415356 21.9115756,19.8289859 24.4210826,19.8289859 L36.9109113,19.8241513 C37.7929036,19.8241513 38.5963346,20.8241152 39.2462876,20.8241152 L39.8118074,20.8241152 L39.8118074,30.5000353 C39.1061731,30.9363612 38.2399741,31.4999992 37.7566601,31.9087274 C36.8457135,32.6816649 33.1172916,38.6758081 33.1172916,39.4259824 C33.1172916,40.1759554 33.2007124,43.4214064 33.2007124,43.4214064 C33.2007124,43.4214064 32.4685535,44.3577143 30.8375967,43.6750234 C30.8375967,43.6750234 29.4639889,41.1112561 29.3238744,39.0702338 C29.3238744,39.0702338 29.9412285,34.8632945 30.274709,33.5422302 L21.6155534,33.5422302 C19.4905513,33.5412229 19.8965188,30.5181652 21.8886956,30.2081441 Z" id="Shape" stroke="#104233" stroke-width="0.63" fill="#104233" transform="translate(34.551282, 31.410256) rotate(-180.000000) translate(-34.551282, -31.410256) "></path>
        </g>
    </g>
</svg>