<?xml version="1.0" encoding="UTF-8"?>
<svg width="17px" height="28px" viewBox="0 0 17 28" version="1.1" xmlns="http://www.w3.org/2000/svg" xmlns:xlink="http://www.w3.org/1999/xlink">
    <title>ic_goingBig</title>
    <g id="Assets" stroke="none" stroke-width="1" fill="none" fill-rule="evenodd">
        <g id="ic_goingBig" transform="translate(1.320000, 1.670909)" fill-rule="nonzero" stroke="#28816D" stroke-width="0.984">
            <ellipse id="Oval" cx="7.011" cy="2.34818182" rx="2.337" ry="2.34818182"></ellipse>
            <path d="M13.3172664,10.2818104 C11.2541432,9.09697824 9.56134503,7.49654337 8.13638954,5.61377413 C7.24099487,4.36453567 4.87369059,4.42975207 3.91174356,5.57448226 C2.44840818,6.98696426 1.20677791,8.44278884 0.221966265,9.89942357 C-0.180614283,10.4960929 -0.0205619756,11.3033991 0.58045077,11.7027989 C0.804605659,11.851865 1.05734132,11.9231575 1.30844379,11.9231575 C1.73062258,11.9231575 2.14545203,11.7210271 2.39777939,11.3467417 C2.8301656,10.707945 3.32052994,10.0671229 3.86356455,9.42913633 C3.84274142,10.7792374 3.91092697,13.2153334 3.94522389,14.3102399 C3.9566562,14.6748037 3.87295538,15.031266 3.70228735,15.3549176 C2.35164186,17.9137501 1.48768604,20.3348584 0.610664726,23.2967364 C0.395900661,24.0197878 0.813588187,24.7784855 1.5419895,24.9911477 C1.70694137,25.0393511 1.87352643,25.055554 2.03439533,25.0434018 C2.58886225,25.0012745 3.08453444,24.6265839 3.25030291,24.0667761 C4.05954697,21.3357885 4.84143515,19.1245068 6.0610174,16.7831974 C6.1230785,16.7856278 6.1851396,16.7856278 6.24801729,16.7827923 C7.0266391,19.0876453 7.80566921,21.3937136 8.58551591,23.6985667 C9.15182344,25.3783954 11.7792127,24.5058728 11.211272,22.825639 C10.3591568,20.3056933 9.50826646,17.7869629 8.65900932,15.2674223 C8.60960542,15.122812 8.48997448,14.556523 8.47323432,14.3718107 C8.33278025,12.8195792 8.28174317,11.2722086 8.29685014,9.72281269 C9.49234289,10.8590364 10.8180823,11.8445737 12.2908085,12.6911718 C13.7594517,13.5369597 14.7663114,11.1150411 13.3172664,10.2818104 Z" id="Path"></path>
        </g>
    </g>
</svg>