<?xml version="1.0" encoding="UTF-8"?>
<svg width="17px" height="16px" viewBox="0 0 17 16" version="1.1" xmlns="http://www.w3.org/2000/svg" xmlns:xlink="http://www.w3.org/1999/xlink">
    <title>ic_tileLoved</title>
    <g id="Assets" stroke="none" stroke-width="1" fill="none" fill-rule="evenodd">
        <path d="M14.7883956,2.29973475 C14.0029424,1.46587895 12.9630913,1.0101278 11.8532809,1.0101278 C10.7434705,1.0101278 9.70043951,1.46925488 8.91498629,2.30311068 L8.50476983,2.73860622 L8.08819343,2.29635881 C7.30274021,1.46250301 6.25652925,1 5.14671883,1 C4.04008838,1 2.99705739,1.45912708 2.21478415,2.28960694 C1.42933093,3.12346274 0.996854663,4.23076923 1.00001722,5.40897034 C1.00001722,6.58717145 1.43569087,7.691102 2.22114409,8.5249578 L8.19313252,14.8649626 C8.27581181,14.9527369 8.38711085,15 8.49522991,15 C8.60334898,15 8.71464802,14.9561129 8.79732731,14.8683386 L14.7820356,8.53846154 C15.5674888,7.70460574 15.9999827,6.59729925 15.9999827,5.41909814 C16.0031451,4.24089703 15.5738488,3.13359055 14.7883956,2.29973475 Z M14.1778408,7.89365807 L8.49522991,13.9028213 L2.82533887,7.88353026 C2.20206426,7.22184712 1.85862722,6.34410417 1.85862722,5.40897034 C1.85862722,4.47383651 2.19888428,3.59609356 2.8221589,2.93778635 C3.44225355,2.27947914 4.26904641,1.91487823 5.14671883,1.91487823 C6.02757122,1.91487823 6.85754406,2.27947914 7.48081867,2.94116229 L8.19949247,3.70412346 C8.36803101,3.88304799 8.63832868,3.88304799 8.80686722,3.70412346 L9.51918107,2.94791415 C10.1424557,2.28623101 10.9724285,1.92163009 11.8501009,1.92163009 C12.7277734,1.92163009 13.5545662,2.28623101 14.1778408,2.94453822 C14.8011155,3.60622136 15.1413944,4.48396431 15.1413944,5.41909814 C15.1445525,6.35423197 14.8011155,7.23197492 14.1778408,7.89365807 Z" id="ic_tileLoved" stroke="#28816D" stroke-width="0.5" fill="#28816D"></path>
    </g>
</svg>