<?xml version="1.0" encoding="UTF-8"?>
<svg width="21px" height="18px" viewBox="0 0 21 18" version="1.1" xmlns="http://www.w3.org/2000/svg" xmlns:xlink="http://www.w3.org/1999/xlink">
    <title>ic_tileLiked</title>
    <g id="Assets" stroke="none" stroke-width="1" fill="none" fill-rule="evenodd">
        <path d="M1.54546459,8.24154059 C0.583030368,9.15444369 0.880407601,10.9996064 2.5474593,10.9996064 L6.93377349,10.9968079 C6.76720304,11.8811426 6.52592086,13.3471048 6.53547416,13.4849323 C6.62757782,14.796509 7.50599195,16.3919031 7.54322534,16.4566191 C7.70330444,16.7404364 8.51153853,17.125234 9.32565157,16.9603541 C10.37725,16.7460335 10.4846634,16.1073861 10.4803767,15.9313121 C10.4803767,15.9313121 10.4343248,14.1842145 10.4306505,13.7180264 C10.9326889,12.6660131 12.6662463,9.90386613 13.1931478,9.6909448 C13.3188105,9.76335671 13.4606404,9.80160325 13.6089615,9.80160325 L19.1507357,9.80160325 C19.6214197,9.80160325 20,9.43907729 20,8.99306192 L19.9992651,1.70138104 C19.9663185,1.30830448 19.6162756,1 19.2011967,1 L14.2244148,1 C13.7830032,1 13.423407,1.34165361 13.423407,1.7618992 L13.423407,2.00397186 C13.423407,2.00397186 13.2384648,2.01644863 13.1544447,1.96572531 C12.8350214,1.77227708 12.4389266,1.52880516 11.9230482,1.52880516 L4.4957211,1.52880516 C1.71864886,1.52880516 2.01749584,3.87560396 2.27041346,4.19568558 C1.80119922,4.68204639 1.5110482,5.53991178 1.90714292,6.21762194 C1.60168212,6.52499358 1.06669705,7.3682833 1.54546459,8.24154059 Z M14.3938023,1.76388149 L19.2018091,1.76388149 L19.2018091,9.0408701 L14.3938023,9.0408701 C14.3938023,9.04098671 14.3938023,1.76388149 14.3938023,1.76388149 Z M2.84042731,8.30415765 L2.88574427,8.12400242 C1.60609134,7.777568 2.28719298,6.37410629 3.20443272,6.2823379 L3.24974968,6.10218267 C2.02263992,5.80495569 2.60808604,4.35916625 3.56905053,4.26028493 L3.61363261,4.08082933 C2.61163791,3.92422838 2.85426736,2.29618481 4.372263,2.29618481 L11.9273349,2.29338628 C12.4608503,2.29338628 12.946844,2.87221512 13.3399993,2.87221512 L13.6820811,2.87221512 L13.6820811,8.47311877 C13.2552443,8.72568591 12.7312823,9.05194761 12.4389266,9.28853982 C11.8878969,9.73595446 9.63258211,13.2056626 9.63258211,13.6399008 C9.63258211,14.0740224 9.68304315,15.9526508 9.68304315,15.9526508 C9.68304315,15.9526508 9.24016174,16.4946324 8.25359929,16.0994569 C8.25359929,16.0994569 7.42270673,14.6154209 7.33795177,13.4339758 C7.33795177,13.4339758 7.711388,10.9987901 7.91310971,10.2340924 L2.67520413,10.2340924 C1.38979472,10.2335094 1.63536364,8.48361325 2.84042731,8.30415765 Z" id="ic_tileLiked" stroke="#28816D" stroke-width="0.4" fill="#28816D" transform="translate(10.500000, 9.000000) rotate(-180.000000) translate(-10.500000, -9.000000) "></path>
    </g>
</svg>