<?xml version="1.0" encoding="UTF-8"?>
<svg width="40px" height="22px" viewBox="0 0 40 22" version="1.1" xmlns="http://www.w3.org/2000/svg" xmlns:xlink="http://www.w3.org/1999/xlink">
    <title>Group 9 Copy</title>
    <g id="Assets" stroke="none" stroke-width="1" fill="none" fill-rule="evenodd">
        <g id="Group-9-Copy" transform="translate(2.000000, 2.000000)" stroke="#B3CF38" stroke-width="1.344">
            <polygon id="Path" points="17.9201663 0 20.6886561 5.60388702 26.88 6.50275528 22.3999168 10.8645094 23.4574786 17.024 17.9201663 14.1160532 12.3825214 17.024 13.4400832 10.8645094 8.96 6.50275528 15.1513439 5.60388702"></polygon>
            <polygon id="Path-Copy" points="30.9120915 8.96 32.4347609 11.9094142 35.84 12.3825028 33.3759543 14.6781628 33.9576132 17.92 30.9120915 16.3895017 27.8663868 17.92 28.4480457 14.6781628 25.984 12.3825028 29.3892391 11.9094142"></polygon>
            <polygon id="Path-Copy-2" points="4.92809148 8.96 6.45076087 11.9094142 9.856 12.3825028 7.39195426 14.6781628 7.97361323 17.92 4.92809148 16.3895017 1.88238677 17.92 2.46404574 14.6781628 0 12.3825028 3.40523913 11.9094142"></polygon>
        </g>
    </g>
</svg>