<?xml version="1.0" encoding="UTF-8"?>
<svg width="20px" height="21px" viewBox="0 0 20 21" version="1.1" xmlns="http://www.w3.org/2000/svg" xmlns:xlink="http://www.w3.org/1999/xlink">
    <title>set-alarm</title>
    <g id="Assets" stroke="none" stroke-width="1" fill="none" fill-rule="evenodd">
        <g id="set-alarm" fill="#B3CF38" fill-rule="nonzero">
            <path d="M20,4.05445545 L15.4,0 L14.1,1.55940594 L18.7,5.61386139 L20,4.05445545 Z M5.9,1.66336634 L4.6,0.103960396 L0,4.05445545 L1.3,5.61386139 L5.9,1.66336634 Z M10.5,6.44554455 L9,6.44554455 L9,12.6831683 L13.7,15.6980606 L14.5,14.4504543 L10.5,11.9554455 L10.5,6.44554455 L10.5,6.44554455 Z M10,2.28712871 C5,2.28712871 1,6.44554455 1,11.6435644 C1,16.8415842 5,21 10,21 C15,21 19,16.8415842 19,11.6435644 C19,6.44554455 15,2.28712871 10,2.28712871 Z M10,18.9207921 C6.1,18.9207921 3,15.6980606 3,11.6435644 C3,7.58910891 6.1,4.36633663 10,4.36633663 C13.9,4.36633663 17,7.58910891 17,11.6435644 C17,15.6980606 13.9,18.9207921 10,18.9207921 Z" id="Shape"></path>
        </g>
    </g>
</svg>