<?xml version="1.0" encoding="UTF-8"?>
<svg width="12px" height="18px" viewBox="0 0 12 18" version="1.1" xmlns="http://www.w3.org/2000/svg" xmlns:xlink="http://www.w3.org/1999/xlink">
    <title>btn_direction_icon</title>
    <g id="Assets" stroke="none" stroke-width="1" fill="none" fill-rule="evenodd">
        <path d="M5.71428571,17.4285714 C5.98214286,17.4285714 6.23325893,17.3578869 6.46763393,17.2165179 C6.70200893,17.0751488 6.87872024,16.8816964 6.99776786,16.6361607 L6.99776786,16.6361607 L11.0602679,7.99776786 C11.3058036,7.47693452 11.4285714,6.8110119 11.4285714,6 C11.4285714,4.42261905 10.8705357,3.07589286 9.75446429,1.95982143 C8.63839286,0.84375 7.29166667,0.285714286 5.71428571,0.285714286 C4.13690476,0.285714286 2.79017857,0.84375 1.67410714,1.95982143 C0.558035714,3.07589286 0,4.42261905 0,6 C0,6.8110119 0.122767857,7.47693452 0.368303571,7.99776786 L0.368303571,7.99776786 L4.44196429,16.6361607 C4.55357143,16.8816964 4.7265625,17.0751488 4.9609375,17.2165179 C5.1953125,17.3578869 5.44642857,17.4285714 5.71428571,17.4285714 Z M5.71428571,8.85714286 C4.92559524,8.85714286 4.25223214,8.578125 3.69419643,8.02008929 C3.13616071,7.46205357 2.85714286,6.78869048 2.85714286,6 C2.85714286,5.21130952 3.13616071,4.53794643 3.69419643,3.97991071 C4.25223214,3.421875 4.92559524,3.14285714 5.71428571,3.14285714 C6.50297619,3.14285714 7.17633929,3.421875 7.734375,3.97991071 C8.29241071,4.53794643 8.57142857,5.21130952 8.57142857,6 C8.57142857,6.78869048 8.29241071,7.46205357 7.734375,8.02008929 C7.17633929,8.578125 6.50297619,8.85714286 5.71428571,8.85714286 Z" id="btn_direction_icon" fill="#28816D" fill-rule="nonzero"></path>
    </g>
</svg>