<?xml version="1.0" encoding="UTF-8"?>
<svg width="52px" height="52px" viewBox="0 0 52 52" version="1.1" xmlns="http://www.w3.org/2000/svg" xmlns:xlink="http://www.w3.org/1999/xlink">
    <title>ic_chatSendBtn</title>
    <g id="Assets" stroke="none" stroke-width="1" fill="none" fill-rule="evenodd">
        <g id="ic_chatSendBtn">
            <rect id="Rectangle-Copy-3" fill="#104233" x="0" y="0" width="52" height="52" rx="26"></rect>
            <path d="M23.4114286,34.4571429 C23.6420833,34.4571429 23.824375,34.3715774 23.9583036,34.2004464 L23.9583036,34.2004464 L26.6591964,30.9080357 L31.715,32.9727679 C31.8117262,33.0099702 31.9010119,33.0285714 31.9828571,33.0285714 C32.1093452,33.0285714 32.2246726,32.9988095 32.3288393,32.9392857 C32.5297321,32.8202381 32.6487798,32.6528274 32.6859821,32.4370536 L32.6859821,32.4370536 L35.543125,15.2941964 C35.5877679,14.9965774 35.4873214,14.7584821 35.2417857,14.5799107 C35.1227381,14.4980655 34.9888095,14.4571429 34.84,14.4571429 C34.7135119,14.4571429 34.5944643,14.490625 34.4828571,14.5575893 L34.4828571,14.5575893 L15.9114286,25.271875 C15.6584524,25.413244 15.5394048,25.6327381 15.5542857,25.9303571 C15.5766071,26.2354167 15.7254167,26.4400298 16.0007143,26.5441964 L16.0007143,26.5441964 L20.4091964,28.3522321 L32.34,18.0285714 L22.6971429,29.8477679 L22.6971429,33.7428571 C22.6971429,33.8916667 22.7399256,34.0274554 22.8254911,34.1502232 C22.9110565,34.2729911 23.0245238,34.3604167 23.1658929,34.4125 C23.2328571,34.4422619 23.3147024,34.4571429 23.4114286,34.4571429 Z" id="" fill="#B3CF38" fill-rule="nonzero"></path>
        </g>
    </g>
</svg>