<svg id="SvgjsSvg1001" width="288" height="288" xmlns="http://www.w3.org/2000/svg" version="1.1" xmlns:xlink="http://www.w3.org/1999/xlink" xmlns:svgjs="http://svgjs.com/svgjs"><defs id="SvgjsDefs1002"></defs><g id="SvgjsG1008" transform="matrix(1,0,0,1,0,0)"><svg xmlns="http://www.w3.org/2000/svg" width="288" height="288" viewBox="0 0 33 14"><path fill="#cccccc" fill-rule="nonzero" d="M6.52064732,13.0412946 C6.81640625,13.0412946 7.06752232,12.938058 7.27399554,12.7315848 L7.90178571,12.0954241 C8.11383929,11.8945312 8.21986607,11.6434152 8.21986607,11.3420759 C8.21986607,11.0407366 8.11383929,10.7896205 7.90178571,10.5887277 L5.44921875,8.12779018 L31.3420759,8.12779018 C31.6322545,8.12779018 31.8680246,8.02315848 32.0493862,7.81389509 C32.2307478,7.6046317 32.3214286,7.35212054 32.3214286,7.05636161 L32.3214286,5.98493304 C32.3214286,5.68917411 32.2307478,5.43666295 32.0493862,5.22739955 C31.8680246,5.01813616 31.6322545,4.91350446 31.3420759,4.91350446 L5.44921875,4.91350446 L7.90178571,2.4609375 C8.11383929,2.24888393 8.21986607,1.99497768 8.21986607,1.69921875 C8.21986607,1.40345982 8.11383929,1.14955357 7.90178571,0.9375 L7.27399554,0.318080357 C7.06194196,0.106026786 6.81082589,0 6.52064732,0 C6.22488839,0 5.97098214,0.106026786 5.75892857,0.318080357 L0.309709821,5.75892857 C0.103236607,5.9765625 0,6.23046875 0,6.52064732 C0,6.81640625 0.103236607,7.06752232 0.309709821,7.27399554 L5.75892857,12.7315848 C5.9765625,12.938058 6.23046875,13.0412946 6.52064732,13.0412946 Z" class="color747575 svgShape"></path></svg></g></svg>