<?xml version="1.0" encoding="UTF-8"?>
<svg width="20px" height="21px" viewBox="0 0 20 21" version="1.1" xmlns="http://www.w3.org/2000/svg" xmlns:xlink="http://www.w3.org/1999/xlink">
    <title>ic_date</title>
    <defs>
        <path d="M17.6428571,19.8571429 C18.0297619,19.8571429 18.3645833,19.7157738 18.6473214,19.4330357 C18.9300595,19.1502976 19.0714286,18.8154762 19.0714286,18.4285714 L19.0714286,18.4285714 L19.0714286,4.14285714 C19.0714286,3.75595238 18.9300595,3.42113095 18.6473214,3.13839286 C18.3645833,2.85565476 18.0297619,2.71428571 17.6428571,2.71428571 L17.6428571,2.71428571 L16.2142857,2.71428571 L16.2142857,1.64285714 C16.2142857,1.15178571 16.0394345,0.73139881 15.6897321,0.381696429 C15.3400298,0.0319940476 14.9196429,-0.142857143 14.4285714,-0.142857143 L14.4285714,-0.142857143 L13.7142857,-0.142857143 C13.2232143,-0.142857143 12.8028274,0.0319940476 12.453125,0.381696429 C12.1034226,0.73139881 11.9285714,1.15178571 11.9285714,1.64285714 L11.9285714,1.64285714 L11.9285714,2.71428571 L7.64285714,2.71428571 L7.64285714,1.64285714 C7.64285714,1.15178571 7.46800595,0.73139881 7.11830357,0.381696429 C6.76860119,0.0319940476 6.34821429,-0.142857143 5.85714286,-0.142857143 L5.85714286,-0.142857143 L5.14285714,-0.142857143 C4.65178571,-0.142857143 4.23139881,0.0319940476 3.88169643,0.381696429 C3.53199405,0.73139881 3.35714286,1.15178571 3.35714286,1.64285714 L3.35714286,1.64285714 L3.35714286,2.71428571 L1.92857143,2.71428571 C1.54166667,2.71428571 1.20684524,2.85565476 0.924107143,3.13839286 C0.641369048,3.42113095 0.5,3.75595238 0.5,4.14285714 L0.5,4.14285714 L0.5,18.4285714 C0.5,18.8154762 0.641369048,19.1502976 0.924107143,19.4330357 C1.20684524,19.7157738 1.54166667,19.8571429 1.92857143,19.8571429 L1.92857143,19.8571429 L17.6428571,19.8571429 Z M5.85714286,5.21428571 L5.14285714,5.21428571 C5.03869048,5.21428571 4.953125,5.18080357 4.88616071,5.11383929 C4.81919643,5.046875 4.78571429,4.96130952 4.78571429,4.85714286 L4.78571429,4.85714286 L4.78571429,1.64285714 C4.78571429,1.53869048 4.81919643,1.453125 4.88616071,1.38616071 C4.953125,1.31919643 5.03869048,1.28571429 5.14285714,1.28571429 L5.14285714,1.28571429 L5.85714286,1.28571429 C5.96130952,1.28571429 6.046875,1.31919643 6.11383929,1.38616071 C6.18080357,1.453125 6.21428571,1.53869048 6.21428571,1.64285714 L6.21428571,1.64285714 L6.21428571,4.85714286 C6.21428571,4.96130952 6.18080357,5.046875 6.11383929,5.11383929 C6.046875,5.18080357 5.96130952,5.21428571 5.85714286,5.21428571 L5.85714286,5.21428571 Z M14.4285714,5.21428571 L13.7142857,5.21428571 C13.610119,5.21428571 13.5245536,5.18080357 13.4575893,5.11383929 C13.390625,5.046875 13.3571429,4.96130952 13.3571429,4.85714286 L13.3571429,4.85714286 L13.3571429,1.64285714 C13.3571429,1.53869048 13.390625,1.453125 13.4575893,1.38616071 C13.5245536,1.31919643 13.610119,1.28571429 13.7142857,1.28571429 L13.7142857,1.28571429 L14.4285714,1.28571429 C14.5327381,1.28571429 14.6183036,1.31919643 14.6852679,1.38616071 C14.7522321,1.453125 14.7857143,1.53869048 14.7857143,1.64285714 L14.7857143,1.64285714 L14.7857143,4.85714286 C14.7857143,4.96130952 14.7522321,5.046875 14.6852679,5.11383929 C14.6183036,5.18080357 14.5327381,5.21428571 14.4285714,5.21428571 L14.4285714,5.21428571 Z M17.6428571,18.4285714 L1.92857143,18.4285714 L1.92857143,7 L17.6428571,7 L17.6428571,18.4285714 Z" id="path-1"></path>
    </defs>
    <g id="Welcome" stroke="none" stroke-width="1" fill="none" fill-rule="evenodd">
        <g id="Ibrahim" transform="translate(-906.000000, -119.000000)" fill-rule="nonzero">
            <g id="" transform="translate(906.000000, 120.000000)">
                <use fill="#000000" xlink:href="#path-1"></use>
                <use fill="#28816D" xlink:href="#path-1"></use>
            </g>
        </g>
    </g>
</svg>