<svg xmlns="http://www.w3.org/2000/svg" width="21" height="20" viewBox="0 0 21 20">
  <path fill="#CCC" fill-rule="evenodd" stroke="#CCC" stroke-width=".65" d="M18.4653011,2.67108753 C17.4703937,1.59898722 16.153249,1.01302146 14.7474892,1.01302146 C13.3417293,1.01302146 12.0205567,1.60332771 11.0256493,2.67542802 L10.5060418,3.23535086 L9.97837834,2.66674705 C8.98347094,1.59464673 7.65827038,1 6.25251052,1 C4.85077862,1 3.52960603,1.59030625 2.53872659,2.65806607 C1.54381918,3.73016639 0.996015907,5.15384615 1.00002182,6.66867615 C1.00002182,8.18350615 1.55187511,9.60284543 2.54678252,10.6749457 L10.1113012,18.8263805 C10.2160283,18.9392332 10.3570071,19 10.4939579,19 C10.6309087,19 10.7718875,18.9435737 10.8766146,18.830721 L18.4572451,10.6923077 C19.4521525,9.62020738 19.999978,8.19652761 19.999978,6.68169761 C20.0039838,5.16686762 19.4602085,3.74318785 18.4653011,2.67108753 Z M17.6919317,9.86327466 L10.4939579,17.5893417 L3.31209591,9.8502532 C2.52261472,8.99951772 2.08759448,7.87099108 2.08759448,6.66867615 C2.08759448,5.46636122 2.51858676,4.33783458 3.30806794,3.49143959 C4.09352116,2.64504461 5.14079212,2.176272 6.25251052,2.176272 C7.36825688,2.176272 8.4195558,2.64504461 9.20903699,3.49578008 L10.1193571,4.47673017 C10.3328393,4.70677598 10.6752163,4.70677598 10.8886985,4.47673017 L11.7909627,3.50446106 C12.5804439,2.65372558 13.6317428,2.18495298 14.7434612,2.18495298 C15.8551796,2.18495298 16.9024506,2.65372558 17.6919317,3.50012057 C18.4814129,4.35085604 18.9124329,5.47938269 18.9124329,6.68169761 C18.9164332,7.88401254 18.4814129,9.01253918 17.6919317,9.86327466 Z"/>
</svg>
