<?xml version="1.0" encoding="UTF-8"?>
<svg width="14px" height="23px" viewBox="0 0 14 23" version="1.1" xmlns="http://www.w3.org/2000/svg" xmlns:xlink="http://www.w3.org/1999/xlink">
    <title>ic_lowerbarAttending</title>
    <g id="Assets" stroke="none" stroke-width="1" fill="none" fill-rule="evenodd">
        <g id="ic_lowerbarAttending" transform="translate(1.000000, 1.000000)" fill-rule="nonzero" stroke="#CCCCCC" stroke-width="1.056">
            <circle id="Oval" cx="5.94" cy="1.98" r="1.98"></circle>
            <path d="M11.2829215,8.66967988 C9.53496083,7.67062277 8.10075445,6.32112716 6.89347509,4.73356564 C6.13486087,3.68020081 4.12918587,3.73519164 3.31418582,4.70043451 C2.07438947,5.89144722 1.02243058,7.11900662 0.18805871,8.34724914 C-0.153023654,8.85036406 -0.0174209293,9.53108913 0.49178114,9.8678653 C0.68169414,9.99355864 0.895821913,10.0536728 1.10856598,10.0536728 C1.46625276,10.0536728 1.81771289,9.88323541 2.03149473,9.56763583 C2.39782965,9.02899888 2.81328595,8.48865415 3.27336663,7.95070032 C3.25572444,9.08911309 3.31349397,11.1432428 3.34255169,12.0664741 C3.3522376,12.3738763 3.28132291,12.6744473 3.13672613,12.9473521 C1.99240517,15.1049739 1.2604272,17.146466 0.517379614,19.643938 C0.335422896,20.253619 0.689304497,20.8933571 1.30643527,21.0726751 C1.44618909,21.1133205 1.58732662,21.1269828 1.7236212,21.116736 C2.19338778,21.081214 2.61334112,20.7652729 2.7537868,20.2932397 C3.43941078,17.9904558 4.10185777,16.1258907 5.1351367,14.1516856 C5.18771734,14.1537349 5.24029799,14.1537349 5.29357049,14.151344 C5.95325007,16.094809 6.61327558,18.0392986 7.27399294,19.9827635 C7.75379136,21.3992045 9.97982079,20.6634886 9.49863867,19.2467061 C8.77669253,17.1218738 8.05578416,14.9980663 7.3362595,12.8735756 C7.29440254,12.7516394 7.19304642,12.2741413 7.17886348,12.1183909 C7.05986517,10.8095407 7.0166245,9.50478916 7.02942374,8.19832986 C8.04229307,9.15640001 9.16551259,9.9874106 10.4132652,10.7012668 C11.6575586,11.4144399 12.5106104,9.37226466 11.2829215,8.66967988 Z" id="Path"></path>
        </g>
    </g>
</svg>