<svg xmlns="http://www.w3.org/2000/svg" width="29" height="25" viewBox="0 0 29 25">
  <path fill="#CCC" fill-rule="evenodd" stroke="#CCC" stroke-width=".582" d="M1.79419645,11.5436831 C0.392892216,12.87287 0.825873468,15.5594269 3.25310074,15.5594269 L9.63957419,15.5553522 C9.39704763,16.8429437 9.04574077,18.9773846 9.05965038,19.1780614 C9.1937533,21.0877171 10.4727243,23.4106109 10.5269361,23.5048373 C10.7600113,23.9180754 11.9368001,24.4783407 13.1221487,24.2382755 C14.653276,23.9262247 14.8096699,22.9963542 14.8034284,22.7399904 C14.8034284,22.7399904 14.736377,20.1962162 14.7310271,19.5174464 C15.4619951,17.9857151 17.9860546,13.9640291 18.7532232,13.6540156 C18.9361881,13.7594474 19.1426924,13.8151343 19.358648,13.8151343 L27.4274712,13.8151343 C28.112787,13.8151343 28.664,13.2872965 28.664,12.6378982 L28.66293,2.02121079 C28.6149597,1.44889133 28.1052973,1 27.5009425,1 L20.254748,1 C19.6120526,1 19.0884805,1.49744765 19.0884805,2.10932524 L19.0884805,2.46178303 C19.0884805,2.46178303 18.8192047,2.47994921 18.6968715,2.40609606 C18.2317911,2.12443542 17.6550772,1.76994031 16.9039582,1.76994031 L6.08976992,1.76994031 C2.04635274,1.76994031 2.48147394,5.18687936 2.84972199,5.6529182 C2.16654606,6.36105955 1.74408618,7.61011155 2.32080009,8.59685754 C1.87604916,9.04439065 1.0971109,10.2722205 1.79419645,11.5436831 Z M20.5013761,2.11221146 L27.5018341,2.11221146 L27.5018341,12.7075069 L20.5013761,12.7075069 C20.5013761,12.7076766 20.5013761,2.11221146 20.5013761,2.11221146 Z M3.67966217,11.6348535 L3.74564366,11.3725475 C1.88246898,10.868139 2.87415298,8.82469875 4.20965405,8.69108398 L4.27563554,8.42877796 C2.48896373,7.99601548 3.34137327,5.89094605 4.74053757,5.74697486 L4.80544909,5.48568751 C3.3465448,5.25767652 3.69981327,2.88724508 5.91001493,2.88724508 L16.9101996,2.88317043 C17.686998,2.88317043 18.3946049,3.72594522 18.9670389,3.72594522 L19.46511,3.72594522 L19.46511,11.8808609 C18.8436357,12.2485987 18.080747,12.7236357 17.6550772,13.068114 C16.8527779,13.7195497 13.5690395,18.7714447 13.5690395,19.4036955 C13.5690395,20.0357766 13.6425108,22.7710596 13.6425108,22.7710596 C13.6425108,22.7710596 12.9976755,23.5601848 11.5612406,22.9848093 C11.5612406,22.9848093 10.351461,20.8240529 10.2280578,19.1038687 C10.2280578,19.1038687 10.7717809,15.5582384 11.0654877,14.4448385 L3.43909721,14.4448385 C1.56754111,14.4439897 1.92508946,11.8961409 3.67966217,11.6348535 Z" transform="rotate(-180 14.832 12.648)"/>
</svg>
