<svg xmlns="http://www.w3.org/2000/svg" width="28" height="34" viewBox="0 0 28 34">
  <g fill="none" fill-rule="evenodd">
    <path fill="#28816D" fill-rule="nonzero" d="M27.7442144,15.8563931 C27.7442144,15.8726145 27.7356882,15.8888359 27.7356882,15.9050573 C27.727162,15.9456107 27.7015834,16.067271 27.6589525,16.2538168 C27.6589525,16.2619275 27.6589525,16.2619275 27.6589525,16.2700382 C27.4457978,17.1784351 27.1303289,18.0625 26.7125457,18.9141221 C26.7040195,18.9222328 26.7040195,18.9384542 26.6954933,18.9465649 C25.1010962,22.5395992 21.6053593,28.0224237 14,34 C6.39464068,28.0224237 2.89890378,22.5395992 1.3045067,18.9465649 C1.29598051,18.9384542 1.29598051,18.9222328 1.28745432,18.9141221 C0.87819732,18.0706107 0.56272838,17.1784351 0.341047503,16.2700382 C0.341047503,16.2619275 0.341047503,16.2619275 0.341047503,16.2538168 C0.289890378,16.067271 0.272838002,15.9456107 0.264311815,15.9050573 C0.264311815,15.8888359 0.255785627,15.8726145 0.255785627,15.8482824 C0.0852618758,15.0128817 0,14.1693702 0,13.3177481 C0,5.97757634 6.28380024,0 14,0 C21.7161998,0 28,5.97757634 28,13.3177481 C28,14.1774809 27.9147381,15.0291031 27.7442144,15.8563931 Z"/>
    <rect width="14" height="14" x="7" y="6" fill="#FFF" stroke="#FFF" stroke-width="2" rx="7"/>
  </g>
</svg>
