<svg xmlns="http://www.w3.org/2000/svg" width="48" height="48" viewBox="0 0 48 48">
  <path fill="#CCC" d="M23.0551145,0 C25.0813999,0 26.73,1.62869451 26.73,3.63123274 L26.73,3.63123274 L26.73,15.3506435 C26.73,17.3528593 25.0813999,18.9818763 23.0551145,18.9818763 L23.0551145,18.9818763 L11.3964686,18.9818763 L3.66183379,24.3 L3.66183379,18.9818763 C1.64142168,18.974783 0,17.3486679 0,15.3506435 L0,15.3506435 L0,3.63123274 C0,1.62869451 1.64860015,0 3.67488555,0 L3.67488555,0 Z M23.0551145,1.54760641 L3.67488555,1.54760641 C2.51213711,1.54760641 1.56621094,2.48213498 1.56621094,3.63123274 L1.56621094,3.63123274 L1.56621094,15.3506435 C1.56621094,16.4994189 2.51213711,17.4342699 3.67488555,17.4342699 L3.67488555,17.4342699 L5.22804473,17.4342699 L5.22804473,21.3377846 L10.9050699,17.4342699 L23.0551145,17.4342699 C24.2178629,17.4342699 25.1637891,16.4994189 25.1637891,15.3506435 L25.1637891,15.3506435 L25.1637891,3.63123274 C25.1637891,2.48213498 24.2178629,1.54760641 23.0551145,1.54760641 L23.0551145,1.54760641 Z M19.44,12.15 L19.44,13.77 L7.29,13.77 L7.29,12.15 L19.44,12.15 Z M19.44,8.91 L19.44,10.53 L7.29,10.53 L7.29,8.91 L19.44,8.91 Z M19.44,5.67 L19.44,7.29 L7.29,7.29 L7.29,5.67 L19.44,5.67 Z" transform="matrix(-1 0 0 1 38 12)"/>
</svg>
