<svg xmlns="http://www.w3.org/2000/svg" width="8" height="4" viewBox="0 0 8 4">
  <path fill="#FFF" d="M3.85714286,3.984375 C3.91517857,3.984375 3.96651786,3.96205357 4.01116071,3.91741071 L4.01116071,3.91741071 L7.13169643,0.796875 C7.17633929,0.752232143 7.19866071,0.700892857 7.19866071,0.642857143 C7.19866071,0.584821429 7.17633929,0.533482143 7.13169643,0.488839286 L7.13169643,0.488839286 L6.796875,0.154017857 C6.75223214,0.109375 6.70089286,0.0870535714 6.64285714,0.0870535714 C6.58482143,0.0870535714 6.53348214,0.109375 6.48883929,0.154017857 L6.48883929,0.154017857 L3.85714286,2.78571429 L1.22544643,0.154017857 C1.18080357,0.109375 1.12946429,0.0870535714 1.07142857,0.0870535714 C1.01339286,0.0870535714 0.962053571,0.109375 0.917410714,0.154017857 L0.917410714,0.154017857 L0.582589286,0.488839286 C0.537946429,0.533482143 0.515625,0.584821429 0.515625,0.642857143 C0.515625,0.700892857 0.537946429,0.752232143 0.582589286,0.796875 L0.582589286,0.796875 L3.703125,3.91741071 C3.74776786,3.96205357 3.79910714,3.984375 3.85714286,3.984375 Z"/>
</svg>
