<?xml version="1.0" encoding="UTF-8"?>
<svg width="14px" height="14px" viewBox="0 0 14 14" version="1.1" xmlns="http://www.w3.org/2000/svg" xmlns:xlink="http://www.w3.org/1999/xlink">
    <title>ic_priceTagGreen</title>
    <g id="Assets" stroke="none" stroke-width="1" fill="none" fill-rule="evenodd">
        <path d="M8,13.9553571 C8.30952381,13.9553571 8.58035714,13.8452381 8.8125,13.625 L8.8125,13.625 L13.1964286,9.23214286 C13.4166667,9.01190476 13.5267857,8.74404762 13.5267857,8.42857143 C13.5267857,8.11904762 13.4166667,7.84821429 13.1964286,7.61607143 L13.1964286,7.61607143 L6.8125,1.24107143 C6.58630952,1.01488095 6.2827381,0.822916667 5.90178571,0.665178571 C5.52083333,0.507440476 5.17261905,0.428571429 4.85714286,0.428571429 L4.85714286,0.428571429 L1.14285714,0.428571429 C0.833333333,0.428571429 0.56547619,0.541666667 0.339285714,0.767857143 C0.113095238,0.994047619 0,1.26190476 0,1.57142857 L0,1.57142857 L0,5.28571429 C0,5.60119048 0.0788690476,5.94940476 0.236607143,6.33035714 C0.394345238,6.71130952 0.586309524,7.01190476 0.8125,7.23214286 L0.8125,7.23214286 L7.19642857,13.625 C7.41666667,13.8452381 7.68452381,13.9553571 8,13.9553571 Z M2.85714286,4.42857143 C2.54166667,4.42857143 2.27232143,4.31696429 2.04910714,4.09375 C1.82589286,3.87053571 1.71428571,3.60119048 1.71428571,3.28571429 C1.71428571,2.9702381 1.82589286,2.70089286 2.04910714,2.47767857 C2.27232143,2.25446429 2.54166667,2.14285714 2.85714286,2.14285714 C3.17261905,2.14285714 3.44196429,2.25446429 3.66517857,2.47767857 C3.88839286,2.70089286 4,2.9702381 4,3.28571429 C4,3.60119048 3.88690476,3.87202381 3.66071429,4.09821429 C3.44047619,4.31845238 3.17261905,4.42857143 2.85714286,4.42857143 Z" id="ic_priceTagGreen" fill="#B3CF38" fill-rule="nonzero"></path>
    </g>
</svg>