<svg xmlns="http://www.w3.org/2000/svg" width="30" height="78" viewBox="0 0 30 78">
  <g fill="none" fill-rule="evenodd">
    <path fill="#114435" d="M5,0 L30,0 L30,0 L30,78 L5,78 C2.23857625,78 3.38176876e-16,75.7614237 0,73 L0,5 C-3.38176876e-16,2.23857625 2.23857625,5.07265313e-16 5,0 Z"/>
    <path fill="#B3CF38" fill-rule="nonzero" d="M17.4550216,48.6367187 C17.6039334,48.6367187 17.735663,48.5765985 17.8502106,48.456358 L17.8502106,48.456358 L18.7093171,47.5545544 C18.8238646,47.4343139 18.8811384,47.2960374 18.8811384,47.1397248 C18.8811384,46.9834121 18.8238646,46.8451356 18.7093171,46.7248951 L18.7093171,46.7248951 L11.9567398,39.6367187 L18.7093171,32.5485424 C18.8238646,32.4283019 18.8811384,32.2900254 18.8811384,32.1337127 C18.8811384,31.9774001 18.8238646,31.8391236 18.7093171,31.7188831 L18.7093171,31.7188831 L17.8502106,30.8170795 C17.735663,30.696839 17.6039334,30.6367187 17.4550216,30.6367187 C17.3061098,30.6367187 17.1743801,30.696839 17.0598326,30.8170795 L17.0598326,30.8170795 L9.0529597,39.2218891 C8.93841216,39.3421296 8.88113839,39.4804061 8.88113839,39.6367187 C8.88113839,39.7930314 8.93841216,39.9313079 9.0529597,40.0515484 L9.0529597,40.0515484 L17.0598326,48.456358 C17.1743801,48.5765985 17.3061098,48.6367187 17.4550216,48.6367187 Z" transform="rotate(-180 13.881 39.637)"/>
  </g>
</svg>
