<svg xmlns="http://www.w3.org/2000/svg" width="20" height="20" viewBox="0 0 23 21">
  <path fill="#28816D" d="M11.48315 3.2L.516971954 3.2C.323436093 3.19952531.146119705 3.340071.0577053821 3.56389714-.0319284332 3.7907372-.0161967619 4.0638971.0983150081 4.27106711L4.1158608 11.6329003C4.11720223 11.6354384 4.11866564 11.6378178 4.12000711 11.6403559 4.26598216 11.8967011 4.34500625 12.2072975 4.34537211 12.5263013L4.34537211 18.528363C4.34451845 18.706028 4.39817678 18.8768719 4.49439595 19.0029823 4.59073703 19.128934 4.72171216 19.2 4.85829701 19.2 4.92768699 19.2 4.99646722 19.1819163 5.0606133 19.1471764L7.31816574 18.0275699C7.52036011 17.9471448 7.65462789 17.6988897 7.65462789 17.4000319L7.65462789 12.5263013C7.65499375 12.2072975 7.73401784 11.8967011 7.87987095 11.6403559 7.88121239 11.6378178 7.88267583 11.6354384 7.88401726 11.6329003L11.901685 4.27090849C12.0161968 4.0638971 12.0319284 3.79089582 11.9422946 3.56405576 11.8540023 3.340071 11.6765639 3.19952531 11.48315 3.2zM16.4924107 5.01071429L18.4678571 5.01071429 17.6642857 2.57767857 17.5303571 2.053125 17.5089286 1.853125C17.5083333 1.84360121 17.5080357 1.83586312 17.5080357 1.82991071L17.4633929 1.82991071 17.4236608 2.09062483C17.4174108 2.12366042 17.4064733 2.17812462 17.3908482 2.25401786 17.3648064 2.38050658 17.3369049 2.48839241 17.3071429 2.57767857L16.4924107 5.01071429zM20.7446429 17.8566964L20.7446429 20.4571429 14.2267857 20.4571429 14.2267857 19.4526786 18.3450893 13.5486607C18.4343754 13.4147315 18.5124997 13.314286 18.5794643 13.2473214L18.7022321 13.146875 18.7022321 13.1133929 18.5459821 13.1245536 18.5459821 13.1245536C18.456696 13.1468751 18.34509 13.1580357 18.2111607 13.1580357L15.621875 13.1580357 15.621875 14.4415179 14.2825893 14.4415179 14.2825893 11.8857143 20.6107143 11.8857143 20.6107143 12.8790179 16.4924107 18.7941964 16.4227679 18.8834821C16.3799109 18.9370534 16.3250003 19.0040175 16.2580357 19.084375L16.1352679 19.2071429 16.1352679 19.2294643 16.2915179 19.2071429C16.3584825 19.1922618 16.4700885 19.1848214 16.6263393 19.1848214L19.3941964 19.1848214 19.3941964 17.8566964 20.7446429 17.8566964zM21.7379464 7.84553571L21.7379464 9.02857143 18.5236607 9.02857143 18.5236607 7.84553571 19.3607143 7.84553571 18.8361607 6.23839286 16.1241071 6.23839286 15.5995536 7.84553571 16.4366071 7.84553571 16.4366071 9.02857143 13.2334821 9.02857143 13.2334821 7.84553571 14.0147321 7.84553571 16.5816964.457142857 18.3897321.457142857 20.9566964 7.84553571 21.7379464 7.84553571z" transform="translate(.5)"/>
</svg>
