<svg xmlns="http://www.w3.org/2000/svg" width="5" height="22" viewBox="0 0 5 22">
  <path fill="#BABABA" fill-rule="evenodd" d="M337.499995,31.25482 C338.4205,31.25482 339.16667,32.027306 339.16667,32.98039 L339.16667,33.411766 C339.16667,34.364586 338.4205,35.1376 337.499995,35.1376 L337.083355,35.1376 C336.16285,35.1376 335.41668,34.364586 335.41668,33.411766 L335.41668,32.98039 C335.41668,32.027306 336.16285,31.25482 337.083355,31.25482 L337.499995,31.25482 Z M337.499995,23.05894 C338.4205,23.05894 339.16667,23.831426 339.16667,24.784224 L339.16667,25.215622 C339.16667,26.168684 338.4205,26.941192 337.499995,26.941192 L337.083355,26.941192 C336.16285,26.941192 335.41668,26.168684 335.41668,25.215622 L335.41668,24.784224 C335.41668,23.831426 336.16285,23.05894 337.083355,23.05894 L337.499995,23.05894 Z M337.499995,14.86251 C338.4205,14.86251 339.16667,15.634996 339.16667,16.588344 L339.16667,17.01972 C339.16667,17.972804 338.4205,18.74529 337.499995,18.74529 L337.083355,18.74529 C336.16285,18.74529 335.41668,17.972804 335.41668,17.01972 L335.41668,16.588344 C335.41668,15.634996 336.16285,14.86251 337.083355,14.86251 L337.499995,14.86251 Z" transform="matrix(-1 0 0 1 339.583 -14)"/>
</svg>
