<?xml version="1.0" encoding="UTF-8"?>
<svg width="30px" height="30px" viewBox="0 0 30 30" version="1.1" xmlns="http://www.w3.org/2000/svg" xmlns:xlink="http://www.w3.org/1999/xlink">
    <title></title>
    <g id="Assets" stroke="none" stroke-width="1" fill="none" fill-rule="evenodd">
        <path d="M14.9999642,29.2812422 C17.6171458,29.2812422 20.0390147,28.6269466 22.2655719,27.3183562 C24.4921291,26.0097659 26.2597033,24.2421917 27.5682936,22.0156345 C28.876884,19.7890773 29.5311796,17.3672084 29.5311796,14.7500268 C29.5311796,12.1328453 28.876884,9.71097634 27.5682936,7.48441914 C26.2597033,5.25786195 24.4921291,3.49028774 22.2655719,2.18169741 C20.0390147,0.87310708 17.6171458,0.218811467 14.9999642,0.218811467 C12.3827827,0.218811467 9.96091375,0.87310708 7.73435656,2.18169741 C5.50779937,3.49028774 3.74022516,5.25786195 2.43163483,7.48441914 C1.1230445,9.71097634 0.468748882,12.1328453 0.468748882,14.7500268 C0.468748882,17.3672084 1.1230445,19.7890773 2.43163483,22.0156345 C3.74022516,24.2421917 5.50779937,26.0097659 7.73435656,27.3183562 C9.96091375,28.6269466 12.3827827,29.2812422 14.9999642,29.2812422 Z M14.9999642,26.4687489 C12.8905943,26.4687489 10.9374742,25.9414064 9.14060321,24.8867214 C7.34373219,23.8320364 5.91795464,22.4062589 4.86326966,20.6093879 C3.80858467,18.8125168 3.28124218,16.8593968 3.28124218,14.7500268 C3.28124218,12.6406569 3.80858467,10.6875368 4.86326966,8.89066579 C5.91795464,7.09379478 7.34373219,5.66801723 9.14060321,4.61333224 C10.9374742,3.55864725 12.8905943,3.03130476 14.9999642,3.03130476 C17.1093342,3.03130476 19.0624543,3.55864725 20.8593253,4.61333224 C22.6561963,5.66801723 24.0819738,7.09379478 25.1366588,8.89066579 C26.1913438,10.6875368 26.7186863,12.6406569 26.7186863,14.7500268 C26.7186863,16.8593968 26.1913438,18.8125168 25.1366588,20.6093879 C24.0819738,22.4062589 22.6561963,23.8320364 20.8593253,24.8867214 C19.0624543,25.9414064 17.1093342,26.4687489 14.9999642,26.4687489 Z M10.078101,22.0742281 C10.5468499,22.3476653 11.0155987,22.3476653 11.4843476,22.0742281 L11.4843476,22.0742281 L21.796823,16.1562735 C22.2655719,15.8828363 22.4999464,15.4726811 22.4999464,14.9258077 C22.4999464,14.3789343 22.2655719,13.968779 21.796823,13.6953418 L21.796823,13.6953418 L11.4843476,7.42582553 C11.0155987,7.15238839 10.5468499,7.15238839 10.078101,7.42582553 C9.60935209,7.69926268 9.37497765,8.10941795 9.37497765,8.65629135 L9.37497765,8.65629135 L9.37497765,20.8437623 C9.37497765,21.3906357 9.60935209,21.800791 10.078101,22.0742281 Z" id="" fill="#B3CF38" fill-rule="nonzero"></path>
    </g>
</svg>