<?xml version="1.0" encoding="utf-8"?>
<!-- Generator: Adobe Illustrator 23.0.1, SVG Export Plug-In . SVG Version: 6.00 Build 0)  -->
<svg version="1.1" id="Capa_1" xmlns="http://www.w3.org/2000/svg" xmlns:xlink="http://www.w3.org/1999/xlink" x="0px" y="0px"
	 viewBox="0 0 477.9 477.9" style="enable-background:new 0 0 477.9 477.9;" xml:space="preserve">
<style type="text/css">
	.st0{fill:#BABCC5;}
</style>
<g>
	<g>
		<path class="st0" d="M-0.3,17.4L0,205.1c0,4.5,1.8,8.9,5,12.1l256.3,255.7c6.7,6.7,17.5,6.7,24.1,0c0,0,0,0,0,0l187.5-188
			c6.7-6.7,6.6-17.5,0-24.1L216.6,5c-3.2-3.2-7.6-5-12.1-5L16.8,0.3C7.3,0.3-0.3,7.9-0.3,17.4z M153.5,119.6
			c0,18.9-15.2,34.2-34.1,34.2s-34.2-15.2-34.2-34.1c0-18.9,15.2-34.2,34.1-34.2C138.1,85.5,153.4,100.7,153.5,119.6z"/>
	</g>
</g>
</svg>
