<?xml version="1.0" encoding="UTF-8"?>
<svg width="40px" height="29px" viewBox="0 0 40 29" version="1.1" xmlns="http://www.w3.org/2000/svg" xmlns:xlink="http://www.w3.org/1999/xlink">
    <title>videoIcon</title>
    <g id="Assets" stroke="none" stroke-width="1" fill="none" fill-rule="evenodd">
        <path d="M22.1428571,28.5714286 C23.9136905,28.5714286 25.4278274,27.9427083 26.6852679,26.6852679 C27.9427083,25.4278274 28.5714286,23.9136905 28.5714286,22.1428571 L28.5714286,22.1428571 L28.5714286,18.4375 L37.5669643,27.4330357 C37.8348214,27.7157738 38.1696429,27.8571429 38.5714286,27.8571429 C38.75,27.8571429 38.9360119,27.8199405 39.1294643,27.7455357 C39.7098214,27.4925595 40,27.0535714 40,26.4285714 L40,26.4285714 L40,2.14285714 C40,1.51785714 39.7098214,1.07886905 39.1294643,0.825892857 C38.9360119,0.751488095 38.75,0.714285714 38.5714286,0.714285714 C38.1696429,0.714285714 37.8348214,0.855654762 37.5669643,1.13839286 L37.5669643,1.13839286 L28.5714286,10.1116071 L28.5714286,6.42857143 C28.5714286,4.6577381 27.9427083,3.14360119 26.6852679,1.88616071 C25.4278274,0.628720238 23.9136905,0 22.1428571,0 L22.1428571,0 L6.42857143,0 C4.6577381,0 3.14360119,0.628720238 1.88616071,1.88616071 C0.628720238,3.14360119 0,4.6577381 0,6.42857143 L0,6.42857143 L0,22.1428571 C0,23.9136905 0.628720238,25.4278274 1.88616071,26.6852679 C3.14360119,27.9427083 4.6577381,28.5714286 6.42857143,28.5714286 L6.42857143,28.5714286 L22.1428571,28.5714286 Z" id="videoIcon" fill="#D5D5D5" fill-rule="nonzero"></path>
    </g>
</svg>