<?xml version="1.0" encoding="UTF-8"?>
<svg width="29px" height="29px" viewBox="0 0 29 29" version="1.1" xmlns="http://www.w3.org/2000/svg" xmlns:xlink="http://www.w3.org/1999/xlink">
    <title>facebook</title>
    <g id="Assets" stroke="none" stroke-width="1" fill="none" fill-rule="evenodd">
        <g id="facebook" fill-rule="nonzero">
            <circle id="Oval" fill="#4E598F" cx="14.336056" cy="14.336" r="14.336"></circle>
            <g id="Group" transform="translate(6.104000, 6.104000)" fill="#FFFFFF">
                <path d="M14.226408,0.026096 C15.447712,0.026096 16.437792,1.016232 16.437792,2.237536 L16.437792,2.237536 L16.437792,14.226576 C16.437792,15.44788 15.447656,16.438072 14.226352,16.438072 L14.226352,16.437904 L10.708096,16.438072 L10.718344,10.573416 L12.743752,10.573248 C12.92592,10.573248 13.079416,10.437 13.100752,10.256008 L13.100752,10.256008 L13.324808,8.365504 C13.3333013,8.29429067 13.3204089,8.22592089 13.2914631,8.16641156 L13.2573637,8.11024655 C13.1922712,8.02202351 13.0875236,7.963984 12.967808,7.963984 L12.967808,7.963984 L10.708152,7.963816 L10.708152,6.3826 C10.708152,5.98412889 10.7696483,5.65622815 11.0006368,5.44347117 L11.0751261,5.38303096 C11.2613029,5.25053321 11.5358227,5.17664 11.935728,5.17664 L11.935728,5.17664 L12.888064,5.17608 C13.086416,5.17608 13.24736,5.015136 13.24736,4.81656 L13.24736,4.81656 L13.24736,3.222632 C13.24736,3.024056 13.086248,2.863112 12.88784,2.863112 L12.88784,2.863112 L11.33608,2.863224 C9.81104702,2.863224 8.67387784,3.61399982 8.29091662,5.01654746 C8.19898401,5.35336373 8.150576,5.72715094 8.150576,6.13704 L8.150576,6.13704 L8.150576,7.96376 L6.629504,7.96376 C6.430536,7.96376 6.2692,8.125656 6.269984,8.324624 L6.269984,8.324624 L6.277432,10.215128 C6.278104,10.413144 6.438824,10.573304 6.63684,10.573304 L6.63684,10.573304 L8.1606,10.573304 L8.150352,16.437736 L2.237648,16.437736 C1.016288,16.437736 0.026208,15.447712 0.026208,14.226296 L0.026208,14.226296 L0.026208,2.237536 C0.026208,1.016176 1.016344,0.026096 2.237648,0.026096 L2.237648,0.026096 Z" id="Combined-Shape"></path>
                <polygon id="Path" points="8.174156 16.43768 8.192456 10.573248 8.147656 10.573248 8.147656 16.43768"></polygon>
            </g>
        </g>
    </g>
</svg>