<svg xmlns="http://www.w3.org/2000/svg" width="20" height="20" viewBox="0 0 20 19">
  <path fill="#28816D" fill-rule="evenodd" d="M6.21819363,11.4002164 C6.98137648,11.4002164 7.60002757,12.0188584 7.60002757,12.7816619 L7.60002757,17.6181137 C7.60002757,18.381358 6.98137648,19 6.21819363,19 L1.38183393,19 C0.618651085,19 1.78523862e-13,18.381358 1.78523862e-13,17.6181137 L1.78523862e-13,12.7816619 C1.78523862e-13,12.0188584 0.618651085,11.4002164 1.38183393,11.4002164 L6.21819363,11.4002164 Z M17.6181661,11.4002164 C18.3813686,11.4002164 19,12.0188584 19,12.7816619 L19,17.6181137 C19,18.381358 18.3813686,19 17.6181661,19 L12.7818064,19 C12.0186235,19 11.3999724,18.381358 11.3999724,17.6181137 L11.3999724,12.7816619 C11.3999724,12.0188584 12.0186235,11.4002164 12.7818064,11.4002164 L17.6181661,11.4002164 Z M16.9273082,13.4727153 L13.4727824,13.4727153 L13.4727824,16.9270804 L16.9273082,16.9270804 L16.9273082,13.4727153 Z M5.52721759,13.4727153 L2.07269183,13.4727153 L2.07269183,16.9270804 L5.52721759,16.9270804 L5.52721759,13.4727153 Z M6.21819363,-8.8817842e-15 C6.98137648,-8.8817842e-15 7.60002757,0.618642021 7.60002757,1.38188631 L7.60002757,6.2183381 C7.60002757,6.98158239 6.98137648,7.60022441 6.21819363,7.60022441 L1.38183393,7.60022441 C0.618651085,7.60022441 1.78523862e-13,6.98158239 1.78523862e-13,6.2183381 L1.78523862e-13,1.38188631 C1.78523862e-13,0.618642021 0.618651085,-8.8817842e-15 1.38183393,-8.8817842e-15 L6.21819363,-8.8817842e-15 Z M17.6181661,-8.8817842e-15 C18.3813686,-8.8817842e-15 19,0.618642021 19,1.38188631 L19,6.2183381 C19,6.98158239 18.3813686,7.60022441 17.6181661,7.60022441 L12.7818064,7.60022441 C12.0186235,7.60022441 11.3999724,6.98158239 11.3999724,6.2183381 L11.3999724,1.38188631 C11.3999724,0.618642021 12.0186235,-8.8817842e-15 12.7818064,-8.8817842e-15 L17.6181661,-8.8817842e-15 Z M16.9273082,2.07271926 L13.4727824,2.07271926 L13.4727824,5.52730479 L16.9273082,5.52730479 L16.9273082,2.07271926 Z" transform="translate(.5)"/>
</svg>
