<svg xmlns="http://www.w3.org/2000/svg" width="14" height="15" viewBox="0 0 14 15">
  <defs>
    <linearGradient id="ic_logout-a" x1="50%" x2="50%" y1="0%" y2="100%">
      <stop offset="0%" stop-color="#B3CF38"/>
      <stop offset="100%" stop-color="#104233"/>
    </linearGradient>
    <linearGradient id="ic_logout-b" x1="50%" x2="50%" y1="0%" y2="100%">
      <stop offset="0%" stop-color="#ABC837"/>
      <stop offset="100%" stop-color="#184934"/>
    </linearGradient>
  </defs>
  <path fill="url(#ic_logout-a)" stroke="url(#ic_logout-b)" stroke-width=".7" d="M6.4375,1 C6.74815,1 7,1.2645697 7,1.59090909 C7,1.91724848 6.74815,2.18181818 6.4375,2.18181818 L6.4375,2.18181818 L2.125,2.18181818 L2.125,12.8181818 L6.4375,12.8181818 C6.74815,12.8181818 7,13.0827515 7,13.4090909 C7,13.7354303 6.74815,14 6.4375,14 L6.4375,14 L1.5625,14 C1.25185,14 1,13.7354303 1,13.4090909 L1,13.4090909 L1,1.59090909 C1,1.2645697 1.25185,1 1.5625,1 L1.5625,1 Z M9.55820358,4.18085815 C9.76909369,3.9396865 10.1110611,3.93972768 10.3218792,4.18089933 L10.3218792,4.18089933 L12.8418324,7.06334734 C13.0527225,7.30456017 13.0527225,7.69565601 12.8418324,7.93682766 L12.8418324,7.93682766 L10.3218792,10.819111 C10.2164702,10.9397174 10.0782648,11 9.9400594,11 C9.80185402,11 9.66364864,10.9397174 9.55820358,10.819111 C9.34731347,10.5778981 9.34731347,10.1868435 9.55820358,9.94563064 L9.55820358,9.94563064 L11.1563316,8.1177167 L4.5400054,8.1177167 C4.24177842,8.1177167 4,7.8411743 4,7.50006691 C4,7.15895953 4.24177842,6.88241713 4.5400054,6.88241713 L4.5400054,6.88241713 L11.1564036,6.88241713 L9.55820358,5.05433848 C9.34731347,4.81312565 9.34734947,4.42207098 9.55820358,4.18085815 Z"/>
</svg>
