<svg xmlns="http://www.w3.org/2000/svg" width="24" height="20" viewBox="0 0 24 21">
  <path fill="#28816D" fill-rule="evenodd" d="M4.5678073,11.3556438 L4.82135882,11.8638565 C4.91475132,12.0495061 5.00860576,12.234304 5.10241976,12.4169736 C3.28853833,13.0882756 2.15620701,14.0430824 2.15620701,15.1022643 C2.15620701,17.138117 6.33956691,18.7881425 11.5,18.7881425 C16.6604568,18.7881425 20.843793,17.138117 20.843793,15.1022643 C20.843793,14.1195813 19.8691247,13.226741 18.2803616,12.5659648 C18.6295455,12.0152201 18.9958905,11.4094035 19.3393352,10.7867344 C21.5914629,11.8635507 23,13.3985543 23,15.1022643 C23,18.3593633 17.8513077,21 11.5,21 C5.14869227,21 -1.02140518e-13,18.3593633 -1.02140518e-13,15.1022643 C-1.02140518e-13,13.2721785 1.62524896,11.6367554 4.17590492,10.5549464 C4.30359469,10.8186209 4.43474221,11.0868087 4.5678073,11.3556438 Z M11.7515381,-8.49320614e-15 C14.9261839,-8.49320614e-15 17.499273,2.63643933 17.499273,5.8874708 C17.499273,6.34471778 17.4487282,6.78961202 17.3518842,7.21723853 L17.3518842,7.21723853 C16.654788,10.3695133 14.8723422,13.0934875 12.434569,14.9652533 C12.3726155,15.0124024 12.3106856,15.0593124 12.2481865,15.1062441 C12.1034543,15.190495 11.9359282,15.2390578 11.7576339,15.2390578 C11.5347955,15.2390578 11.3290347,15.1641149 11.1641415,15.0373689 C8.65632664,13.1471827 6.83009589,10.3646201 6.13167143,7.14675399 L6.13167143,7.14675399 C6.04958059,6.7398966 6.00458598,6.31975133 6.00458598,5.8874708 C6.00458598,2.63643933 8.57755643,-8.49320614e-15 11.7515381,-8.49320614e-15 Z M11.7515381,3.1896375 C10.2981673,3.1896375 9.11863021,4.39803089 9.11863021,5.8874708 C9.11863021,7.37712818 10.2981673,8.58482564 11.7515381,8.58482564 C13.2063321,8.58482564 14.3851101,7.37712818 14.3851101,5.8874708 C14.3851101,4.39803089 13.2063321,3.1896375 11.7515381,3.1896375 Z" transform="translate(.5)"/>
</svg>
