<svg xmlns="http://www.w3.org/2000/svg" width="18" height="19" viewBox="0 0 18 19">
  <path fill="#fff" stroke="#ccc" stroke-width=".648" d="M2.27448 0C1.0206 0 0 1.0206 0 2.27448 0 3.52836 1.0206 4.54896 2.27448 4.54896 3.52836 4.54896 4.54896 3.52836 4.54896 2.27448 4.54896 1.0206 3.52836 0 2.27448 0zM2.27448 3.830895C1.417905 3.830895.72171 3.1347.72171 2.278125.72171 1.42155 1.417905.725355 2.27448.725355 3.131055.725355 3.82725 1.42155 3.82725 2.278125 3.82725 3.1347 3.131055 3.830895 2.27448 3.830895zM2.27448 6.82344C1.0206 6.82344 0 7.84404 0 9.09792 0 10.3518 1.0206 11.3724 2.27448 11.3724 3.52836 11.3724 4.54896 10.3518 4.54896 9.09792 4.54896 7.84404 3.52836 6.82344 2.27448 6.82344zM2.27448 10.65069C1.417905 10.65069.72171 9.954495.72171 9.09792.72171 8.241345 1.417905 7.54515 2.27448 7.54515 3.131055 7.54515 3.82725 8.241345 3.82725 9.09792 3.82725 9.954495 3.131055 10.65069 2.27448 10.65069zM2.27448 12.88872C1.0206 12.88872 0 13.90932 0 15.1632 0 16.41708 1.0206 17.43768 2.27448 17.43768 3.52836 17.43768 4.54896 16.41708 4.54896 15.1632 4.54896 13.90932 3.52836 12.88872 2.27448 12.88872zM2.27448 16.719615C1.417905 16.719615.72171 16.02342.72171 15.166845.72171 14.31027 1.417905 13.614075 2.27448 13.614075 3.131055 13.614075 3.82725 14.31027 3.82725 15.166845 3.82725 16.019775 3.131055 16.719615 2.27448 16.719615zM15.92136 1.8954C15.92136 1.6848 15.7729877 1.51632 15.5875223 1.51632L7.15727769 1.51632C6.97181231 1.51632 6.82344 1.6848 6.82344 1.8954 6.82344 2.106 6.97181231 2.27448 7.15727769 2.27448L15.5875223 2.27448C15.7729877 2.27448 15.92136 2.106 15.92136 1.8954zM6.39911769 8.33976C6.21365231 8.33976 6.06528 8.50824 6.06528 8.71884 6.06528 8.92944 6.21365231 9.09792 6.39911769 9.09792L14.8293623 9.09792C15.0148277 9.09792 15.1632 8.92944 15.1632 8.71884 15.1632 8.50824 15.0148277 8.33976 14.8293623 8.33976L6.39911769 8.33976 6.39911769 8.33976zM15.1632 15.54228C15.1632 15.33168 15.0148277 15.1632 14.8293623 15.1632L6.39911769 15.1632C6.21365231 15.1632 6.06528 15.33168 6.06528 15.54228 6.06528 15.75288 6.21365231 15.92136 6.39911769 15.92136L14.8293623 15.92136C15.0148277 15.92136 15.1632 15.75288 15.1632 15.54228z" transform="translate(1.5 1)"/>
</svg>
