<svg xmlns="http://www.w3.org/2000/svg" width="35" height="28" viewBox="0 0 35 28">
  <g fill="none">
    <path fill="#28816D" d="M2.20979,6.06398217 C2.42026989,6.01538441 11.0049455,-0.350801534 13.1011044,0.0169295171 C14.9615234,0.3432803 12.8697445,4.19802074 11.8222051,5.93442824 C12.9355098,6.04741909 14.1181031,6.17039798 15.2864502,6.29359478 L16.0623209,6.37565104 C19.0213737,6.68950181 21.7661517,6.99059627 22.9024593,7.115871 C23.1978992,7.14846999 23.4009391,7.42562156 23.3430391,7.71780956 C23.3441191,7.71684723 30.1398948,2.22705637 33.2696132,2.10159235 C36.3995116,1.97612834 34.2881135,7.19694746 32.4423344,10.5756945 C31.0645551,13.097846 27.8535368,16.5604963 24.9117383,18.4892499 C25.0284982,18.6853852 25.1328982,18.8590861 25.2163582,18.9971205 C25.3458381,19.2112394 25.2997581,19.4865264 25.1082382,19.647296 C23.3089591,21.1583374 14.6291836,28.1784278 9.7907861,27.2083973 C7.31626737,26.7123153 5.33314839,25.1702386 3.82108917,23.32605 C5.22454845,23.7489347 7.08826749,24.211696 8.52682675,24.211696 C11.0342255,24.211696 17.2646822,21.6602536 24.1275987,17.1422861 C24.2042187,17.2772531 24.2799386,17.4092129 24.3549386,17.5391277 C26.3789176,16.2106887 29.9807757,13.4192648 32.6028343,9.00444722 C36.2743525,2.82254783 34.1008528,2.38590126 33.2696132,2.56940592 C30.9480944,3.08196791 26.0630177,5.80854321 23.0823393,9.12985109 C23.0465193,9.33897783 23.0103993,9.55712642 22.9748193,9.78249251 C21.3660801,9.58175009 18.1116082,9.18328724 14.7963432,8.8222247 L13.8488395,8.72028478 C10.3786342,8.35172606 7.00737286,8.04879023 5.55736828,8.08181158 C3.86794915,8.12030485 1.81223021,8.72964134 0.126291076,9.35479616 C0.170331053,8.74167049 0.219591028,8.18622458 0.264411005,7.73591343 C0.338090967,6.99606069 0.867350694,6.38696479 1.58825032,6.21163996 C1.78061022,6.16484657 1.99055012,6.11492561 2.20979,6.06398217 Z M13.1938285,0.770236729 C12.8740372,-0.246048785 10.3979927,1.16859137 8.0211487,2.82132969 L7.60319449,3.11501466 C6.28584122,4.05001708 5.04089851,5.01909225 4.26196895,5.63956655 C4.94734776,5.51853362 5.58636673,5.43408242 6.03739709,5.43402332 C6.53567656,5.43402332 8.38070376,5.59973442 10.6867803,5.82803043 C11.8250272,4.52970401 13.6359663,2.17535344 13.1938285,0.770236729 Z"/>
    <path stroke="#28816D" stroke-width=".9" d="M5.39680836,9.03469011 C8.0878691,9.03469011 17.7929053,10.8382105 22.2700656,11.696699 C22.147179,12.963499 22.1442206,14.1293646 22.3738281,14.704749 C22.5262585,15.0865989 22.7682512,15.5817407 23.0464576,16.111149 C19.9381055,18.258035 12.1922792,23.2790866 8.40634681,23.2790866 C6.31895191,23.2790866 4.49224098,22.5303312 3.10981171,21.5883357 C1.96350116,19.8217537 1.20859542,17.9638708 0.835303218,16.5918073 C0.398472877,14.9864306 0.401381198,12.5304782 0.508876397,10.4576279 C1.94629739,9.73740695 3.75423496,9.03469011 5.39680836,9.03469011 Z"/>
  </g>
</svg>
