<svg xmlns="http://www.w3.org/2000/svg" width="48" height="48" viewBox="0 0 48 48">
  <path fill="#CCC" fill-rule="evenodd" d="M20.7413789,15.7086211 C19.4180256,14.3853152 17.842892,13.405674 16.1243314,12.8126496 C17.9649615,11.5449205 19.1742188,9.42327422 19.1742188,7.02421875 C19.1742188,3.15107402 16.0231447,0 12.15,0 C8.27685527,0 5.12578125,3.15107402 5.12578125,7.02421875 C5.12578125,9.42327422 6.33503848,11.5449205 8.17571602,12.8126496 C6.45715547,13.405674 4.88202188,14.3853152 3.55866855,15.7086211 C1.2638373,18.0034998 0,21.0546211 0,24.3 L1.8984375,24.3 C1.8984375,18.64726 6.49725996,14.0484375 12.15,14.0484375 C17.80274,14.0484375 22.4015625,18.64726 22.4015625,24.3 L24.3,24.3 C24.3,21.0546211 23.0361627,18.0034998 20.7413789,15.7086211 Z M12.15,12.15 C9.32365371,12.15 7.02421875,9.8506125 7.02421875,7.02421875 C7.02421875,4.197825 9.32365371,1.8984375 12.15,1.8984375 C14.9763463,1.8984375 17.2757813,4.197825 17.2757813,7.02421875 C17.2757813,9.8506125 14.9763463,12.15 12.15,12.15 Z" transform="translate(12 12)"/>
</svg>
