<svg xmlns="http://www.w3.org/2000/svg" width="48" height="48" viewBox="0 0 48 48">
  <path fill="#CCC" fill-rule="evenodd" d="M24.500013,12 C25.3630123,12 26.0625732,12.6995201 26.0625732,13.5626378 L26.062,22.937 L35.437596,22.9378536 C36.3004651,22.9378536 37,23.6373737 37,24.4998273 C37,25.3629451 36.3004651,26.0624651 35.437596,26.0624651 L26.062,26.062 L26.0625732,35.437681 C26.0625732,36.3007987 25.3630123,37 24.500013,37 C23.6371439,37 22.9374528,36.3007987 22.9374528,35.437681 L22.937,26.062 L13.562404,26.0624651 C12.6995609,26.0624651 12,25.3629451 12,24.4998273 C12,23.6373737 12.6995609,22.9378536 13.562404,22.9378536 L22.937,22.937 L22.9374528,13.5626378 C22.9374528,12.6995201 23.6371439,12 24.500013,12 Z"/>
</svg>
