<svg id="nnavIcon" xmlns="http://www.w3.org/2000/svg" width="48" height="48" viewBox="0 0 48 48">
  <path fill="#CCC" fill-rule="evenodd" d="M24.5000128,11 C31.4035526,11 37,16.8202701 37,23.9998099 C37,31.1797299 31.4035526,37 24.5000128,37 C17.5963707,37 12,31.1797299 12,23.9998099 C12,16.8202701 17.5963707,11 24.5000128,11 Z M24.5000128,13.1665761 C18.7469862,13.1665761 14.0833184,18.0167153 14.0833184,23.9998099 C14.0833184,29.9829317 18.7469862,34.8334239 24.5000128,34.8334239 C30.2529371,34.8334239 34.9166816,29.9829317 34.9166816,23.9998099 C34.9166816,18.0167153 30.2529371,13.1665761 24.5000128,13.1665761 Z M27.9069326,20.122463 C28.1370864,20.037249 28.3166912,20.2186479 28.2324088,20.4608752 L28.2324088,20.4608752 L28.1870668,20.5908215 C27.9027466,21.405248 26.5906595,25.1598367 26.5198511,25.3603287 C26.4776787,25.4796923 26.3984184,25.5613413 26.3111044,25.6024934 L26.2888572,25.6100466 C26.2676396,25.6644689 26.2358133,25.715455 26.1933782,25.7595692 C26.1509176,25.8037241 26.1018668,25.8368402 26.0495209,25.8589177 L26.0423005,25.8819539 C26.0027208,25.9727306 25.9241698,26.0550876 25.8093286,26.0988503 C25.6023793,26.1780629 21.4527881,27.7463215 21.0983829,27.8800081 C20.8655969,27.9680463 20.6913844,27.7809991 20.7729068,27.541596 C20.8638847,27.274793 22.3759076,22.9410976 22.4893234,22.6313345 C22.5304203,22.5188889 22.6180531,22.4307741 22.714723,22.3899687 C22.7367669,22.3381397 22.7687384,22.2867834 22.8114518,22.2423589 C22.8536077,22.198454 22.9022783,22.1654532 22.9542282,22.1433563 C22.9923568,22.0413653 23.0770871,21.9501064 23.1853047,21.907314 C23.4831808,21.7895677 27.6502521,20.2168828 27.9069326,20.122463 Z"/>
</svg>
