<svg xmlns="http://www.w3.org/2000/svg" width="48" height="48" viewBox="0 0 48 48">
  <path fill="#CCC" d="M32.5652655,11 L16.4347345,11 C14.5407965,11 13,12.5376562 13,14.4277344 L13,37 L21.8285398,32.5947266 L30.6570796,37 L30.6570796,24.7617188 L36,24.7617188 L36,14.4277344 C36,12.5376562 34.4592035,11 32.5652655,11 Z M29.130531,14.4277344 L29.130531,34.5350273 L21.8285398,30.8914727 L14.5265487,34.5350273 L14.5265487,14.4277344 C14.5265487,13.3776797 15.3825354,12.5234375 16.4347345,12.5234375 L29.7106195,12.5234375 C29.3444004,13.0684219 29.130531,13.7237031 29.130531,14.4277344 Z M34.4734513,23.2382812 L30.6570796,23.2382812 L30.6570796,14.4277344 C30.6570796,13.3776797 31.5130664,12.5234375 32.5652655,12.5234375 C33.6174646,12.5234375 34.4734513,13.3776797 34.4734513,14.4277344 L34.4734513,23.2382812 Z"/>
</svg>
