<?xml version="1.0" encoding="UTF-8"?>
<svg width="52px" height="52px" viewBox="0 0 52 52" version="1.1" xmlns="http://www.w3.org/2000/svg" xmlns:xlink="http://www.w3.org/1999/xlink">
    <title>ic_placeit</title>
    <defs>
        <circle id="path-1" cx="25" cy="25" r="25"></circle>
    </defs>
    <g id="Assets" stroke="none" stroke-width="1" fill="none" fill-rule="evenodd">
        <g id="ic_placeit" transform="translate(1.000000, 1.000000)">
            <mask id="mask-2" fill="white">
                <use xlink:href="#path-1"></use>
            </mask>
            <use id="Mask" stroke="#28816D" xlink:href="#path-1"></use>
            <path d="M43,38.1087304 C43,38.1087304 34.9424832,39.761545 34.9424832,29.0001142 L34.9424832,20.7708941 C34.9424832,20.7708941 33.5206326,15.3901787 27.8330122,19.8213561 C27.5844392,20.0149565 27.380149,20.1643085 27.1701872,20.3194511 L28.8600254,22.165866 C28.8600254,27.5773914 28.8600254,38.1086212 28.8600254,38.1086212 C28.8600254,38.1086212 20.8023996,39.7614358 20.8023996,29 L20.8023996,20.7708941 C20.8023996,20.7708941 19.3804399,15.3901787 13.6929286,19.8213561 C13.4443556,20.0150658 13.2400654,20.1644178 13.0299945,20.3195603 L14.5620069,21.9933519 L14.5620069,37.4085132 C13.6624977,37.699023 12.3029267,37.88432 10.7809489,37.88432 C9.2592983,37.88432 7.89940011,37.699023 7,37.4085132 L7,13.4758069 C7.89940011,13.1850785 9.2592983,13 10.7809489,13 C12.3029267,13 13.6624977,13.1850785 14.5620069,13.4758069 L14.5620069,16.2703396 C16.0870387,14.8471797 18.416906,13.1744808 20.9604436,13.1744808 C24.0724596,13.1744808 26.6865661,14.6037589 27.9781858,16.9837768 C29.4154154,15.484029 32.1112162,13.1744808 35.1004182,13.1744808 C39.5241228,13.1744808 43,16.023204 43,20.4543814 C43,24.8854495 43,38.1087304 43,38.1087304 L43,38.1087304 Z" id="Path" fill="#104233" fill-rule="nonzero" mask="url(#mask-2)"></path>
        </g>
    </g>
</svg>