<svg xmlns="http://www.w3.org/2000/svg" xmlns:xlink="http://www.w3.org/1999/xlink" width="13" height="14" viewBox="0 0 13 14">
  <defs>
    <linearGradient id="ic_preferences-b" x1="50%" x2="50%" y1="0%" y2="100%">
      <stop offset="0%" stop-color="#B3CF38"/>
      <stop offset="100%" stop-color="#104233"/>
    </linearGradient>
    <path id="ic_preferences-a" d="M7.35770089,13.0714286 C7.51953125,13.0714286 7.61997768,12.9933036 7.65904018,12.8370536 C7.73158482,12.5580357 7.8125,12.0390625 7.90178571,11.2801339 C8.1640625,11.1964286 8.41796875,11.0904018 8.66350446,10.9620536 L8.66350446,10.9620536 L9.81863839,11.8660714 C9.89676339,11.9162946 9.96930804,11.9414062 10.0362723,11.9414062 C10.1590402,11.9414062 10.421317,11.7433036 10.8231027,11.3470982 C11.2248884,10.9508929 11.5011161,10.6495536 11.6517857,10.4430804 C11.7020089,10.3872768 11.7271205,10.3231027 11.7271205,10.250558 C11.7271205,10.1780134 11.6992187,10.1082589 11.6434152,10.0412946 C11.2416295,9.55022321 10.9430804,9.16517857 10.7477679,8.88616071 C10.859375,8.6796875 10.968192,8.42578125 11.0742188,8.12444196 L11.0742188,8.12444196 L12.6227679,7.89006696 C12.6897321,7.87890625 12.7455357,7.84263393 12.7901786,7.78125 C12.8348214,7.71986607 12.8571429,7.65569196 12.8571429,7.58872768 L12.8571429,7.58872768 L12.8571429,5.73046875 C12.8571429,5.65792411 12.8348214,5.59235491 12.7901786,5.53376116 C12.7455357,5.47516741 12.686942,5.44029018 12.6143973,5.42912946 L12.6143973,5.42912946 L11.0825893,5.19475446 C10.9988839,4.92689732 10.8844866,4.65345982 10.7393973,4.37444196 C10.8398438,4.23493304 10.9905134,4.03822545 11.1914062,3.7843192 C11.3922991,3.53041295 11.5345982,3.34486607 11.6183036,3.22767857 C11.6629464,3.16629464 11.6852679,3.10212054 11.6852679,3.03515625 C11.6852679,2.95703125 11.6657366,2.89564732 11.6266741,2.85100446 C11.4257813,2.56640625 10.9654018,2.09207589 10.2455357,1.42801339 C10.1785714,1.37220982 10.108817,1.34430804 10.0362723,1.34430804 C9.95256696,1.34430804 9.88560268,1.36941964 9.83537946,1.41964286 L9.83537946,1.41964286 L8.64676339,2.31529018 C8.41796875,2.19810268 8.16685268,2.09486607 7.89341518,2.00558036 L7.89341518,2.00558036 L7.65904018,0.465401786 C7.65345982,0.392857143 7.62137277,0.332868304 7.56277902,0.285435268 C7.50418527,0.238002232 7.43582589,0.214285714 7.35770089,0.214285714 L7.35770089,0.214285714 L5.49944196,0.214285714 C5.33761161,0.214285714 5.23716518,0.292410714 5.19810268,0.448660714 C5.12555804,0.727678571 5.04464286,1.24665179 4.95535714,2.00558036 C4.69308036,2.08928571 4.43917411,2.1953125 4.19363839,2.32366071 L4.19363839,2.32366071 L3.03850446,1.42801339 C2.96595982,1.37220982 2.89341518,1.34430804 2.82087054,1.34430804 C2.69810268,1.34430804 2.4344308,1.5438058 2.02985491,1.94280134 C1.62527902,2.34179688 1.35044643,2.64174107 1.20535714,2.84263393 C1.15513393,2.91517857 1.13002232,2.97935268 1.13002232,3.03515625 C1.13002232,3.10212054 1.15792411,3.16908482 1.21372768,3.23604911 C1.58761161,3.68805804 1.88616071,4.07310268 2.109375,4.39118304 C1.96986607,4.64787946 1.86104911,4.90457589 1.78292411,5.16127232 L1.78292411,5.16127232 L0.226004464,5.39564732 C0.164620536,5.40680804 0.111607143,5.44308036 0.0669642857,5.50446429 C0.0223214286,5.56584821 0,5.63002232 0,5.69698661 L0,5.69698661 L0,7.55524554 C0,7.62779018 0.0223214286,7.69335938 0.0669642857,7.75195312 C0.111607143,7.81054688 0.170200893,7.84542411 0.242745536,7.85658482 L0.242745536,7.85658482 L1.77455357,8.08258929 C1.85267857,8.35602679 1.96707589,8.63225446 2.11774554,8.91127232 C2.01729911,9.05078125 1.86662946,9.24748884 1.66573661,9.50139509 C1.46484375,9.75530134 1.32254464,9.94084821 1.23883929,10.0580357 C1.19419643,10.1194196 1.171875,10.1835938 1.171875,10.250558 C1.171875,10.3231027 1.19140625,10.3872768 1.23046875,10.4430804 C1.44810268,10.7444196 1.90848214,11.2131696 2.61160714,11.8493304 C2.67299107,11.9107143 2.74274554,11.9414062 2.82087054,11.9414062 C2.90457589,11.9414062 2.97433036,11.9162946 3.03013393,11.8660714 L3.03013393,11.8660714 L4.21037946,10.9704241 C4.43917411,11.0876116 4.69029018,11.1908482 4.96372768,11.2801339 L4.96372768,11.2801339 L5.19810268,12.8203125 C5.20368304,12.8928571 5.23577009,12.952846 5.29436384,13.000279 C5.35295759,13.0477121 5.42131696,13.0714286 5.49944196,13.0714286 L5.49944196,13.0714286 L7.35770089,13.0714286 Z M6.42857143,8.78571429 C5.83705357,8.78571429 5.33203125,8.57645089 4.91350446,8.15792411 C4.49497768,7.73939732 4.28571429,7.234375 4.28571429,6.64285714 C4.28571429,6.05133929 4.49497768,5.54631696 4.91350446,5.12779018 C5.33203125,4.70926339 5.83705357,4.5 6.42857143,4.5 C7.02008929,4.5 7.52511161,4.70926339 7.94363839,5.12779018 C8.36216518,5.54631696 8.57142857,6.05133929 8.57142857,6.64285714 C8.57142857,7.234375 8.36216518,7.73939732 7.94363839,8.15792411 C7.52511161,8.57645089 7.02008929,8.78571429 6.42857143,8.78571429 Z"/>
  </defs>
  <g fill="none">
    <use fill="#FFF" xlink:href="#ic_preferences-a"/>
    <use fill="url(#ic_preferences-b)" xlink:href="#ic_preferences-a"/>
  </g>
</svg>
