<svg xmlns="http://www.w3.org/2000/svg" width="32" height="37" viewBox="0 0 32 37">
  <g fill="none" fill-rule="evenodd" transform="translate(1)">
    <path stroke="#28816D" stroke-width=".9" d="M8.94615514,9.11285171 C9.7055298,8.82849956 10.527575,8.8567211 11.2434671,9.14338787 C11.9435714,9.42373267 12.5428747,9.95230746 12.8791406,10.6815468 C13.1550071,11.279985 13.3246553,11.928906 13.4958241,12.5746181 C13.5487684,12.7743431 13.6016714,12.9738485 13.6572985,13.1718312 C14.1411333,14.8925383 14.6145289,16.6162405 15.0722007,18.3439103 C15.2626711,19.0628401 15.4982687,19.4879257 15.844018,19.7504841 C16.1879675,20.0116758 16.659506,20.126791 17.4057045,20.1148325 C17.7183363,20.1098146 18.0309827,20.104409 18.3436378,20.0990031 C19.5833668,20.077568 20.823233,20.0561016 22.0628506,20.0589713 C22.9691331,20.061108 23.8764775,20.1092381 24.7809755,20.1709642 C25.2567433,20.2034295 25.6375874,20.3289583 25.9206912,20.5719001 C26.206437,20.8171092 26.385354,21.1755903 26.4871228,21.6343008 C27.3466576,25.5079146 28.2067855,29.3814099 29.0709941,33.2535495 C28.9779704,33.8995617 28.8132907,34.3436605 28.5656271,34.6370591 C28.3043444,34.9465919 27.9534124,35.0627632 27.5536192,35.1108989 C26.9860092,35.0657341 26.6094141,34.9401032 26.361994,34.7280102 C26.0467847,34.4578071 25.9575459,34.0649204 25.8716367,33.6452835 C25.5035348,31.8476061 25.1084759,30.0555266 24.7133984,28.2634417 C24.4620857,27.1234786 24.2107694,25.9835126 23.9664236,24.8420841 C23.8852239,24.4628055 23.7418972,24.222423 23.5413879,24.0630095 C23.3464859,23.9080541 23.0817215,23.8169507 22.6847648,23.8198477 C19.3362776,23.8449043 15.9870698,23.8545115 12.6390444,23.812552 C12.0310034,23.8047943 11.4019349,23.6307416 10.8270903,23.4162414 C10.1650724,23.169239 9.69319315,22.6604834 9.49472803,21.9701117 C8.62721087,18.9523422 7.76484878,15.9328965 6.93757607,12.9041286 C6.72050045,12.1091362 6.82532699,11.3140108 7.1789944,10.643597 C7.53895974,9.96124479 8.15516747,9.40915309 8.94615514,9.11285171 Z"/>
    <path stroke="#28816D" stroke-width=".9" d="M16.0702295,30.0248281 C14.4948961,30.0239881 12.9186013,30.0563869 11.3442294,30.0149884 C9.76072369,29.97335 8.2120705,29.7090001 6.80018337,28.9321496 C5.65365602,28.3012137 4.85493267,27.400288 4.51349827,26.0908978 C3.05942758,20.5137501 1.5773547,14.9440422 0.107059573,9.37133432 C-0.165751442,8.33745368 0.079297747,7.672439 0.882708157,7.24057544 C2.13607647,6.5666811 3.15473116,6.9763455 3.56791366,8.35341308 C5.08171434,13.399701 6.57808876,18.4511487 8.09345179,23.4970766 C8.58162727,25.1226547 9.22026944,25.5749175 10.9120583,25.5750375 C14.0827953,25.5752774 17.2536525,25.5810372 20.4242693,25.5716776 C21.3267089,25.5689177 22.1483868,25.8065086 22.5139776,26.6659159 C22.919108,27.6180797 22.8855775,28.6474005 22.2225385,29.4955282 C21.9944349,29.7873571 21.4839057,29.9896694 21.0949998,30.0023889 C19.4215987,30.0568668 17.7453132,30.025548 16.0702295,30.0248281"/>
    <circle cx="8.85" cy="3.75" r="3.3" stroke="#28816D" stroke-width=".9"/>
  </g>
</svg>
