<svg xmlns="http://www.w3.org/2000/svg" width="20" height="20" viewBox="0 0 18 18">
  <path fill="#28816D" d="M15.3740571,17.5142857 C15.7145333,17.5142857 16.0091762,17.389881 16.2579857,17.1410714 C16.5067952,16.8922619 16.6312,16.597619 16.6312,16.2571429 C16.6312,15.910119 16.510069,15.6154762 16.2678071,15.3732143 L16.2678071,15.3732143 L12.8990571,12.0044643 C13.7109619,10.8324405 14.1169143,9.52619048 14.1169143,8.08571429 C14.1169143,7.14940476 13.9352179,6.25401786 13.571825,5.39955357 C13.2084321,4.54508929 12.7173607,3.80848214 12.0986107,3.18973214 C11.4798607,2.57098214 10.7432536,2.07991071 9.88878928,1.71651786 C9.034325,1.353125 8.13893809,1.17142857 7.20262857,1.17142857 C6.26631905,1.17142857 5.37093214,1.353125 4.51646786,1.71651786 C3.66200357,2.07991071 2.92539643,2.57098214 2.30664643,3.18973214 C1.68789643,3.80848214 1.196825,4.54508929 0.833432142,5.39955357 C0.470039285,6.25401786 0.288342856,7.14940476 0.288342856,8.08571429 C0.288342856,9.02202381 0.470039285,9.91741071 0.833432142,10.771875 C1.196825,11.6263393 1.68789643,12.3629464 2.30664643,12.9816964 C2.92539643,13.6004464 3.66200357,14.0915179 4.51646786,14.4549107 C5.37093214,14.8183036 6.26631905,15 7.20262857,15 C8.64310476,15 9.94935476,14.5940476 11.1213786,13.7821429 L11.1213786,13.7821429 L14.4901286,17.1410714 C14.7258429,17.389881 15.0204857,17.5142857 15.3740571,17.5142857 Z M7.20262857,12.4857143 C5.99131905,12.4857143 4.95515833,12.0552083 4.09414643,11.1941964 C3.23313452,10.3331845 2.80262857,9.29702381 2.80262857,8.08571429 C2.80262857,6.87440476 3.23313452,5.83824405 4.09414643,4.97723214 C4.95515833,4.11622024 5.99131905,3.68571429 7.20262857,3.68571429 C8.41393809,3.68571429 9.45009881,4.11622024 10.3111107,4.97723214 C11.1721226,5.83824405 11.6026286,6.87440476 11.6026286,8.08571429 C11.6026286,9.29702381 11.1704857,10.3348214 10.3062,11.1991071 C9.4484619,12.0568452 8.41393809,12.4857143 7.20262857,12.4857143 Z" transform="translate(.5)"/>
</svg>
