<svg xmlns="http://www.w3.org/2000/svg" width="18" height="15" viewBox="0 0 18 15">
  <path fill="#28816D" fill-rule="evenodd" d="M15.428574,5.865015 C16.521012,5.865015 17.406576,6.684075 17.406576,7.694235 L17.406576,11.015715 C17.406576,11.1245625 17.3962943,11.2311911 17.3765801,11.3348152 L17.406576,11.32707 L17.406576,14.211135 L17.406576,14.211135 C17.406576,14.545665 17.10774,14.817045 16.739064,14.817045 C16.5064075,14.817045 16.3015745,14.7090139 16.1820713,14.5452515 L14.132,12.843955 L8.029548,12.84495 C6.937092,12.84495 6.051528,12.02589 6.051528,11.015715 L6.051,8.619955 L7.565,8.619955 L7.565958,10.81554 C7.565958,11.18602 7.86360287,11.492244 8.24980084,11.5407085 L8.357166,11.54739 L14.826,11.546955 L14.735502,11.63058 L16.071048,12.8445 L16.0727519,10.9380626 C16.0800122,10.8982224 16.083792,10.8572892 16.083792,10.81554 L16.083792,10.81554 L16.083792,7.97457 C16.083792,7.570305 15.72957,7.24272 15.292566,7.24272 L15.292566,7.24272 L12.863,7.241955 L12.863,5.864955 L15.428574,5.865015 Z M9.3771,0.182955 C10.469538,0.182955 11.355102,1.002015 11.355102,2.01219 L11.355102,5.33916 C11.355102,6.349545 10.469538,7.168395 9.3771,7.168395 L3.268,7.167955 L1.21923231,8.8691161 C1.09902756,9.02963259 0.896807864,9.134985 0.667584,9.134985 C0.298908,9.134985 -9.39248679e-14,8.862375 -9.39248679e-14,8.52606 L-9.39248679e-14,5.64558 L0.0289048588,5.65251468 C0.00990247865,5.55069923 -9.39248679e-14,5.44600043 -9.39248679e-14,5.33916 L-9.39248679e-14,2.01219 C-9.39248679e-14,1.002015 0.885618,0.182955 1.978056,0.182955 L9.3771,0.182955 Z M9.049464,1.560675 L2.11401,1.560675 C1.677078,1.560675 1.322856,1.88826 1.322856,2.292195 L1.322856,2.292195 L1.322856,5.13327 C1.322856,5.17510411 1.32665116,5.21611778 1.33394037,5.25603266 L1.335528,7.16301 L2.671074,5.94909 L2.579,5.864955 L9.049464,5.865015 C9.4500345,5.865015 9.78106025,5.5897526 9.83344947,5.23256943 L9.840672,5.13327 L9.840672,2.292195 C9.840672,1.88826 9.48645,1.560675 9.049464,1.560675 L9.049464,1.560675 Z"/>
</svg>
