<svg xmlns="http://www.w3.org/2000/svg" width="17" height="33" viewBox="0 0 17 33">
  <g fill="#28816D" stroke="#FFF" stroke-width=".72">
    <path d="M8.070768,0.36 C9.56563967,0.36 10.9158488,0.965037672 11.8926747,1.94353523 C12.8097853,2.86221538 13.3977268,4.10996978 13.467637,5.49497729 L13.474656,5.773752 L13.474656,18.6590852 C14.9010799,20.0632717 15.805152,22.0141709 15.805152,24.178176 C15.805152,26.3084483 14.940268,28.237824 13.5426042,29.6346659 C12.1448248,31.0316236 10.21415,31.896 8.082576,31.896 C5.95019685,31.896 4.01971796,31.0318782 2.6222417,29.6352236 C1.22454009,28.2383437 0.36,26.3087435 0.36,24.178176 C0.36,22.1268799 1.1711977,20.1738245 2.47443932,18.7846324 L2.673576,18.5805408 L2.673576,5.672448 C2.673576,4.18556364 3.26960998,2.86204611 4.23755865,1.90834533 C5.21480122,0.945487461 6.56999012,0.36 8.070768,0.36 Z M8.070768,1.944 C7.00281389,1.944 6.05164416,2.35410735 5.36668632,3.0222558 C4.67852203,3.69353201 4.257576,4.62608388 4.257576,5.672448 L4.257576,5.672448 L4.257576,19.222853 L3.70561013,19.7890341 L3.51576845,19.9936869 C2.52824836,21.1122549 1.944,22.6549625 1.944,24.178176 C1.944,25.8692687 2.63235928,27.4028263 3.74400639,28.5135593 C4.85560073,29.6242395 6.39032599,30.312 8.082576,30.312 C9.77504376,30.312 11.3096732,29.6242844 12.4211578,28.5137 C13.5328123,27.4029458 14.22108,25.8693198 14.22108,24.178176 C14.22108,22.5702568 13.5913327,21.0401653 12.4460181,19.8706091 L12.4460181,19.8706091 L11.890656,19.3037643 L11.890656,5.773752 L11.884163,5.54907786 C11.8281509,4.58253932 11.4131355,3.7110425 10.7710874,3.06716394 C10.0793128,2.37341713 9.12412328,1.944 8.070768,1.944 Z"/>
    <path d="M8.874576,10.727928 L8.874576,21.0789621 C9.96985263,21.7136337 11.178576,22.389885 11.178576,24.178104 C11.178576,25.0316574 10.831219,25.8055891 10.2706274,26.3661808 C9.71006819,26.9267399 8.93617633,27.274104 8.082576,27.274104 C7.22897567,27.274104 6.45508381,26.9267399 5.89452464,26.3661808 C5.33393302,25.8055891 4.986576,25.0316574 4.986576,24.178104 C4.986576,22.3897486 6.19529947,21.7135894 7.290576,21.0791413 L7.290576,21.0791413 L7.290576,10.727928 L8.874576,10.727928 Z"/>
  </g>
</svg>
