<?xml version="1.0" encoding="UTF-8"?>
<svg width="207px" height="40px" viewBox="0 0 207 40" version="1.1" xmlns="http://www.w3.org/2000/svg" xmlns:xlink="http://www.w3.org/1999/xlink">
    <title>uberBtn</title>
    <g id="Assets" stroke="none" stroke-width="1" fill="none" fill-rule="evenodd">
        <g id="uberBtn">
            <rect id="Rectangle" fill="#000000" x="4.26325641e-14" y="0" width="206.4" height="40" rx="4"></rect>
            <path d="M57.1232,25.7928 C57.2864,25.8264 57.4496,25.8264 57.6128,25.7928 C57.776,25.7592 57.9104,25.68 58.016,25.5552 C58.1792,25.3728 58.2344,25.164 58.1816,24.9288 C58.1288,24.6936 57.9968,24.5136 57.7856,24.3888 C57.6608,24.3216 57.5768,24.2256 57.5336,24.1008 C57.4904,23.976 57.4616,23.8224 57.4472,23.64 C57.4328,23.4576 57.4064,23.2464 57.368,23.0064 C57.3488,22.7472 57.2888,22.5048 57.188,22.2792 C57.0872,22.0536 56.948,21.8424 56.7704,21.6456 C56.6816,21.5472 56.5814,21.4554 56.4698,21.3702 L56.371,21.303 L56.451584,21.251328 C56.56832,21.16992 56.680064,21.078528 56.786816,20.977152 L56.9432,20.8176 C57.1976,20.5392 57.3992,20.2272 57.548,19.8816 C57.6968,19.536 57.7712,19.1808 57.7712,18.816 C57.7712,18.2112 57.6368,17.676 57.368,17.2104 C57.0992,16.7448 56.7464,16.38 56.3096,16.116 C55.8728,15.852 55.4048,15.72 54.9056,15.72 L54.9056,15.72 L50.7584,15.72 C50.5088,15.72 50.3,15.804 50.132,15.972 C49.964,16.14 49.88,16.3488 49.88,16.5984 L49.88,16.5984 L49.88,24.9216 C49.88,25.1712 49.9856,25.38 50.1968,25.548 C50.408,25.716 50.648,25.8 50.9168,25.8 C51.1568,25.8 51.344,25.716 51.4784,25.548 C51.6128,25.38 51.68,25.1712 51.68,24.9216 L51.68,24.9216 L51.68,22.129 L54.3728,22.128 C54.5384,22.128 54.6878,22.14285 54.821,22.17255 L54.9488,22.2072 C55.112,22.26 55.2464,22.3368 55.352,22.4376 C55.4576,22.5384 55.5392,22.6584 55.5968,22.7976 C55.6544,22.9368 55.6832,23.088 55.6832,23.2512 C55.6832,23.7504 55.7336,24.1584 55.8344,24.4752 C55.9352,24.792 56.0672,25.044 56.2304,25.2312 C56.3936,25.4184 56.5568,25.56 56.72,25.656 C56.8256,25.7136 56.96,25.7592 57.1232,25.7928 Z M51.68,17.377 L54.8336,17.376 C55.0928,17.376 55.3352,17.5176 55.5608,17.8008 C55.7864,18.084 55.8992,18.4368 55.8992,18.8592 C55.8992,19.1856 55.8464,19.4856 55.7408,19.7592 C55.6352,20.0328 55.5008,20.2488 55.3376,20.4072 C55.1744,20.5656 55.0064,20.6448 54.8336,20.6448 L54.8336,20.6448 L51.68,20.645 L51.68,17.377 Z M60.4434286,17.16 C60.7698286,17.16 61.0050286,17.1096 61.1490286,17.0088 C61.2930286,16.908 61.3650286,16.7184 61.3650286,16.44 L61.3650286,16.44 L61.3650286,16.1664 C61.3650286,15.8976 61.2978286,15.7104 61.1634286,15.6048 C61.0290286,15.4992 60.7938286,15.4464 60.4578286,15.4464 C60.1506286,15.4464 59.9226286,15.4968 59.7738286,15.5976 C59.6250286,15.6984 59.5506286,15.888 59.5506286,16.1664 L59.5506286,16.1664 L59.5506286,16.44 C59.5506286,16.7088 59.6178286,16.896 59.7522286,17.0016 C59.8866286,17.1072 60.1170286,17.16 60.4434286,17.16 Z M60.4578286,25.8 C60.7074286,25.8 60.9138286,25.716 61.0770286,25.548 C61.2402286,25.38 61.3218286,25.1712 61.3218286,24.9216 L61.3218286,24.9216 L61.3218286,18.9744 C61.3218286,18.7248 61.2402286,18.516 61.0770286,18.348 C60.9138286,18.18 60.7074286,18.096 60.4578286,18.096 C60.2082286,18.096 60.0018286,18.18 59.8386286,18.348 C59.6754286,18.516 59.5938286,18.7248 59.5938286,18.9744 L59.5938286,18.9744 L59.5938286,24.9216 C59.5938286,25.1712 59.6754286,25.38 59.8386286,25.548 C60.0018286,25.716 60.2082286,25.8 60.4578286,25.8 Z M66.2692571,25.944 C66.6340571,25.944 66.9724571,25.884 67.2844571,25.764 C67.5964571,25.644 67.8676571,25.4976 68.0980571,25.3248 C68.2132571,25.2384 68.3164571,25.1514 68.4076571,25.0638 L68.531,24.936 L68.5368571,25.043 C68.5549905,25.2003333 68.6093905,25.3395333 68.7000571,25.4606 L68.7748571,25.548 C68.9380571,25.716 69.1444571,25.8 69.3940571,25.8 C69.6436571,25.8 69.8500571,25.716 70.0132571,25.548 C70.1764571,25.38 70.2580571,25.1712 70.2580571,24.9216 L70.2580571,24.9216 L70.2580571,16.0224 C70.2580571,15.7632 70.1764571,15.552 70.0132571,15.3888 C69.8500571,15.2256 69.6436571,15.144 69.3940571,15.144 C69.1444571,15.144 68.9380571,15.228 68.7748571,15.396 C68.6116571,15.564 68.5300571,15.7728 68.5300571,16.0224 L68.5300571,16.0224 L68.53,18.85 C68.4862621,18.8085173 68.4412571,18.76848 68.3949851,18.729888 L68.2492571,18.6144 C67.9948571,18.4224 67.6948571,18.264 67.3492571,18.1392 C67.0036571,18.0144 66.6244571,17.952 66.2116571,17.952 C65.5684571,17.952 64.9828571,18.1224 64.4548571,18.4632 C63.9268571,18.804 63.5068571,19.2744 63.1948571,19.8744 C62.8828571,20.4744 62.7268571,21.168 62.7268571,21.9552 C62.7268571,22.7328 62.8828571,23.4216 63.1948571,24.0216 C63.5068571,24.6216 63.9316571,25.092 64.4692571,25.4328 C65.0068571,25.7736 65.6068571,25.944 66.2692571,25.944 Z M66.4852571,24.36 C66.0724571,24.36 65.7076571,24.2544 65.3908571,24.0432 C65.0740571,23.832 64.8268571,23.544 64.6492571,23.1792 C64.4716571,22.8144 64.3828571,22.4064 64.3828571,21.9552 C64.3828571,21.4944 64.4716571,21.0816 64.6492571,20.7168 C64.8268571,20.352 65.0740571,20.064 65.3908571,19.8528 C65.7076571,19.6416 66.0724571,19.536 66.4852571,19.536 C66.9076571,19.536 67.2772571,19.6416 67.5940571,19.8528 C67.9108571,20.064 68.1580571,20.352 68.3356571,20.7168 C68.5132571,21.0816 68.6020571,21.4944 68.6020571,21.9552 C68.6020571,22.4064 68.5132571,22.8144 68.3356571,23.1792 C68.1580571,23.544 67.9108571,23.832 67.5940571,24.0432 C67.2772571,24.2544 66.9076571,24.36 66.4852571,24.36 Z M75.7526857,25.944 C76.2326857,25.944 76.6982857,25.8648 77.1494857,25.7064 C77.6006857,25.548 77.9510857,25.3632 78.2006857,25.152 C78.4694857,24.9408 78.6038857,24.7056 78.6038857,24.4464 C78.6038857,24.2544 78.5342857,24.0864 78.3950857,23.9424 C78.2558857,23.7984 78.0806857,23.7264 77.8694857,23.7264 C77.7158857,23.7264 77.5526857,23.7696 77.3798857,23.856 C77.2742857,23.9136 77.1566857,23.9832 77.0270857,24.0648 C76.8974857,24.1464 76.7270857,24.216 76.5158857,24.2736 C76.3046857,24.3312 76.0214857,24.36 75.6662857,24.36 C75.2822857,24.36 74.9198857,24.2664 74.5790857,24.0792 C74.2382857,23.892 73.9598857,23.6184 73.7438857,23.2584 C73.6204571,23.0526857 73.5322939,22.8211102 73.4793959,22.5636735 L73.476,22.546 L78.2294857,22.5456 C78.4138057,22.5456 78.5796937,22.49952 78.7271497,22.40736 L78.8342857,22.3296 C79.0070857,22.1856 79.0982857,21.9984 79.1078857,21.768 C79.1078857,21.2496 79.0094857,20.76 78.8126857,20.2992 C78.6158857,19.8384 78.3494857,19.4328 78.0134857,19.0824 C77.6774857,18.732 77.2910857,18.456 76.8542857,18.2544 C76.4174857,18.0528 75.9542857,17.952 75.4646857,17.952 C74.8310857,17.952 74.2310857,18.1152 73.6646857,18.4416 C73.0982857,18.768 72.6398857,19.236 72.2894857,19.8456 C71.9390857,20.4552 71.7638857,21.192 71.7638857,22.056 C71.7638857,22.7952 71.9246857,23.4576 72.2462857,24.0432 C72.5678857,24.6288 73.0286857,25.092 73.6286857,25.4328 C74.2286857,25.7736 74.9366857,25.944 75.7526857,25.944 Z M77.264,21.106 L73.491,21.106 L73.5298857,20.9348 L73.5298857,20.9348 L73.5782857,20.7744 C73.6838857,20.4672 73.8278857,20.2224 74.0102857,20.04 C74.1926857,19.8576 74.4086857,19.728 74.6582857,19.6512 C74.9078857,19.5744 75.1766857,19.536 75.4646857,19.536 C75.7622857,19.536 76.0430857,19.6008 76.3070857,19.7304 C76.5710857,19.86 76.7918857,20.0352 76.9694857,20.256 C77.1470857,20.4768 77.2454857,20.7264 77.2646857,21.0048 L77.2646857,21.0048 L77.264,21.106 Z M87.5771429,25.8 C87.9131429,25.8 88.2275429,25.7136 88.5203429,25.5408 C88.8131429,25.368 88.9595429,25.1472 88.9595429,24.8784 C88.9595429,24.6576 88.9043429,24.4848 88.7939429,24.36 C88.6835429,24.2352 88.5611429,24.1728 88.4267429,24.1728 C88.3019429,24.1728 88.1915429,24.1944 88.0955429,24.2376 C87.9995429,24.2808 87.8939429,24.3024 87.7787429,24.3024 C87.6731429,24.3024 87.5747429,24.2832 87.4835429,24.2448 C87.3923429,24.2064 87.3203429,24.144 87.2675429,24.0576 C87.2147429,23.9712 87.1883429,23.8608 87.1883429,23.7264 L87.1883429,23.7264 L87.188,19.825 L88.2107429,19.824 C88.3950629,19.824 88.5548069,19.776384 88.6899749,19.681152 L88.7867429,19.6008 C88.9403429,19.452 89.0171429,19.2672 89.0171429,19.0464 C89.0171429,18.816 88.9403429,18.624 88.7867429,18.4704 C88.6331429,18.3168 88.4411429,18.24 88.2107429,18.24 L88.2107429,18.24 L87.188,18.241 L87.1883429,17.3184 C87.1883429,17.1104 87.1333429,16.9307333 87.0233429,16.7794 L86.9507429,16.692 C86.7923429,16.524 86.5883429,16.44 86.3387429,16.44 C86.0891429,16.44 85.8803429,16.524 85.7123429,16.692 C85.5443429,16.86 85.4603429,17.0688 85.4603429,17.3184 L85.4603429,17.3184 L85.46,18.241 L84.7979429,18.24 C84.6136229,18.24 84.4538789,18.287616 84.3187109,18.382848 L84.2219429,18.4632 C84.0683429,18.612 83.9915429,18.7968 83.9915429,19.0176 C83.9915429,19.248 84.0683429,19.44 84.2219429,19.5936 C84.3755429,19.7472 84.5675429,19.824 84.7979429,19.824 L84.7979429,19.824 L85.46,19.825 L85.4603429,23.7984 C85.4603429,24.2016 85.5132408,24.5307429 85.6190367,24.7858286 L85.6763429,24.9072 C85.8203429,25.176 86.0003429,25.3752 86.2163429,25.5048 C86.4323429,25.6344 86.6627429,25.716 86.9075429,25.7496 C87.1523429,25.7832 87.3755429,25.8 87.5771429,25.8 Z M96.3693714,25.8 C96.6189714,25.8 96.8253714,25.716 96.9885714,25.548 C97.1517714,25.38 97.2333714,25.1712 97.2333714,24.9216 L97.2333714,24.9216 L97.2333714,21.2352 C97.2333714,20.6304 97.1661714,20.0808 97.0317714,19.5864 C96.8973714,19.092 96.6501714,18.696 96.2901714,18.3984 C95.9301714,18.1008 95.4045714,17.952 94.7133714,17.952 C94.3965714,17.952 94.1037714,18.0024 93.8349714,18.1032 C93.5661714,18.204 93.3213714,18.336 93.1005714,18.4992 C92.8797714,18.6624 92.6925714,18.8376 92.5389714,19.0248 C92.5005714,19.0716 92.4642714,19.11765 92.4300714,19.16295 L92.394,19.213 L92.3949714,16.0224 C92.3949714,15.8144 92.3383048,15.6347333 92.2249714,15.4834 L92.1501714,15.396 C91.9869714,15.228 91.7805714,15.144 91.5309714,15.144 C91.2813714,15.144 91.0749714,15.228 90.9117714,15.396 C90.7485714,15.564 90.6669714,15.7728 90.6669714,16.0224 L90.6669714,16.0224 L90.6669714,24.9216 C90.6669714,25.1712 90.7485714,25.38 90.9117714,25.548 C91.0749714,25.716 91.2813714,25.8 91.5309714,25.8 C91.7805714,25.8 91.9869714,25.716 92.1501714,25.548 C92.3133714,25.38 92.3949714,25.1712 92.3949714,24.9216 L92.3949714,24.9216 L92.3949714,21.2352 C92.3949714,20.9184 92.4597714,20.6328 92.5893714,20.3784 C92.7189714,20.124 92.9133714,19.92 93.1725714,19.7664 C93.4317714,19.6128 93.7437714,19.536 94.1085714,19.536 C94.4829714,19.536 94.7709714,19.6128 94.9725714,19.7664 C95.1741714,19.92 95.3133714,20.124 95.3901714,20.3784 C95.4669714,20.6328 95.5053714,20.9184 95.5053714,21.2352 L95.5053714,21.2352 L95.5053714,24.9216 C95.5053714,25.1712 95.5869714,25.38 95.7501714,25.548 C95.9133714,25.716 96.1197714,25.8 96.3693714,25.8 Z M102.728,25.944 C103.208,25.944 103.6736,25.8648 104.1248,25.7064 C104.576,25.548 104.9264,25.3632 105.176,25.152 C105.4448,24.9408 105.5792,24.7056 105.5792,24.4464 C105.5792,24.2544 105.5096,24.0864 105.3704,23.9424 C105.2312,23.7984 105.056,23.7264 104.8448,23.7264 C104.6912,23.7264 104.528,23.7696 104.3552,23.856 C104.2496,23.9136 104.132,23.9832 104.0024,24.0648 C103.8728,24.1464 103.7024,24.216 103.4912,24.2736 C103.28,24.3312 102.9968,24.36 102.6416,24.36 C102.2576,24.36 101.8952,24.2664 101.5544,24.0792 C101.2136,23.892 100.9352,23.6184 100.7192,23.2584 C100.595771,23.0526857 100.507608,22.8211102 100.45471,22.5636735 L100.451,22.546 L105.2048,22.5456 C105.38912,22.5456 105.555008,22.49952 105.702464,22.40736 L105.8096,22.3296 C105.9824,22.1856 106.0736,21.9984 106.0832,21.768 C106.0832,21.2496 105.9848,20.76 105.788,20.2992 C105.5912,19.8384 105.3248,19.4328 104.9888,19.0824 C104.6528,18.732 104.2664,18.456 103.8296,18.2544 C103.3928,18.0528 102.9296,17.952 102.44,17.952 C101.8064,17.952 101.2064,18.1152 100.64,18.4416 C100.0736,18.768 99.6152,19.236 99.2648,19.8456 C98.9144,20.4552 98.7392,21.192 98.7392,22.056 C98.7392,22.7952 98.9,23.4576 99.2216,24.0432 C99.5432,24.6288 100.004,25.092 100.604,25.4328 C101.204,25.7736 101.912,25.944 102.728,25.944 Z M104.24,21.106 L100.466,21.106 L100.5052,20.9348 L100.5052,20.9348 L100.5536,20.7744 C100.6592,20.4672 100.8032,20.2224 100.9856,20.04 C101.168,19.8576 101.384,19.728 101.6336,19.6512 C101.8832,19.5744 102.152,19.536 102.44,19.536 C102.7376,19.536 103.0184,19.6008 103.2824,19.7304 C103.5464,19.86 103.7672,20.0352 103.9448,20.256 C104.1224,20.4768 104.2208,20.7264 104.24,21.0048 L104.24,21.0048 L104.24,21.106 Z M108.453029,25.8 C108.702629,25.8 108.909029,25.716 109.072229,25.548 C109.235429,25.38 109.317029,25.1712 109.317029,24.9216 L109.317029,24.9216 L109.317029,21.5088 C109.317029,21.1632 109.362629,20.8632 109.453829,20.6088 C109.545029,20.3544 109.665029,20.1408 109.813829,19.968 C109.962629,19.7952 110.125829,19.668 110.303429,19.5864 C110.481029,19.5048 110.656229,19.464 110.829029,19.464 C111.021029,19.464 111.191429,19.4976 111.340229,19.5648 C111.489029,19.632 111.654629,19.6656 111.837029,19.6656 C112.029029,19.6656 112.206629,19.596 112.369829,19.4568 C112.533029,19.3176 112.614629,19.0896 112.614629,18.7728 C112.614629,18.552 112.516229,18.36 112.319429,18.1968 C112.122629,18.0336 111.880229,17.952 111.592229,17.952 C111.352229,17.952 111.112229,17.9808 110.872229,18.0384 C110.632229,18.096 110.406629,18.1848 110.195429,18.3048 C109.984229,18.4248 109.794629,18.5736 109.626629,18.7512 C109.542629,18.84 109.466429,18.9354 109.398029,19.0374 L109.317,19.17 L109.317029,18.9744 C109.317029,18.7664 109.260362,18.5867333 109.147029,18.4354 L109.072229,18.348 C108.909029,18.18 108.702629,18.096 108.453029,18.096 C108.203429,18.096 107.997029,18.18 107.833829,18.348 C107.670629,18.516 107.589029,18.7248 107.589029,18.9744 L107.589029,18.9744 L107.589029,24.9216 C107.589029,25.1712 107.670629,25.38 107.833829,25.548 C107.997029,25.716 108.203429,25.8 108.453029,25.8 Z M117.144457,25.944 C117.624457,25.944 118.090057,25.8648 118.541257,25.7064 C118.992457,25.548 119.342857,25.3632 119.592457,25.152 C119.861257,24.9408 119.995657,24.7056 119.995657,24.4464 C119.995657,24.2544 119.926057,24.0864 119.786857,23.9424 C119.647657,23.7984 119.472457,23.7264 119.261257,23.7264 C119.107657,23.7264 118.944457,23.7696 118.771657,23.856 C118.666057,23.9136 118.548457,23.9832 118.418857,24.0648 C118.289257,24.1464 118.118857,24.216 117.907657,24.2736 C117.696457,24.3312 117.413257,24.36 117.058057,24.36 C116.674057,24.36 116.311657,24.2664 115.970857,24.0792 C115.630057,23.892 115.351657,23.6184 115.135657,23.2584 C115.012229,23.0526857 114.924065,22.8211102 114.871167,22.5636735 L114.868,22.546 L119.621257,22.5456 C119.805577,22.5456 119.971465,22.49952 120.118921,22.40736 L120.226057,22.3296 C120.398857,22.1856 120.490057,21.9984 120.499657,21.768 C120.499657,21.2496 120.401257,20.76 120.204457,20.2992 C120.007657,19.8384 119.741257,19.4328 119.405257,19.0824 C119.069257,18.732 118.682857,18.456 118.246057,18.2544 C117.809257,18.0528 117.346057,17.952 116.856457,17.952 C116.222857,17.952 115.622857,18.1152 115.056457,18.4416 C114.490057,18.768 114.031657,19.236 113.681257,19.8456 C113.330857,20.4552 113.155657,21.192 113.155657,22.056 C113.155657,22.7952 113.316457,23.4576 113.638057,24.0432 C113.959657,24.6288 114.420457,25.092 115.020457,25.4328 C115.620457,25.7736 116.328457,25.944 117.144457,25.944 Z M118.656,21.106 L114.883,21.106 L114.921657,20.9348 L114.921657,20.9348 L114.970057,20.7744 C115.075657,20.4672 115.219657,20.2224 115.402057,20.04 C115.584457,19.8576 115.800457,19.728 116.050057,19.6512 C116.299657,19.5744 116.568457,19.536 116.856457,19.536 C117.154057,19.536 117.434857,19.6008 117.698857,19.7304 C117.962857,19.86 118.183657,20.0352 118.361257,20.256 C118.538857,20.4768 118.637257,20.7264 118.656457,21.0048 L118.656457,21.0048 L118.656,21.106 Z M132.626514,25.8 C132.818514,25.8288 133.000914,25.7928 133.173714,25.692 C133.346514,25.5912 133.466514,25.4448 133.533714,25.2528 L133.533714,25.2528 L135.736914,19.32 C135.756114,19.272 135.770514,19.2216 135.780114,19.1688 C135.789714,19.116 135.794514,19.056 135.794514,18.9888 C135.794514,18.7296 135.712914,18.516 135.549714,18.348 C135.386514,18.18 135.194514,18.096 134.973714,18.096 C134.532114,18.096 134.253714,18.2784 134.138514,18.6432 L134.138514,18.6432 L132.595,22.784 L131.488914,19.7808 C131.438514,19.6512 131.375964,19.54455 131.301264,19.46085 L131.222514,19.3848 C131.112114,19.2936 130.951314,19.248 130.740114,19.248 C130.365714,19.248 130.101714,19.4256 129.948114,19.7808 L129.948114,19.7808 L128.812,22.864 L127.255314,18.6432 C127.209234,18.4896 127.135506,18.369792 127.03413,18.283776 L126.952914,18.2256 C126.808914,18.1392 126.645714,18.096 126.463314,18.096 C126.194514,18.096 125.983314,18.1872 125.829714,18.3696 C125.676114,18.552 125.599314,18.7584 125.599314,18.9888 C125.599314,19.104 125.618514,19.2144 125.656914,19.32 L125.656914,19.32 L127.860114,25.2528 C127.927314,25.4448 128.049714,25.5912 128.227314,25.692 C128.404914,25.7928 128.584914,25.8288 128.767314,25.8 C129.093714,25.7808 129.338514,25.5984 129.501714,25.2528 L129.501714,25.2528 L130.661,21.71 L131.892114,25.2528 C132.034914,25.5552 132.240189,25.73265 132.507939,25.78515 L132.626514,25.8 Z M137.977143,17.16 C138.303543,17.16 138.538743,17.1096 138.682743,17.0088 C138.826743,16.908 138.898743,16.7184 138.898743,16.44 L138.898743,16.44 L138.898743,16.1664 C138.898743,15.8976 138.831543,15.7104 138.697143,15.6048 C138.562743,15.4992 138.327543,15.4464 137.991543,15.4464 C137.684343,15.4464 137.456343,15.4968 137.307543,15.5976 C137.158743,15.6984 137.084343,15.888 137.084343,16.1664 L137.084343,16.1664 L137.084343,16.44 C137.084343,16.7088 137.151543,16.896 137.285943,17.0016 C137.420343,17.1072 137.650743,17.16 137.977143,17.16 Z M137.991543,25.8 C138.241143,25.8 138.447543,25.716 138.610743,25.548 C138.773943,25.38 138.855543,25.1712 138.855543,24.9216 L138.855543,24.9216 L138.855543,18.9744 C138.855543,18.7248 138.773943,18.516 138.610743,18.348 C138.447543,18.18 138.241143,18.096 137.991543,18.096 C137.741943,18.096 137.535543,18.18 137.372343,18.348 C137.209143,18.516 137.127543,18.7248 137.127543,18.9744 L137.127543,18.9744 L137.127543,24.9216 C137.127543,25.1712 137.209143,25.38 137.372343,25.548 C137.535543,25.716 137.741943,25.8 137.991543,25.8 Z M143.558171,25.8 C143.894171,25.8 144.208571,25.7136 144.501371,25.5408 C144.794171,25.368 144.940571,25.1472 144.940571,24.8784 C144.940571,24.6576 144.885371,24.4848 144.774971,24.36 C144.664571,24.2352 144.542171,24.1728 144.407771,24.1728 C144.282971,24.1728 144.172571,24.1944 144.076571,24.2376 C143.980571,24.2808 143.874971,24.3024 143.759771,24.3024 C143.654171,24.3024 143.555771,24.2832 143.464571,24.2448 C143.373371,24.2064 143.301371,24.144 143.248571,24.0576 C143.195771,23.9712 143.169371,23.8608 143.169371,23.7264 L143.169371,23.7264 L143.169,19.825 L144.191771,19.824 C144.376091,19.824 144.535835,19.776384 144.671003,19.681152 L144.767771,19.6008 C144.921371,19.452 144.998171,19.2672 144.998171,19.0464 C144.998171,18.816 144.921371,18.624 144.767771,18.4704 C144.614171,18.3168 144.422171,18.24 144.191771,18.24 L144.191771,18.24 L143.169,18.241 L143.169371,17.3184 C143.169371,17.1104 143.114371,16.9307333 143.004371,16.7794 L142.931771,16.692 C142.773371,16.524 142.569371,16.44 142.319771,16.44 C142.070171,16.44 141.861371,16.524 141.693371,16.692 C141.525371,16.86 141.441371,17.0688 141.441371,17.3184 L141.441371,17.3184 L141.441,18.241 L140.778971,18.24 C140.594651,18.24 140.434907,18.287616 140.299739,18.382848 L140.202971,18.4632 C140.049371,18.612 139.972571,18.7968 139.972571,19.0176 C139.972571,19.248 140.049371,19.44 140.202971,19.5936 C140.356571,19.7472 140.548571,19.824 140.778971,19.824 L140.778971,19.824 L141.441,19.825 L141.441371,23.7984 C141.441371,24.2016 141.494269,24.5307429 141.600065,24.7858286 L141.657371,24.9072 C141.801371,25.176 141.981371,25.3752 142.197371,25.5048 C142.413371,25.6344 142.643771,25.716 142.888571,25.7496 C143.133371,25.7832 143.356571,25.8 143.558171,25.8 Z M152.3504,25.8 C152.6,25.8 152.8064,25.716 152.9696,25.548 C153.1328,25.38 153.2144,25.1712 153.2144,24.9216 L153.2144,24.9216 L153.2144,21.2352 C153.2144,20.6304 153.1472,20.0808 153.0128,19.5864 C152.8784,19.092 152.6312,18.696 152.2712,18.3984 C151.9112,18.1008 151.3856,17.952 150.6944,17.952 C150.3776,17.952 150.0848,18.0024 149.816,18.1032 C149.5472,18.204 149.3024,18.336 149.0816,18.4992 C148.8608,18.6624 148.6736,18.8376 148.52,19.0248 C148.4816,19.0716 148.4453,19.11765 148.4111,19.16295 L148.376,19.211 L148.376,16.0224 C148.376,15.8144 148.319333,15.6347333 148.206,15.4834 L148.1312,15.396 C147.968,15.228 147.7616,15.144 147.512,15.144 C147.2624,15.144 147.056,15.228 146.8928,15.396 C146.7296,15.564 146.648,15.7728 146.648,16.0224 L146.648,16.0224 L146.648,24.9216 C146.648,25.1712 146.7296,25.38 146.8928,25.548 C147.056,25.716 147.2624,25.8 147.512,25.8 C147.7616,25.8 147.968,25.716 148.1312,25.548 C148.2944,25.38 148.376,25.1712 148.376,24.9216 L148.376,24.9216 L148.376,21.2352 C148.376,20.9184 148.4408,20.6328 148.5704,20.3784 C148.7,20.124 148.8944,19.92 149.1536,19.7664 C149.4128,19.6128 149.7248,19.536 150.0896,19.536 C150.464,19.536 150.752,19.6128 150.9536,19.7664 C151.1552,19.92 151.2944,20.124 151.3712,20.3784 C151.448,20.6328 151.4864,20.9184 151.4864,21.2352 L151.4864,21.2352 L151.4864,24.9216 C151.4864,25.1712 151.568,25.38 151.7312,25.548 C151.8944,25.716 152.1008,25.8 152.3504,25.8 Z M163.397257,25.872 C164.184457,25.872 164.875657,25.6992 165.470857,25.3536 C166.066057,25.008 166.534057,24.528 166.874857,23.9136 C167.215657,23.2992 167.386057,22.5936 167.386057,21.7968 L167.386057,21.7968 L167.386057,16.584 C167.386057,16.3344 167.309257,16.1256 167.155657,15.9576 C167.002057,15.7896 166.800457,15.7056 166.550857,15.7056 C166.301257,15.7056 166.104457,15.7896 165.960457,15.9576 C165.816457,16.1256 165.744457,16.3344 165.744457,16.584 L165.744457,16.584 L165.744457,21.7968 C165.744457,22.2768 165.634057,22.692 165.413257,23.0424 C165.192457,23.3928 164.904457,23.664 164.549257,23.856 C164.194057,24.048 163.810057,24.144 163.397257,24.144 C163.013257,24.144 162.650857,24.048 162.310057,23.856 C161.969257,23.664 161.695657,23.3928 161.489257,23.0424 C161.282857,22.692 161.179657,22.2768 161.179657,21.7968 L161.179657,21.7968 L161.179657,16.584 C161.179657,16.3344 161.090857,16.1256 160.913257,15.9576 C160.735657,15.7896 160.536457,15.7056 160.315657,15.7056 C160.046857,15.7056 159.826057,15.7896 159.653257,15.9576 C159.480457,16.1256 159.394057,16.3344 159.394057,16.584 L159.394057,16.584 L159.394057,21.7968 C159.394057,22.5936 159.564457,23.2992 159.905257,23.9136 C160.246057,24.528 160.716457,25.008 161.316457,25.3536 C161.916457,25.6992 162.610057,25.872 163.397257,25.872 Z M173.514286,25.944 C174.167086,25.944 174.755086,25.7736 175.278286,25.4328 C175.801486,25.092 176.219086,24.6216 176.531086,24.0216 C176.843086,23.4216 176.999086,22.728 176.999086,21.9408 C176.999086,21.1536 176.843086,20.4624 176.531086,19.8672 C176.219086,19.272 175.796686,18.804 175.263886,18.4632 C174.731086,18.1224 174.128686,17.952 173.456686,17.952 C173.120686,17.952 172.801486,18.0096 172.499086,18.1248 C172.196686,18.24 171.930286,18.3864 171.699886,18.564 C171.469486,18.7416 171.287086,18.9192 171.152686,19.0968 L171.195,19.045 L171.195886,16.0224 C171.195886,15.8144 171.139219,15.6347333 171.025886,15.4834 L170.951086,15.396 C170.787886,15.228 170.581486,15.144 170.331886,15.144 C170.082286,15.144 169.875886,15.228 169.712686,15.396 C169.549486,15.564 169.467886,15.7728 169.467886,16.0224 L169.467886,16.0224 L169.467886,25.0656 C169.467886,25.3248 169.549486,25.536 169.712686,25.6992 C169.875886,25.8624 170.082286,25.944 170.331886,25.944 C170.581486,25.944 170.787886,25.86 170.951086,25.692 C171.114286,25.524 171.195886,25.3152 171.195886,25.0656 L171.195886,25.0656 L171.195,24.976 L171.271054,25.050048 C171.312718,25.088832 171.356686,25.12752 171.402958,25.166112 L171.548686,25.2816 C171.803086,25.4736 172.098286,25.632 172.434286,25.7568 C172.770286,25.8816 173.130286,25.944 173.514286,25.944 Z M173.240686,24.36 C172.818286,24.36 172.448686,24.2544 172.131886,24.0432 C171.815086,23.832 171.567886,23.5416 171.390286,23.172 C171.212686,22.8024 171.123886,22.392 171.123886,21.9408 C171.123886,21.48 171.212686,21.0696 171.390286,20.7096 C171.567886,20.3496 171.815086,20.064 172.131886,19.8528 C172.448686,19.6416 172.818286,19.536 173.240686,19.536 C173.663086,19.536 174.030286,19.6416 174.342286,19.8528 C174.654286,20.064 174.899086,20.3496 175.076686,20.7096 C175.254286,21.0696 175.343086,21.48 175.343086,21.9408 C175.343086,22.392 175.254286,22.8024 175.076686,23.172 C174.899086,23.5416 174.654286,23.832 174.342286,24.0432 C174.030286,24.2544 173.663086,24.36 173.240686,24.36 Z M182.061714,25.944 C182.541714,25.944 183.007314,25.8648 183.458514,25.7064 C183.909714,25.548 184.260114,25.3632 184.509714,25.152 C184.778514,24.9408 184.912914,24.7056 184.912914,24.4464 C184.912914,24.2544 184.843314,24.0864 184.704114,23.9424 C184.564914,23.7984 184.389714,23.7264 184.178514,23.7264 C184.024914,23.7264 183.861714,23.7696 183.688914,23.856 C183.583314,23.9136 183.465714,23.9832 183.336114,24.0648 C183.206514,24.1464 183.036114,24.216 182.824914,24.2736 C182.613714,24.3312 182.330514,24.36 181.975314,24.36 C181.591314,24.36 181.228914,24.2664 180.888114,24.0792 C180.547314,23.892 180.268914,23.6184 180.052914,23.2584 C179.929486,23.0526857 179.841322,22.8211102 179.788425,22.5636735 L179.785,22.546 L184.538514,22.5456 C184.722834,22.5456 184.888722,22.49952 185.036178,22.40736 L185.143314,22.3296 C185.316114,22.1856 185.407314,21.9984 185.416914,21.768 C185.416914,21.2496 185.318514,20.76 185.121714,20.2992 C184.924914,19.8384 184.658514,19.4328 184.322514,19.0824 C183.986514,18.732 183.600114,18.456 183.163314,18.2544 C182.726514,18.0528 182.263314,17.952 181.773714,17.952 C181.140114,17.952 180.540114,18.1152 179.973714,18.4416 C179.407314,18.768 178.948914,19.236 178.598514,19.8456 C178.248114,20.4552 178.072914,21.192 178.072914,22.056 C178.072914,22.7952 178.233714,23.4576 178.555314,24.0432 C178.876914,24.6288 179.337714,25.092 179.937714,25.4328 C180.537714,25.7736 181.245714,25.944 182.061714,25.944 Z M183.573,21.106 L179.8,21.106 L179.838914,20.9348 L179.838914,20.9348 L179.887314,20.7744 C179.992914,20.4672 180.136914,20.2224 180.319314,20.04 C180.501714,19.8576 180.717714,19.728 180.967314,19.6512 C181.216914,19.5744 181.485714,19.536 181.773714,19.536 C182.071314,19.536 182.352114,19.6008 182.616114,19.7304 C182.880114,19.86 183.100914,20.0352 183.278514,20.256 C183.456114,20.4768 183.554514,20.7264 183.573714,21.0048 L183.573714,21.0048 L183.573,21.106 Z M187.786743,25.8 C188.036343,25.8 188.242743,25.716 188.405943,25.548 C188.569143,25.38 188.650743,25.1712 188.650743,24.9216 L188.650743,24.9216 L188.650743,21.5088 C188.650743,21.1632 188.696343,20.8632 188.787543,20.6088 C188.878743,20.3544 188.998743,20.1408 189.147543,19.968 C189.296343,19.7952 189.459543,19.668 189.637143,19.5864 C189.814743,19.5048 189.989943,19.464 190.162743,19.464 C190.354743,19.464 190.525143,19.4976 190.673943,19.5648 L190.788693,19.6089 C190.906593,19.6467 191.033943,19.6656 191.170743,19.6656 C191.362743,19.6656 191.540343,19.596 191.703543,19.4568 C191.866743,19.3176 191.948343,19.0896 191.948343,18.7728 C191.948343,18.552 191.849943,18.36 191.653143,18.1968 C191.456343,18.0336 191.213943,17.952 190.925943,17.952 C190.685943,17.952 190.445943,17.9808 190.205943,18.0384 C189.965943,18.096 189.740343,18.1848 189.529143,18.3048 C189.317943,18.4248 189.128343,18.5736 188.960343,18.7512 C188.876343,18.84 188.800143,18.9354 188.731743,19.0374 L188.65,19.17 L188.650743,18.9744 C188.650743,18.7664 188.594076,18.5867333 188.480743,18.4354 L188.405943,18.348 C188.242743,18.18 188.036343,18.096 187.786743,18.096 C187.537143,18.096 187.330743,18.18 187.167543,18.348 C187.004343,18.516 186.922743,18.7248 186.922743,18.9744 L186.922743,18.9744 L186.922743,24.9216 C186.922743,25.1712 187.004343,25.38 187.167543,25.548 C187.330743,25.716 187.537143,25.8 187.786743,25.8 Z" id="RidetherewithUber" fill="#FFFFFF" fill-rule="nonzero"></path>
            <g id="Group-18" transform="translate(13.600000, 8.000000)">
                <g id="Group-17" transform="translate(4.800000, 4.800000)">
                    <circle id="Oval" fill="#FFFFFF" cx="7.84" cy="7.84" r="7.84"></circle>
                    <rect id="Rectangle" fill="#000000" x="5.6" y="5.6" width="4.48" height="4.48" rx="0.56"></rect>
                    <rect id="Rectangle" fill="#000000" x="0" y="7.28" width="8.4" height="1.12"></rect>
                </g>
                <rect id="Rectangle" stroke="#C0C0C0" stroke-width="0.8" x="0" y="0" width="24.8" height="24.8" rx="2.8"></rect>
            </g>
        </g>
    </g>
</svg>