<?xml version="1.0" encoding="UTF-8"?>
<svg width="30px" height="29px" viewBox="0 0 30 29" version="1.1" xmlns="http://www.w3.org/2000/svg" xmlns:xlink="http://www.w3.org/1999/xlink">
    <title>Group 14</title>
    <defs>
        <linearGradient x1="50%" y1="0%" x2="50%" y2="100%" id="linearGradient-1">
            <stop stop-color="#1D72F2" offset="0%"></stop>
            <stop stop-color="#1BC2FB" offset="100%"></stop>
        </linearGradient>
        <circle id="path-2" cx="14.336" cy="14.336" r="14.336"></circle>
    </defs>
    <g id="Assets" stroke="none" stroke-width="1" fill="none" fill-rule="evenodd">
        <g id="Group-14" transform="translate(0.500000, 0.000000)" fill-rule="nonzero">
            <g id="Oval">
                <use fill="#FF7058" xlink:href="#path-2"></use>
                <use fill="url(#linearGradient-1)" xlink:href="#path-2"></use>
            </g>
            <g id="mail" transform="translate(6.000000, 8.500000)" fill="#FFFFFF">
                <path d="M15.1775,0 L1.4625,0 C1.2373725,0 1.02661,0.0553475 0.8359325,0.146575 L8.2875,7.5981425 L9.9576425,5.993065 C9.9576425,5.993065 9.9577725,5.9929025 9.957805,5.9928375 C9.9578375,5.9927725 9.9579675,5.9927075 9.9579675,5.9927075 L15.804295,0.146705 C15.613585,0.0554125 15.4026925,0 15.1775,0 Z" id="Path"></path>
                <path d="M16.49362,0.83616 L10.9919225,6.337565 L16.493425,11.8390675 C16.5846525,11.64839 16.64,11.4376275 16.64,11.2125 L16.64,1.4625 C16.64,1.2375025 16.5847825,1.0267725 16.49362,0.83616 Z" id="Path"></path>
                <path d="M0.146575,0.8359325 C0.0553475,1.02661 0,1.2373725 0,1.4625 L0,11.2125 C0,11.4374975 0.0552825,11.6482925 0.146445,11.838905 L5.6481425,6.3375 L0.146575,0.8359325 Z" id="Path"></path>
                <path d="M10.302565,7.0269225 L8.632195,8.632195 C8.53697,8.72742 8.412235,8.7750325 8.2875325,8.7750325 C8.16283,8.7750325 8.0380625,8.72742 7.94287,8.632195 L6.3375,7.0268575 L0.835705,12.528295 C1.026415,12.6195875 1.2373075,12.675 1.4625,12.675 L15.1775,12.675 C15.4026275,12.675 15.61339,12.6196525 15.8040675,12.528425 L10.302565,7.0269225 Z" id="Path"></path>
            </g>
        </g>
    </g>
</svg>