<?xml version="1.0" encoding="UTF-8"?>
<svg width="29px" height="29px" viewBox="0 0 29 29" version="1.1" xmlns="http://www.w3.org/2000/svg" xmlns:xlink="http://www.w3.org/1999/xlink">
    <title>linkedin</title>
    <g id="Assets" stroke="none" stroke-width="1" fill="none" fill-rule="evenodd">
        <g id="linkedin" fill-rule="nonzero">
            <circle id="Oval" fill="#4376B1" cx="14.379172" cy="14.3791158" r="14.3791158"></circle>
            <path d="M7.63772573,22.6094745 C6.81525154,22.6094745 6.14870088,21.9426992 6.14870088,21.1204497 L6.14870088,21.1204497 L6.14870088,7.63766956 C6.14870088,6.81519537 6.81525154,6.14864472 7.63772573,6.14864472 L7.63772573,6.14864472 L21.1206182,6.14864472 C21.9428677,6.14864472 22.609643,6.81519537 22.6098677,7.63766956 L22.6098677,7.63766956 L22.6098677,21.1206182 C22.6098677,21.9428677 21.9430924,22.609643 21.1208429,22.609643 L21.1208429,22.609643 Z M10.8091071,12.1964109 L8.96459234,12.1964109 C8.72525869,12.1964109 8.5311968,12.3903605 8.5311968,12.6298065 L8.5311968,12.6298065 L8.5311968,20.3620075 C8.5311968,20.6013411 8.72514636,20.795403 8.96459234,20.795403 L8.96459234,20.795403 L10.8089948,20.795403 C11.0484408,20.795403 11.2423903,20.6014535 11.2423903,20.3620075 L11.2425027,20.3620075 L11.2425027,12.6298065 C11.2425027,12.3904728 11.0485531,12.1964109 10.8091071,12.1964109 L10.8091071,12.1964109 Z M12.8621752,12.1962986 C12.6420512,12.1962986 12.4636041,12.3748019 12.4636041,12.5948697 L12.4636041,12.5948697 L12.4636041,20.3968319 C12.4636041,20.616956 12.6421074,20.795403 12.8621752,20.795403 L12.8621752,20.795403 L14.7766759,20.7953469 C14.8041914,20.7953469 14.8310539,20.7925577 14.8569968,20.787247 L14.9316314,20.7640733 C14.9945115,20.7374655 15.0491363,20.6951715 15.0906102,20.6421008 C15.105086,20.6238161 15.1182364,20.6035644 15.1294978,20.5821638 C15.15856,20.5265052 15.1749661,20.4635804 15.1749661,20.3968319 L15.1749661,20.3968319 L15.1749661,16.2135203 C15.1952787,15.9836484 15.2486889,15.6381932 15.3882377,15.310193 L15.4381856,15.2016324 C15.4446997,15.1884493 15.4513676,15.1753201 15.458193,15.1622538 C15.6184958,14.8553834 15.8652074,14.5837774 16.2451904,14.4640022 L16.3829549,14.4285946 C16.4242564,14.4202643 16.4669549,14.4136003 16.5110977,14.408721 C16.5693818,14.4023506 16.6293932,14.3990556 16.6919629,14.3990556 L16.6919629,14.3990556 L16.8540857,14.4058598 C18.2535993,14.5280671 18.1060029,16.2482845 18.1060029,16.7698685 L18.1060029,20.3968881 C18.1060029,20.6170121 18.2844499,20.7954592 18.5043493,20.7954592 L18.5043493,20.7954592 L20.4836683,20.7955154 C20.7035677,20.7955154 20.8819024,20.6170121 20.8819024,20.3969443 L20.882072,20.3970004 L20.8818482,16.4136077 C20.8765564,14.7522355 20.7491256,12.0664934 17.7307416,12.0664934 L17.7307416,12.0664934 L17.48595,12.0718588 C16.2212394,12.1286884 15.6006798,12.6305301 15.17491,13.2693963 L15.1749661,13.2693963 L15.1749661,12.5948697 C15.1749661,12.3747457 14.9965752,12.1962986 14.7765074,12.1962986 L14.7765074,12.1962986 Z M9.88676547,7.96271621 C8.91892741,7.96271621 8.13453541,8.74722055 8.13453541,9.71494627 C8.13453541,10.6828405 8.91898358,11.4674572 9.88676547,11.4674572 C10.8546035,11.4674572 11.6391079,10.6829528 11.6391079,9.71494627 C11.6391079,8.74733288 10.8546597,7.96271621 9.88676547,7.96271621 Z" id="Combined-Shape" fill="#FFFFFF"></path>
        </g>
    </g>
</svg>